<ttFont>
        <CharString name=".notdef">
          609 -1 15 3 12 69 45 58 22 hstemhm
          315 28 51 16 30 17 24 17 -14 45 30 13 44 17 24 14 33 13 hintmask 1010101001011000
          712 225 rmoveto
          -14 -11 5 12 -6 hvcurveto
          -9 -3 -6 -8 -10 hhcurveto
          -11 -9 9 8 -3 hvcurveto
          -8 -2 -10 -6 -7 hhcurveto
          -15 -1 -8 8 -3 10 -5 -8 -8 -8 -13 -1 rrcurveto
          -30 -10 25 28 1 hvcurveto
          1 21 4 25 7 12 rrcurveto
          25 2 18 -10 -29 vvcurveto
          -19 -9 -22 -16 -5 vhcurveto
          2 -8 3 -8 5 -4 10 5 7 13 4 10 rrcurveto
          15 vlineto
          1 21 4 19 14 14 rrcurveto
          6 8 -1 -2 7 hvcurveto
          3 4 15 1 2 vhcurveto
          7 1 14 -5 5 -5 -5 -30 -2 -47 8 -29 6 -1 6 13 3 5 -1 3 rcurveline
          -11 54 7 71 22 41 rrcurveto
          34 -5 9 -15 -35 vvcurveto
          -33 -12 -40 -21 -9 vhcurveto
          -20 4 -16 9 -13 vhcurveto
          12 10 10 18 5 29 1 2 1 3 1 -5 rrcurveto
          -21 3 -3 -46 -35 hhcurveto
          -275 111 rmoveto
          -91 11 -17 -102 -56 hhcurveto
          hintmask 0011110000000000
          -21 -5 11 21 9 2 9 2 8 hvcurveto
          10 11 -3 -8 8 hvcurveto
          -2 -11 -2 -14 3 -12 24 16 1 25 4 38 rrcurveto
          -2 -1 -4 -3 -3 hhcurveto
          -14 -10 8 13 -6 hvcurveto
          -12 -4 -9 -13 -19 hhcurveto
          -45 -16 42 41 -1 hvcurveto
          -1 46 11 48 32 27 rrcurveto
          18 -3 26 -7 -36 vvcurveto
          -13 -8 -12 -11 -9 vhcurveto
          -3 -4 0 3 1 2 2 15 -6 24 -5 7 -19 -19 -13 -116 36 -26 15 5 10 16 3 10 rrcurveto
          -3 13 -1 16 15 vvcurveto
          14 2 11 3 6 vhcurveto
          6 -1 14 -3 7 -7 -1 -31 0 -29 8 -27 4 1 1 5 1 2 8 36 -9 43 -3 22 rrcurveto
          hintmask 1010101001011000
          10 1 16 -6 8 -9 rrcurveto
          4 5 rmoveto
          hintmask 0010000100010000
          8 6 -1 -1 5 hvcurveto
          5 -1 4 -2 3 -3 5 -8 3 -11 1 -16 7 13 4 8 2 8 rrcurveto
          5 3 9 2 4 vhcurveto
          12 11 -4 -7 5 hvcurveto
          -3 -14 -1 -19 2 -14 -15 -4 -10 6 -2 16 rrcurveto
          hintmask 0010000010000000
          -4 -8 -7 -8 -3 -11 rrcurveto
          -9 0 -17 -3 -8 vhcurveto
          hintmask 0010001000000000
          -3 -12 -8 -8 -13 2 rrcurveto
          hintmask 1010101001011000
          -2 34 -1 51 -13 30 rrcurveto
          178 -103 rmoveto
          5 4 8 8 1 8 -6 21 0 27 1 10 -9 -10 -7 -44 7 -24 rrcurveto
          85 59 rmoveto
          13 19 4 46 -4 23 -6 -24 -6 -34 -1 -30 rrcurveto
          -138 20 rmoveto
          -5 -15 -2 -17 -19 vvcurveto
          8 2 5 16 14 vvcurveto
          9 -3 7 -3 3 vhcurveto
          -71 -219 rmoveto
          19 18 1 3 18 hvcurveto
          2 -8 9 -17 16 2 7 -4 6 -3 2 -3 -26 -17 -30 -18 -28 -22 -21 -5 -28 3 -23 -31 rrcurveto
          -5 2 0 3 -2 vhcurveto
          16 14 7 5 26 4 -13 -8 -9 -13 -5 -18 1 -4 2 -1 5 1 13 21 16 21 24 5 23 3 22 -2 25 -6 rrcurveto
          3 4 0 1 3 vvcurveto
          -16 10 -20 1 -21 1 rrcurveto
          34 29 41 17 11 vvcurveto
          6 -5 2 -8 6 vhcurveto
          9 9 -1 15 -1 8 133 46 89 118 62 64 42 43 154 -8 61 56 rrcurveto
          hintmask 0100001000000000
          9 8 -5 16 -10 -2 rrcurveto
          -7 -278 -30 -2 -42 hvcurveto
          -227 45 -199 8 -29 42 rrcurveto
          70 -40 -39 28 -57 hhcurveto
          -65 -43 -53 -49 hvcurveto
          -62 -29 rlineto
          -3 -5 6 0 0 vvcurveto
          85 -16 rlineto
          hintmask 1010000001011000
          44 -26 4 -54 5 -76 8 -121 71 -68 133 -19 rrcurveto
          -6 4 -18 14 vhcurveto
          12 -12 -30 -10 -35 -13 -30 -15 rlinecurve
          -21 -32 4 -22 -30 hvcurveto
          -5 1 0 3 -2 vhcurveto
          18 9 15 6 25 -2 -13 -6 -14 -8 -10 -16 2 -4 4 -1 3 -1 18 18 21 15 25 -1 22 -1 6 -2 23 -11 3 2 2 -2 1 6 rrcurveto
          hintmask 1000000000100000
          -13 14 -10 1 -20 6 rrcurveto
          43 23 44 8 7 vvcurveto
          5 -5 5 -6 5 vhcurveto
          10 8 15 4 1 hvcurveto
          endchar
        </CharString>
        <CharString name=".null">
          -601 endchar
        </CharString>
        <CharString name="A">
          102 0 210 -65 65 430 60 hstemhm
          50 603 hintmask 01110000
          hintmask 10110000
          50 hmoveto
          84 hlineto
          hintmask 01110000
          50 145 rlineto
          333 hlineto
          hintmask 10110000
          52 -145 rlineto
          84 hlineto
          -245 700 rlineto
          -118 hlineto
          61 -60 rmoveto
          -8 3 -11 4 -10 vhcurveto
          hintmask 01110000
          138 -401 rlineto
          -291 hlineto
          135 401 rlineto
          hintmask 10110000
          4 10 3 11 8 vvcurveto
          endchar
        </CharString>
        <CharString name="AE">
          302 0 70 75 65 110 70 240 70 hstem
          410 84 vstem
          828 70 rmoveto
          -334 250 278 70 -278 240 334 70 -548 hlineto
          -255 -700 rlineto
          93 hlineto
          50 145 rlineto
          242 -145 418 hlineto
          -492 630 rmoveto
          74 -420 -221 hlineto
          endchar
        </CharString>
        <CharString name="Aacute">
          102 0 210 -65 65 430 60 hstemhm
          50 603 hintmask 01110000
          hintmask 10110000
          50 hmoveto
          84 hlineto
          hintmask 01110000
          50 145 rlineto
          333 hlineto
          hintmask 10110000
          52 -145 rlineto
          84 hlineto
          -245 700 rlineto
          -118 hlineto
          61 -60 rmoveto
          -8 3 -11 4 -10 vhcurveto
          hintmask 01110000
          138 -401 rlineto
          -291 hlineto
          135 401 rlineto
          hintmask 10110000
          4 10 3 11 8 vvcurveto
          118 164 rmoveto
          -33 66 -162 -97 19 -40 rlineto
          endchar
        </CharString>
        <CharString name="Acircumflex">
          102 0 210 -65 65 430 60 110 60 hstemhm
          50 603 hintmask 01111000
          hintmask 10111000
          50 hmoveto
          84 hlineto
          hintmask 01111000
          50 145 rlineto
          333 hlineto
          hintmask 10111000
          52 -145 rlineto
          84 hlineto
          -245 700 rlineto
          -118 hlineto
          61 -60 rmoveto
          -8 3 -11 4 -10 vhcurveto
          hintmask 01111000
          138 -401 rlineto
          -291 hlineto
          135 401 rlineto
          hintmask 10111000
          4 10 3 11 8 vvcurveto
          hintmask 01111000
          6 170 rmoveto
          101 -62 26 34 -103 88 rlineto
          -53 hlineto
          -103 -88 26 -34 102 62 rlineto
          endchar
        </CharString>
        <CharString name="Adieresis">
          102 0 210 -65 65 430 60 56 92 hstemhm
          220 96 70 96 hintmask 01111100
          hintmask 10111100
          50 hmoveto
          84 hlineto
          hintmask 01111100
          50 145 rlineto
          333 hlineto
          hintmask 10111100
          52 -145 rlineto
          84 hlineto
          -245 700 rlineto
          -118 hlineto
          61 -60 rmoveto
          -8 3 -11 4 -10 vhcurveto
          hintmask 01111100
          138 -401 rlineto
          -291 hlineto
          135 401 rlineto
          hintmask 10111100
          4 10 3 11 8 vvcurveto
          hintmask 01111100
          -31 166 rmoveto
          25 0 1 -8 7 vhcurveto
          9 -9 -3 0 -30 hhcurveto
          -27 -1 0 -9 -8 hvcurveto
          -9 -10 -1 -1 -22 vvcurveto
          -8 vlineto
          -22 1 -3 9 -8 vhcurveto
          -8 9 2 -1 25 hhcurveto
          5 hlineto
          24 3 0 9 9 hvcurveto
          9 7 0 1 25 vvcurveto
          166 8 rmoveto
          25 0 1 -8 7 vhcurveto
          9 -9 -3 0 -30 hhcurveto
          -27 -1 0 -9 -8 hvcurveto
          -9 -10 -1 -1 -22 vvcurveto
          -8 vlineto
          -22 1 -3 9 -8 vhcurveto
          -8 9 2 -1 25 hhcurveto
          5 hlineto
          24 3 0 9 9 hvcurveto
          9 7 0 1 25 vvcurveto
          endchar
        </CharString>
        <CharString name="Agrave">
          102 0 210 -65 65 430 60 hstemhm
          50 603 hintmask 01110000
          hintmask 10110000
          50 hmoveto
          84 hlineto
          hintmask 01110000
          50 145 rlineto
          333 hlineto
          hintmask 10110000
          52 -145 rlineto
          84 hlineto
          -245 700 rlineto
          -118 hlineto
          61 -60 rmoveto
          -8 3 -11 4 -10 vhcurveto
          hintmask 01110000
          138 -401 rlineto
          -291 hlineto
          135 401 rlineto
          hintmask 10110000
          4 10 3 11 8 vvcurveto
          59 93 rmoveto
          19 40 -162 97 -33 -66 rlineto
          endchar
        </CharString>
        <CharString name="Aring">
          102 0 210 -65 65 430 60 50 43 75 43 hstemhm
          257 43 102 43 hintmask 01111110
          hintmask 10111110
          50 hmoveto
          84 hlineto
          hintmask 01111110
          50 145 rlineto
          333 hlineto
          hintmask 10111110
          52 -145 rlineto
          84 hlineto
          -245 700 rlineto
          -118 hlineto
          61 -60 rmoveto
          -8 3 -11 4 -10 vhcurveto
          hintmask 01111110
          138 -401 rlineto
          -291 hlineto
          135 401 rlineto
          hintmask 10111110
          4 10 3 11 8 vvcurveto
          hintmask 01111110
          -27 271 rmoveto
          -37 -1 0 -11 -11 hvcurveto
          -14 -13 0 -1 -31 vvcurveto
          -49 vlineto
          -31 0 -1 14 -13 vhcurveto
          -11 11 1 0 37 hhcurveto
          62 hlineto
          37 1 0 11 11 hvcurveto
          14 13 0 1 31 vvcurveto
          49 vlineto
          31 0 1 -14 13 vhcurveto
          11 -11 -1 0 -37 hhcurveto
          -55 -118 rmoveto
          -15 1 1 5 -7 hvcurveto
          -6 5 0 1 15 vvcurveto
          21 vlineto
          15 0 1 6 5 vhcurveto
          5 7 -1 1 15 hhcurveto
          48 hlineto
          15 -1 -1 -5 7 hvcurveto
          6 -5 0 -1 -15 vvcurveto
          -21 vlineto
          -15 0 -1 -6 -5 vhcurveto
          -5 -7 1 -1 -15 hhcurveto
          endchar
        </CharString>
        <CharString name="Atilde">
          102 0 210 -65 65 430 60 51 62 -27 61 hstemhm
          50 603 hintmask 01101100
          hintmask 10101100
          50 hmoveto
          84 hlineto
          hintmask 01101100
          50 145 rlineto
          333 hlineto
          hintmask 10101100
          52 -145 rlineto
          84 hlineto
          -245 700 rlineto
          -118 hlineto
          61 -60 rmoveto
          -8 3 -11 4 -10 vhcurveto
          hintmask 01101100
          138 -401 rlineto
          -291 hlineto
          135 401 rlineto
          hintmask 10101100
          4 10 3 11 8 vvcurveto
          hintmask 01101100
          -148 162 rmoveto
          27 -51 47 25 rlineto
          10 19 1 0 9 hhcurveto
          hintmask 01110100
          24 43 -35 32 hhcurveto
          8 11 3 3 5 hvcurveto
          79 40 -27 51 -62 -32 rlineto
          -2 -5 -5 -1 -3 hhcurveto
          hintmask 01101100
          -20 -53 34 -27 hhcurveto
          -8 -11 -3 -3 -5 hvcurveto
          endchar
        </CharString>
        <CharString name="B">
          52 0 70 250 70 240 70 hstemhm
          100 84 298 84 -72 84 hintmask 11110100
          477 289 rmoveto
          17 -14 0 -1 -21 vvcurveto
          -142 vlineto
          -20 0 -1 -12 -10 vhcurveto
          -10 -12 -1 0 -24 hhcurveto
          -261 250 234 hlineto
          20 1 0 -13 16 hvcurveto
          -271 323 rmoveto
          hintmask 11111000
          249 hlineto
          24 1 0 -10 12 hvcurveto
          12 -10 0 -1 -20 vvcurveto
          -130 vlineto
          -23 0 -1 -16 -13 vhcurveto
          -26 -21 rlineto
          -11 -14 -1 0 -24 hhcurveto
          -217 hlineto
          304 -24 rmoveto
          8 14 8 5 6 hvcurveto
          34 26 rlineto
          11 9 5 4 21 vvcurveto
          171 vlineto
          30 -12 10 -12 10 vhcurveto
          -24 20 rlineto
          10 -12 -12 10 -24 hhcurveto
          -370 -700 hlineto
          hintmask 11110100
          382 hlineto
          24 12 10 10 12 hvcurveto
          8 7 8 7 8 6 rrcurveto
          12 10 12 10 30 vvcurveto
          180 vlineto
          26 -3 3 -11 10 vhcurveto
          hintmask 11111000
          -48 39 rlineto
          5 -6 -14 8 -8 hhcurveto
          endchar
        </CharString>
        <CharString name="C">
          62 0 70 560 70 hstem
          100 84 346 84 vstem
          614 570 rmoveto
          40 vlineto
          30 -12 10 -12 10 vhcurveto
          -24 20 rlineto
          10 -12 -12 10 -24 hhcurveto
          -322 hlineto
          -24 -12 -10 -10 -12 hvcurveto
          -24 -20 rlineto
          -12 -10 -12 -10 -30 vvcurveto
          -520 vlineto
          -30 12 -10 12 -10 vhcurveto
          24 -20 rlineto
          -10 12 12 -10 24 hhcurveto
          322 hlineto
          24 12 10 10 12 hvcurveto
          24 20 rlineto
          12 10 12 10 30 vvcurveto
          40 -84 -19 vlineto
          -20 0 -1 -12 -10 vhcurveto
          -10 -12 -1 0 -24 hhcurveto
          -248 hlineto
          -24 -1 0 10 -12 hvcurveto
          -12 10 0 1 20 vvcurveto
          478 vlineto
          20 0 1 12 10 vhcurveto
          10 12 1 0 24 hhcurveto
          248 hlineto
          24 1 0 -10 12 hvcurveto
          12 -10 0 -1 -20 vvcurveto
          -19 vlineto
          endchar
        </CharString>
        <CharString name="Ccedilla">
          62 -220 47 86 47 40 70 560 70 hstemhm
          100 84 114 49 -7 49 67 49 25 84 hintmask 1111101100000000
          hintmask 1111101110000000
          518 hmoveto
          24 12 10 10 12 hvcurveto
          24 20 rlineto
          12 10 12 10 30 vvcurveto
          40 -84 -19 vlineto
          -20 0 -1 -12 -10 vhcurveto
          -10 -12 -1 0 -24 hhcurveto
          -248 hlineto
          -24 -1 0 10 -12 hvcurveto
          -12 10 0 1 20 vvcurveto
          478 vlineto
          20 0 1 12 10 vhcurveto
          10 12 1 0 24 hhcurveto
          248 hlineto
          24 1 0 -10 12 hvcurveto
          12 -10 0 -1 -20 vvcurveto
          -19 84 40 vlineto
          30 -12 10 -12 10 vhcurveto
          -24 20 rlineto
          10 -12 -12 10 -24 hhcurveto
          -322 hlineto
          -24 -12 -10 -10 -12 hvcurveto
          -24 -20 rlineto
          -12 -10 -12 -10 -30 vvcurveto
          -520 vlineto
          -30 12 -10 12 -10 vhcurveto
          24 -20 rlineto
          -10 12 12 -10 24 hhcurveto
          144 -97 hlineto
          hintmask 1111101100000000
          49 hlineto
          10 7 rlineto
          3 5 3 0 3 hhcurveto
          21 hlineto
          12 1 0 -5 6 hvcurveto
          6 -5 0 -1 -10 vvcurveto
          -44 vlineto
          -10 0 -1 -6 -5 vhcurveto
          hintmask 1111110100000000
          -5 -6 -2 0 -12 hhcurveto
          -58 hlineto
          -12 -1 0 5 -6 hvcurveto
          -6 5 0 1 10 vvcurveto
          9 -49 -32 vlineto
          -15 6 -5 6 -5 vhcurveto
          12 -10 rlineto
          -5 6 6 -5 12 hhcurveto
          111 hlineto
          12 6 5 5 6 hvcurveto
          12 10 rlineto
          6 5 6 5 15 vvcurveto
          90 vlineto
          15 -6 5 -6 5 vhcurveto
          hintmask 1111101100000000
          -12 10 rlineto
          5 -6 -6 5 -12 hhcurveto
          -32 hlineto
          -12 -6 -6 -13 -18 hvcurveto
          59 vlineto
          endchar
        </CharString>
        <CharString name="D">
          112 0 70 560 70 hstem
          100 84 370 84 vstem
          100 hmoveto
          370 hlineto
          24 10 7 13 14 hvcurveto
          96 80 rlineto
          13 11 11 9 20 vvcurveto
          420 vlineto
          20 -11 9 -13 11 vhcurveto
          -96 80 rlineto
          13 -14 -10 7 -24 hhcurveto
          -370 hlineto
          454 -530 rmoveto
          -20 -11 -9 -13 -11 vhcurveto
          -48 -40 rlineto
          -13 -14 -10 -7 -24 hhcurveto
          -250 560 250 hlineto
          24 10 -7 -13 14 hvcurveto
          48 -40 rlineto
          13 -11 11 -9 -20 vvcurveto
          endchar
        </CharString>
        <CharString name="E">
          22 0 70 250 70 240 70 hstem
          100 84 vstem
          548 70 rmoveto
          -364 250 308 70 -308 240 364 70 -448 -700 448 hlineto
          endchar
        </CharString>
        <CharString name="Eacute">
          22 0 70 250 70 240 70 hstem
          100 84 vstem
          548 70 rmoveto
          -364 250 308 70 -308 240 364 70 -448 -700 448 hlineto
          -103 804 rmoveto
          -33 66 -162 -97 19 -40 rlineto
          endchar
        </CharString>
        <CharString name="Ecircumflex">
          22 0 70 250 70 240 70 110 60 hstem
          100 84 vstem
          548 70 rmoveto
          -364 250 308 70 -308 240 364 70 -448 -700 448 hlineto
          -208 810 rmoveto
          101 -62 26 34 -103 88 rlineto
          -53 hlineto
          -103 -88 26 -34 102 62 rlineto
          endchar
        </CharString>
        <CharString name="Edieresis">
          22 0 70 250 70 240 70 56 92 hstemhm
          100 84 16 96 70 96 hintmask 11111010
          548 70 rmoveto
          -364 250 308 70 -308 240 364 70 -448 -700 448 hlineto
          hintmask 11111110
          -252 806 rmoveto
          25 0 1 -8 7 vhcurveto
          9 -9 -3 0 -30 hhcurveto
          -27 -1 0 -9 -8 hvcurveto
          -9 -10 -1 -1 -22 vvcurveto
          -8 vlineto
          -22 1 -3 9 -8 vhcurveto
          -8 9 2 -1 25 hhcurveto
          5 hlineto
          24 3 0 9 9 hvcurveto
          9 7 0 1 25 vvcurveto
          166 8 rmoveto
          25 0 1 -8 7 vhcurveto
          9 -9 -3 0 -30 hhcurveto
          -27 -1 0 -9 -8 hvcurveto
          -9 -10 -1 -1 -22 vvcurveto
          -8 vlineto
          -22 1 -3 9 -8 vhcurveto
          -8 9 2 -1 25 hhcurveto
          5 hlineto
          24 3 0 9 9 hvcurveto
          9 7 0 1 25 vvcurveto
          endchar
        </CharString>
        <CharString name="Egrave">
          22 0 70 250 70 240 70 hstem
          100 84 vstem
          548 70 rmoveto
          -364 250 308 70 -308 240 364 70 -448 -700 448 hlineto
          -162 733 rmoveto
          19 40 -162 97 -33 -66 rlineto
          endchar
        </CharString>
        <CharString name="Eth">
          145 0 70 250 65 245 70 hstem
          107 84 370 84 vstem
          107 385 rmoveto
          -92 -65 92 -320 370 hlineto
          24 10 7 13 14 hvcurveto
          96 80 rlineto
          13 11 11 9 20 vvcurveto
          420 vlineto
          20 -11 9 -13 11 vhcurveto
          -96 80 rlineto
          13 -14 -10 7 -24 hhcurveto
          -370 hlineto
          250 -315 rmoveto
          -166 245 250 hlineto
          24 10 -7 -13 14 hvcurveto
          48 -40 rlineto
          13 -11 11 -9 -20 vvcurveto
          -360 vlineto
          -20 -11 -9 -13 -11 vhcurveto
          -48 -40 rlineto
          -13 -14 -10 -7 -24 hhcurveto
          -250 250 166 hlineto
          endchar
        </CharString>
        <CharString name="Euro">
          91 0 70 185 65 61 65 184 70 hstem
          120 84 344 84 vstem
          430 320 rmoveto
          -226 61 256 65 -256 143 hlineto
          20 0 1 12 10 vhcurveto
          10 12 1 0 24 hhcurveto
          246 hlineto
          24 1 0 -10 12 hvcurveto
          12 -10 0 -1 -20 vvcurveto
          -19 84 40 vlineto
          30 -12 10 -12 10 vhcurveto
          -24 20 rlineto
          10 -12 -12 10 -24 hhcurveto
          -320 hlineto
          -24 -12 -10 -10 -12 hvcurveto
          -24 -20 rlineto
          -12 -10 -12 -10 -30 vvcurveto
          -164 -100 -65 100 -61 -100 -65 100 -165 vlineto
          -30 12 -10 12 -10 vhcurveto
          24 -20 rlineto
          -10 12 12 -10 24 hhcurveto
          320 hlineto
          24 12 10 10 12 hvcurveto
          24 20 rlineto
          12 10 12 10 30 vvcurveto
          40 -84 -19 vlineto
          -20 0 -1 -12 -10 vhcurveto
          -10 -12 -1 0 -24 hhcurveto
          -246 hlineto
          -24 -1 0 10 -12 hvcurveto
          -12 10 0 1 20 vvcurveto
          144 226 vlineto
          endchar
        </CharString>
        <CharString name="F">
          -28 21 -21 320 70 240 70 hstem
          100 84 vstem
          184 hmoveto
          320 268 70 -268 240 324 70 -408 -700 vlineto
          endchar
        </CharString>
        <CharString name="G">
          86 0 70 220 70 270 70 hstem
          100 84 344 84 vstem
          612 570 rmoveto
          40 vlineto
          30 -12 10 -12 10 vhcurveto
          -24 20 rlineto
          10 -12 -12 10 -24 hhcurveto
          -320 hlineto
          -24 -12 -10 -10 -12 hvcurveto
          -24 -20 rlineto
          -12 -10 -12 -10 -30 vvcurveto
          -520 vlineto
          -30 12 -10 12 -10 vhcurveto
          24 -20 rlineto
          -10 12 12 -10 24 hhcurveto
          320 hlineto
          24 12 10 10 12 hvcurveto
          24 20 rlineto
          12 10 12 10 30 vvcurveto
          270 -236 -70 152 -179 vlineto
          -20 0 -1 -12 -10 vhcurveto
          -10 -12 -1 0 -24 hhcurveto
          -246 hlineto
          -24 -1 0 10 -12 hvcurveto
          -12 10 0 1 20 vvcurveto
          478 vlineto
          20 0 1 12 10 vhcurveto
          10 12 1 0 24 hhcurveto
          246 hlineto
          24 1 0 -10 12 hvcurveto
          12 -10 0 -1 -20 vvcurveto
          -19 vlineto
          endchar
        </CharString>
        <CharString name="H">
          131 21 -21 325 65 310 -20 hstem
          100 84 364 84 vstem
          548 700 rmoveto
          -310 -364 310 -84 -700 84 325 364 -325 84 700 vlineto
          endchar
        </CharString>
        <CharString name="I">
          -317 21 -21 700 -20 hstem
          100 84 vstem
          100 700 rmoveto
          -700 84 700 vlineto
          endchar
        </CharString>
        <CharString name="Iacute">
          -317 21 -21 700 -20 hstem
          100 84 vstem
          100 700 rmoveto
          -700 84 700 vlineto
          89 104 rmoveto
          -33 66 -162 -97 19 -40 rlineto
          endchar
        </CharString>
        <CharString name="Icircumflex">
          -317 700 170 hstem
          37 63 84 60 vstem
          184 700 rmoveto
          -700 -84 700 vlineto
          43 110 rmoveto
          101 -62 26 34 -103 88 rlineto
          -53 hlineto
          -103 -88 26 -34 102 62 rlineto
          endchar
        </CharString>
        <CharString name="Idieresis">
          -317 21 -21 700 -20 76 92 hstemhm
          11 96 -7 84 -7 96 hintmask 11101000
          100 700 rmoveto
          -700 84 700 vlineto
          hintmask 11110100
          -77 106 rmoveto
          25 0 1 -8 7 vhcurveto
          9 -9 -3 0 -30 hhcurveto
          -27 -1 0 -9 -8 hvcurveto
          -9 -10 -1 -1 -22 vvcurveto
          -8 vlineto
          -22 1 -3 9 -8 vhcurveto
          -8 9 2 -1 25 hhcurveto
          5 hlineto
          24 3 0 9 9 hvcurveto
          9 7 0 1 25 vvcurveto
          166 8 rmoveto
          25 0 1 -8 7 vhcurveto
          9 -9 -3 0 -30 hhcurveto
          -27 -1 0 -9 -8 hvcurveto
          -9 -10 -1 -1 -22 vvcurveto
          -8 vlineto
          -22 1 -3 9 -8 vhcurveto
          -8 9 2 -1 25 hhcurveto
          5 hlineto
          24 3 0 9 9 hvcurveto
          9 7 0 1 25 vvcurveto
          endchar
        </CharString>
        <CharString name="Igrave">
          -317 21 -21 700 -20 hstem
          100 84 vstem
          100 700 rmoveto
          -700 84 700 vlineto
          -7 33 rmoveto
          19 40 -162 97 -33 -66 rlineto
          endchar
        </CharString>
        <CharString name="J">
          -92 0 70 630 -20 hstem
          35 84 206 84 vstem
          325 700 rmoveto
          -589 vlineto
          -20 0 -1 -12 -10 vhcurveto
          -10 -12 -1 0 -24 hhcurveto
          -108 hlineto
          -24 -1 0 10 -12 hvcurveto
          -12 10 0 1 20 vvcurveto
          49 -84 -70 vlineto
          -30 12 -10 12 -10 vhcurveto
          24 -20 rlineto
          -10 12 12 -10 24 hhcurveto
          182 hlineto
          24 12 10 10 12 hvcurveto
          24 20 rlineto
          12 10 12 10 30 vvcurveto
          610 vlineto
          endchar
        </CharString>
        <CharString name="K">
          18 21 -21 320 70 310 -20 hstem
          100 84 vstem
          100 700 rmoveto
          -700 84 320 104 vlineto
          156 -252 14 -23 1 -2 21 -15 rlinecurve
          19 -13 rlineto
          -15 22 1 0 24 hhcurveto
          28 39 hlineto
          30 0 1 -24 14 vhcurveto
          -11 6 -21 12 -2 1 -14 23 rlinecurve
          -127 201 rlineto
          8 -5 -10 16 -10 hhcurveto
          4 vlineto
          10 8 13 12 7 hvcurveto
          120 194 14 22 2 2 21 12 rlinecurve
          11 6 rlineto
          24 14 0 1 30 vvcurveto
          39 -22 vlineto
          -24 -1 0 -15 -22 hvcurveto
          -19 -13 -21 -15 -1 -1 -14 -23 rlinecurve
          -151 -243 rlineto
          -108 310 hlineto
          endchar
        </CharString>
        <CharString name="L">
          -75 0 70 630 -20 hstem
          100 84 vstem
          532 70 rmoveto
          -348 630 -84 -700 432 hlineto
          endchar
        </CharString>
        <CharString name="M">
          315 0 113 -92 -21 640 60 hstemhm
          100 84 548 84 hintmask 01111000
          180 640 rmoveto
          7 -17 74 -218 165 -405 rrcurveto
          64 hlineto
          246 640 3 -1 rlineto
          -5 -17 -2 -3 -28 vvcurveto
          -591 84 700 -135 vlineto
          hintmask 10111000
          -215 -559 rlineto
          -4 -11 -2 -11 -6 vvcurveto
          0 -4 0 0 vhcurveto
          6 -2 11 -4 11 vhcurveto
          -214 559 rlineto
          -136 -700 84 591 hlineto
          hintmask 01111000
          28 -2 3 -5 17 vhcurveto
          endchar
        </CharString>
        <CharString name="N">
          129 21 -21 700 -20 hstem
          100 84 362 84 vstem
          550 130 rmoveto
          -366 570 rlineto
          -84 -700 84 513 hlineto
          28 -2 3 -5 17 vhcurveto
          3 1 366 -562 rlineto
          84 700 -84 -521 hlineto
          -28 2 -3 5 -17 vhcurveto
          endchar
        </CharString>
        <CharString name="Ntilde">
          129 21 -21 700 -20 71 62 -27 61 hstemhm
          100 84 362 84 hintmask 11011100
          550 130 rmoveto
          -366 570 rlineto
          -84 -700 84 513 hlineto
          28 -2 3 -5 17 vhcurveto
          3 1 366 -562 rlineto
          84 700 -84 -521 hlineto
          -28 2 -3 5 -17 vhcurveto
          -321 671 rmoveto
          27 -51 47 25 rlineto
          10 19 1 0 9 hhcurveto
          hintmask 11101100
          24 43 -35 32 hhcurveto
          8 11 3 3 5 hvcurveto
          79 40 -27 51 -62 -32 rlineto
          -2 -5 -5 -1 -3 hhcurveto
          hintmask 11011100
          -20 -53 34 -27 hhcurveto
          -8 -11 -3 -3 -5 hvcurveto
          endchar
        </CharString>
        <CharString name="O">
          157 0 70 560 70 hstem
          100 84 390 84 vstem
          196 700 rmoveto
          -24 -12 -10 -10 -12 hvcurveto
          -24 -20 rlineto
          -12 -10 -12 -10 -30 vvcurveto
          -520 vlineto
          -30 12 -10 12 -10 vhcurveto
          24 -20 rlineto
          -10 12 12 -10 24 hhcurveto
          366 hlineto
          24 12 10 10 12 hvcurveto
          24 20 rlineto
          12 10 12 10 30 vvcurveto
          520 vlineto
          30 -12 10 -12 10 vhcurveto
          -24 20 rlineto
          10 -12 -12 10 -24 hhcurveto
          12 -589 rmoveto
          -20 0 -1 -12 -10 vhcurveto
          -10 -12 -1 0 -24 hhcurveto
          -292 hlineto
          -24 -1 0 10 -12 hvcurveto
          -12 10 0 1 20 vvcurveto
          478 vlineto
          20 0 1 12 10 vhcurveto
          10 12 1 0 24 hhcurveto
          292 hlineto
          24 1 0 -10 12 hvcurveto
          12 -10 0 -1 -20 vvcurveto
          endchar
        </CharString>
        <CharString name="OE">
          424 0 70 250 70 240 70 hstem
          100 84 350 84 vstem
          950 70 rmoveto
          -332 250 277 70 -277 240 332 70 -754 hlineto
          -24 -12 -10 -10 -12 hvcurveto
          -24 -20 rlineto
          -12 -10 -12 -10 -30 vvcurveto
          -520 vlineto
          -30 12 -10 12 -10 vhcurveto
          24 -20 rlineto
          -10 12 12 -10 24 hhcurveto
          754 hlineto
          -754 80 rmoveto
          -12 10 0 1 20 vvcurveto
          478 vlineto
          20 0 1 12 10 vhcurveto
          10 12 1 0 24 hhcurveto
          301 -560 -301 hlineto
          -24 -1 0 10 -12 hvcurveto
          endchar
        </CharString>
        <CharString name="Oacute">
          157 0 70 560 70 hstem
          66 84 390 84 vstem
          162 700 rmoveto
          -24 -12 -10 -10 -12 hvcurveto
          -24 -20 rlineto
          -12 -10 -12 -10 -30 vvcurveto
          -520 vlineto
          -30 12 -10 12 -10 vhcurveto
          24 -20 rlineto
          -10 12 12 -10 24 hhcurveto
          366 hlineto
          24 12 10 10 12 hvcurveto
          24 20 rlineto
          12 10 12 10 30 vvcurveto
          520 vlineto
          30 -12 10 -12 10 vhcurveto
          -24 20 rlineto
          10 -12 -12 10 -24 hhcurveto
          12 -589 rmoveto
          -20 0 -1 -12 -10 vhcurveto
          -10 -12 -1 0 -24 hhcurveto
          -292 hlineto
          -24 -1 0 10 -12 hvcurveto
          -12 10 0 1 20 vvcurveto
          478 vlineto
          20 0 1 12 10 vhcurveto
          10 12 1 0 24 hhcurveto
          292 hlineto
          24 1 0 -10 12 hvcurveto
          12 -10 0 -1 -20 vvcurveto
          -54 215 rmoveto
          -33 66 -162 -97 19 -40 rlineto
          endchar
        </CharString>
        <CharString name="Ocircumflex">
          157 700 170 hstem
          66 558 vstem
          528 700 rmoveto
          24 12 -10 -10 12 hvcurveto
          24 -20 rlineto
          12 -10 12 -10 -30 vvcurveto
          -520 vlineto
          -30 -12 -10 -12 -10 vhcurveto
          -24 -20 rlineto
          -10 -12 -12 -10 -24 hhcurveto
          -366 hlineto
          -24 -12 10 10 -12 hvcurveto
          -24 20 rlineto
          -12 10 -12 10 30 vvcurveto
          520 vlineto
          30 12 10 12 10 vhcurveto
          24 20 rlineto
          10 12 12 10 24 hhcurveto
          378 -111 rmoveto
          20 0 1 -12 10 vhcurveto
          10 -12 -1 0 -24 hhcurveto
          -292 hlineto
          -24 -1 0 -10 -12 hvcurveto
          -12 -10 0 -1 -20 vvcurveto
          -478 vlineto
          -20 0 -1 12 -10 vhcurveto
          -10 12 1 0 24 hhcurveto
          292 hlineto
          24 1 0 10 12 hvcurveto
          12 10 0 1 20 vvcurveto
          -179 699 rmoveto
          101 -62 26 34 -103 88 rlineto
          -53 hlineto
          -103 -88 26 -34 102 62 rlineto
          endchar
        </CharString>
        <CharString name="Odieresis">
          157 0 70 560 70 56 92 hstem
          66 84 74 96 70 96 54 84 vstem
          162 700 rmoveto
          -24 -12 -10 -10 -12 hvcurveto
          -24 -20 rlineto
          -12 -10 -12 -10 -30 vvcurveto
          -520 vlineto
          -30 12 -10 12 -10 vhcurveto
          24 -20 rlineto
          -10 12 12 -10 24 hhcurveto
          366 hlineto
          24 12 10 10 12 hvcurveto
          24 20 rlineto
          12 10 12 10 30 vvcurveto
          520 vlineto
          30 -12 10 -12 10 vhcurveto
          -24 20 rlineto
          10 -12 -12 10 -24 hhcurveto
          12 -589 rmoveto
          -20 0 -1 -12 -10 vhcurveto
          -10 -12 -1 0 -24 hhcurveto
          -292 hlineto
          -24 -1 0 10 -12 hvcurveto
          -12 10 0 1 20 vvcurveto
          478 vlineto
          20 0 1 12 10 vhcurveto
          10 12 1 0 24 hhcurveto
          292 hlineto
          24 1 0 -10 12 hvcurveto
          12 -10 0 -1 -20 vvcurveto
          -220 217 rmoveto
          25 0 1 -8 7 vhcurveto
          9 -9 -3 0 -30 hhcurveto
          -27 -1 0 -9 -8 hvcurveto
          -9 -10 -1 -1 -22 vvcurveto
          -8 vlineto
          -22 1 -3 9 -8 vhcurveto
          -8 9 2 -1 25 hhcurveto
          5 hlineto
          24 3 0 9 9 hvcurveto
          9 7 0 1 25 vvcurveto
          166 8 rmoveto
          25 0 1 -8 7 vhcurveto
          9 -9 -3 0 -30 hhcurveto
          -27 -1 0 -9 -8 hvcurveto
          -9 -10 -1 -1 -22 vvcurveto
          -8 vlineto
          -22 1 -3 9 -8 vhcurveto
          -8 9 2 -1 25 hhcurveto
          5 hlineto
          24 3 0 9 9 hvcurveto
          9 7 0 1 25 vvcurveto
          endchar
        </CharString>
        <CharString name="Ograve">
          157 0 70 560 70 hstem
          66 84 390 84 vstem
          162 700 rmoveto
          -24 -12 -10 -10 -12 hvcurveto
          -24 -20 rlineto
          -12 -10 -12 -10 -30 vvcurveto
          -520 vlineto
          -30 12 -10 12 -10 vhcurveto
          24 -20 rlineto
          -10 12 12 -10 24 hhcurveto
          366 hlineto
          24 12 10 10 12 hvcurveto
          24 20 rlineto
          12 10 12 10 30 vvcurveto
          520 vlineto
          30 -12 10 -12 10 vhcurveto
          -24 20 rlineto
          10 -12 -12 10 -24 hhcurveto
          12 -589 rmoveto
          -20 0 -1 -12 -10 vhcurveto
          -10 -12 -1 0 -24 hhcurveto
          -292 hlineto
          -24 -1 0 10 -12 hvcurveto
          -12 10 0 1 20 vvcurveto
          478 vlineto
          20 0 1 12 10 vhcurveto
          10 12 1 0 24 hhcurveto
          292 hlineto
          24 1 0 -10 12 hvcurveto
          12 -10 0 -1 -20 vvcurveto
          -123 144 rmoveto
          19 40 -162 97 -33 -66 rlineto
          endchar
        </CharString>
        <CharString name="Oslash">
          187 0 70 560 70 -29 29 hstemhm
          100 84 390 84 hintmask 11011000
          196 700 rmoveto
          -24 -12 -10 -10 -12 hvcurveto
          -24 -20 rlineto
          -12 -10 -12 -10 -30 vvcurveto
          -520 vlineto
          -30 12 -10 12 -10 vhcurveto
          17 -15 -52 -75 rlineto
          60 hlineto
          35 51 rlineto
          -1 4 4 0 4 hhcurveto
          366 hlineto
          24 12 10 10 12 hvcurveto
          24 20 rlineto
          12 10 12 10 30 vvcurveto
          hintmask 10111000
          520 vlineto
          30 -12 10 -12 10 vhcurveto
          -14 11 rlineto
          hintmask 11011000
          55 79 rlineto
          -64 hlineto
          -36 -51 rlineto
          1 -4 -4 0 -5 hhcurveto
          -34 -70 rmoveto
          -342 -540 rlineto
          -2 4 0 6 11 vvcurveto
          478 vlineto
          20 0 1 12 10 vhcurveto
          10 12 1 0 24 hhcurveto
          341 -519 rmoveto
          -20 0 -1 -12 -10 vhcurveto
          -10 -12 -1 0 -24 hhcurveto
          -293 hlineto
          341 534 rlineto
          1 -4 0 -4 -7 vvcurveto
          endchar
        </CharString>
        <CharString name="Otilde">
          157 700 113 -27 61 hstemhm
          66 558 hintmask 10100000
          528 700 rmoveto
          24 12 -10 -10 12 hvcurveto
          24 -20 rlineto
          12 -10 12 -10 -30 vvcurveto
          -520 vlineto
          -30 -12 -10 -12 -10 vhcurveto
          -24 -20 rlineto
          -10 -12 -12 -10 -24 hhcurveto
          -366 hlineto
          -24 -12 10 10 -12 hvcurveto
          -24 20 rlineto
          -12 10 -12 10 30 vvcurveto
          520 vlineto
          30 12 10 12 10 vhcurveto
          24 20 rlineto
          10 12 12 10 24 hhcurveto
          378 -111 rmoveto
          20 0 1 -12 10 vhcurveto
          10 -12 -1 0 -24 hhcurveto
          -292 hlineto
          -24 -1 0 -10 -12 hvcurveto
          -12 -10 0 -1 -20 vvcurveto
          -478 vlineto
          -20 0 -1 12 -10 vhcurveto
          -10 12 1 0 24 hhcurveto
          292 hlineto
          24 1 0 10 12 hvcurveto
          12 10 0 1 20 vvcurveto
          hintmask 01100000
          -324 691 rmoveto
          27 -51 47 25 rlineto
          10 19 1 0 9 hhcurveto
          hintmask 10100000
          24 43 -35 32 hhcurveto
          8 11 3 3 5 hvcurveto
          79 40 -27 51 -62 -32 rlineto
          -2 -5 -5 -1 -3 -20 -53 34 -27 hhcurveto
          -8 -11 -3 -3 -5 hvcurveto
          endchar
        </CharString>
        <CharString name="P">
          40 21 -21 280 70 280 70 hstem
          100 84 298 84 vstem
          184 280 rmoveto
          286 hlineto
          24 12 10 10 12 hvcurveto
          24 20 rlineto
          12 10 12 10 30 vvcurveto
          240 vlineto
          30 -12 10 -12 10 vhcurveto
          -24 20 rlineto
          10 -12 -12 10 -24 hhcurveto
          -370 -700 84 hlineto
          630 vmoveto
          249 hlineto
          24 1 0 -10 12 hvcurveto
          12 -10 0 -1 -20 vvcurveto
          -198 vlineto
          -20 0 -1 -12 -10 vhcurveto
          -10 -12 -1 0 -24 hhcurveto
          -249 hlineto
          endchar
        </CharString>
        <CharString name="Q">
          165 -140 70 70 70 560 70 hstem
          100 84 390 84 vstem
          196 700 rmoveto
          -24 -12 -10 -10 -12 hvcurveto
          -24 -20 rlineto
          -12 -10 -12 -10 -30 vvcurveto
          -520 vlineto
          -30 12 -10 12 -10 vhcurveto
          24 -20 rlineto
          -10 12 12 -10 24 hhcurveto
          366 hlineto
          24 12 10 10 12 hvcurveto
          24 20 rlineto
          12 10 12 10 30 vvcurveto
          520 vlineto
          30 -12 10 -12 10 vhcurveto
          -24 20 rlineto
          10 -12 -12 10 -24 hhcurveto
          12 -589 rmoveto
          -20 0 -1 -12 -10 vhcurveto
          -10 -12 -1 0 -24 hhcurveto
          -292 hlineto
          -24 -1 0 10 -12 hvcurveto
          -12 10 0 1 20 vvcurveto
          478 vlineto
          20 0 1 12 10 vhcurveto
          10 12 1 0 24 hhcurveto
          292 hlineto
          24 1 0 -10 12 hvcurveto
          12 -10 0 -1 -20 vvcurveto
          -113 -709 rmoveto
          -13 9 15 -7 24 hhcurveto
          157 26 hlineto
          30 0 1 -18 13 vhcurveto
          -107 hlineto
          -24 -5 1 9 -8 hvcurveto
          -53 60 rlineto
          -90 hlineto
          endchar
        </CharString>
        <CharString name="R">
          72 21 -21 280 70 280 70 hstem
          100 84 298 84 vstem
          100 700 rmoveto
          -700 84 280 144 vlineto
          133 -213 14 -23 1 -1 21 -15 rlinecurve
          19 -13 rlineto
          -15 22 1 0 24 hhcurveto
          25 39 hlineto
          30 0 1 -24 14 vhcurveto
          -11 6 -21 12 -1 1 -14 22 rlinecurve
          -103 160 rlineto
          56 hlineto
          24 12 10 8 10 hvcurveto
          25 21 rlineto
          13 11 12 12 29 vvcurveto
          234 vlineto
          30 -12 10 -12 10 vhcurveto
          -24 20 rlineto
          10 -12 -12 10 -24 hhcurveto
          -286 -70 rmoveto
          249 hlineto
          24 1 0 -10 12 hvcurveto
          12 -10 0 -1 -20 vvcurveto
          -198 vlineto
          -20 0 -1 -12 -10 vhcurveto
          -10 -12 -1 0 -24 hhcurveto
          -249 hlineto
          endchar
        </CharString>
        <CharString name="S">
          27 0 70 250 70 240 70 hstemhm
          75 84 -74 84 290 84 -74 84 hintmask 11101010
          420 320 rmoveto
          24 1 0 -10 12 hvcurveto
          12 -10 0 -1 -20 vvcurveto
          -168 vlineto
          -20 0 -1 -12 -10 vhcurveto
          -10 -12 -1 0 -24 hhcurveto
          hintmask 11110010
          -212 hlineto
          -24 -1 0 10 -12 hvcurveto
          -12 10 0 1 20 vvcurveto
          19 -84 -40 vlineto
          -30 12 -10 12 -10 vhcurveto
          24 -20 rlineto
          -10 12 12 -10 24 hhcurveto
          286 hlineto
          24 12 10 10 12 hvcurveto
          24 20 rlineto
          12 10 12 10 30 vvcurveto
          210 vlineto
          30 -12 10 -12 10 vhcurveto
          -24 20 rlineto
          10 -12 -12 10 -24 hhcurveto
          hintmask 11101100
          -239 hlineto
          -24 -1 0 10 -12 hvcurveto
          -12 10 0 1 20 vvcurveto
          158 vlineto
          20 0 1 12 10 vhcurveto
          10 12 1 0 24 hhcurveto
          192 hlineto
          24 1 0 -10 12 hvcurveto
          12 -10 0 -1 -20 vvcurveto
          -19 84 40 vlineto
          30 -12 10 -12 10 vhcurveto
          -24 20 rlineto
          10 -12 -12 10 -24 hhcurveto
          -266 hlineto
          -24 -12 -10 -10 -12 hvcurveto
          -24 -20 rlineto
          -12 -10 -12 -10 -30 vvcurveto
          -207 vlineto
          -23 10 -8 11 -9 vhcurveto
          27 -23 rlineto
          -10 12 12 -10 24 hhcurveto
          hintmask 11101010
          239 hlineto
          endchar
        </CharString>
        <CharString name="T">
          -84 21 -21 630 70 hstem
          216 84 vstem
          -6 700 rmoveto
          -70 222 -630 84 630 222 70 vlineto
          endchar
        </CharString>
        <CharString name="Thorn">
          40 21 -21 170 70 280 70 -70 180 hstemhm
          100 84 298 84 hintmask 11101100
          100 hmoveto
          84 170 286 hlineto
          24 12 10 10 12 hvcurveto
          24 20 rlineto
          12 10 12 10 30 vvcurveto
          240 vlineto
          30 -12 10 -12 10 vhcurveto
          -24 20 rlineto
          10 -12 -12 10 -24 hhcurveto
          -286 hlineto
          hintmask 11011100
          110 -84 vlineto
          hintmask 11101100
          84 -180 rmoveto
          249 hlineto
          24 1 0 -10 12 hvcurveto
          12 -10 0 -1 -20 vvcurveto
          -198 vlineto
          -20 0 -1 -12 -10 vhcurveto
          -10 -12 -1 0 -24 hhcurveto
          -249 hlineto
          endchar
        </CharString>
        <CharString name="U">
          131 0 70 630 -20 hstem
          100 84 364 84 vstem
          548 700 rmoveto
          -589 vlineto
          -20 0 -1 -12 -10 vhcurveto
          -10 -12 -1 0 -24 hhcurveto
          -266 hlineto
          -24 -1 0 10 -12 hvcurveto
          -12 10 0 1 20 vvcurveto
          589 -84 -610 vlineto
          -30 12 -10 12 -10 vhcurveto
          24 -20 rlineto
          -10 12 12 -10 24 hhcurveto
          340 hlineto
          24 12 10 10 12 hvcurveto
          24 20 rlineto
          12 10 12 10 30 vvcurveto
          610 vlineto
          endchar
        </CharString>
        <CharString name="Uacute">
          131 0 70 630 -20 hstem
          100 84 364 84 vstem
          548 700 rmoveto
          -589 vlineto
          -20 0 -1 -12 -10 vhcurveto
          -10 -12 -1 0 -24 hhcurveto
          -266 hlineto
          -24 -1 0 10 -12 hvcurveto
          -12 10 0 1 20 vvcurveto
          589 -84 -610 vlineto
          -30 12 -10 12 -10 vhcurveto
          24 -20 rlineto
          -10 12 12 -10 24 hhcurveto
          340 hlineto
          24 12 10 10 12 hvcurveto
          24 20 rlineto
          12 10 12 10 30 vvcurveto
          610 vlineto
          -142 104 rmoveto
          -33 66 -162 -97 19 -40 rlineto
          endchar
        </CharString>
        <CharString name="Ucircumflex">
          131 810 60 hstem
          184 77 207 80 vstem
          632 700 rmoveto
          -610 vlineto
          -30 -12 -10 -12 -10 vhcurveto
          -24 -20 rlineto
          -10 -12 -12 -10 -24 hhcurveto
          -340 hlineto
          -24 -12 10 10 -12 hvcurveto
          -24 20 rlineto
          -12 10 -12 10 30 vvcurveto
          610 84 -589 vlineto
          -20 0 -1 12 -10 vhcurveto
          -10 12 1 0 24 hhcurveto
          266 hlineto
          24 1 0 10 12 hvcurveto
          12 10 0 1 20 vvcurveto
          589 vlineto
          -181 110 rmoveto
          101 -62 26 34 -103 88 rlineto
          -53 hlineto
          -103 -88 26 -34 102 62 rlineto
          endchar
        </CharString>
        <CharString name="Udieresis">
          131 0 70 630 -20 76 92 hstem
          100 84 59 96 70 96 43 84 vstem
          548 700 rmoveto
          -589 vlineto
          -20 0 -1 -12 -10 vhcurveto
          -10 -12 -1 0 -24 hhcurveto
          -266 hlineto
          -24 -1 0 10 -12 hvcurveto
          -12 10 0 1 20 vvcurveto
          589 -84 -610 vlineto
          -30 12 -10 12 -10 vhcurveto
          24 -20 rlineto
          -10 12 12 -10 24 hhcurveto
          340 hlineto
          24 12 10 10 12 hvcurveto
          24 20 rlineto
          12 10 12 10 30 vvcurveto
          610 vlineto
          -293 106 rmoveto
          25 0 1 -8 7 vhcurveto
          9 -9 -3 0 -30 hhcurveto
          -27 -1 0 -9 -8 hvcurveto
          -9 -10 -1 -1 -22 vvcurveto
          -8 vlineto
          -22 1 -3 9 -8 vhcurveto
          -8 9 2 -1 25 hhcurveto
          5 hlineto
          24 3 0 9 9 hvcurveto
          9 7 0 1 25 vvcurveto
          166 8 rmoveto
          25 0 1 -8 7 vhcurveto
          9 -9 -3 0 -30 hhcurveto
          -27 -1 0 -9 -8 hvcurveto
          -9 -10 -1 -1 -22 vvcurveto
          -8 vlineto
          -22 1 -3 9 -8 vhcurveto
          -8 9 2 -1 25 hhcurveto
          5 hlineto
          24 3 0 9 9 hvcurveto
          9 7 0 1 25 vvcurveto
          endchar
        </CharString>
        <CharString name="Ugrave">
          131 0 70 630 -20 hstem
          100 84 364 84 vstem
          548 700 rmoveto
          -589 vlineto
          -20 0 -1 -12 -10 vhcurveto
          -10 -12 -1 0 -24 hhcurveto
          -266 hlineto
          -24 -1 0 10 -12 hvcurveto
          -12 10 0 1 20 vvcurveto
          589 -84 -610 vlineto
          -30 12 -10 12 -10 vhcurveto
          24 -20 rlineto
          -10 12 12 -10 24 hhcurveto
          340 hlineto
          24 12 10 10 12 hvcurveto
          24 20 rlineto
          12 10 12 10 30 vvcurveto
          610 vlineto
          -211 33 rmoveto
          19 40 -162 97 -33 -66 rlineto
          endchar
        </CharString>
        <CharString name="V">
          3 0 62 638 -20 hstem
          15 574 vstem
          300 62 rmoveto
          9 -3 7 -3 10 vhcurveto
          -190 612 rlineto
          -89 hlineto
          232 -700 rlineto
          110 hlineto
          232 700 rlineto
          -89 hlineto
          -190 -612 rlineto
          -3 -10 -3 -7 -9 vvcurveto
          endchar
        </CharString>
        <CharString name="W">
          331 0 59 568 73 hstem
          15 912 vstem
          624 hmoveto
          115 hlineto
          188 700 rlineto
          -89 hlineto
          -145 -616 -4 -25 rlineto
          -4 hlineto
          -6 25 -152 616 rlineto
          -111 hlineto
          -148 -616 -4 -25 rlineto
          -5 hlineto
          -5 25 -150 616 rlineto
          -89 hlineto
          188 -700 rlineto
          118 hlineto
          143 602 5 25 rlineto
          4 hlineto
          5 -25 rlineto
          endchar
        </CharString>
        <CharString name="X">
          15 21 -21 700 -20 hstem
          35 546 vstem
          466 700 rmoveto
          -144 -270 rlineto
          -4 -10 -8 -11 -10 vvcurveto
          -4 hlineto
          10 -7 11 -5 10 vhcurveto
          -144 270 rlineto
          -90 hlineto
          187 -337 -212 -363 rlineto
          92 hlineto
          169 300 rlineto
          5 8 5 11 9 vvcurveto
          4 hlineto
          -9 5 -11 5 -8 vhcurveto
          169 -300 rlineto
          92 hlineto
          -212 363 187 337 rlineto
          endchar
        </CharString>
        <CharString name="Y">
          -55 21 -21 700 -20 hstem
          231 84 vstem
          288 394 rmoveto
          -4 -8 -8 -13 -1 -10 rrcurveto
          -4 hlineto
          -1 10 -8 14 -4 7 -161 306 rcurveline
          -96 hlineto
          230 -408 rlineto
          -292 84 292 vlineto
          230 408 rlineto
          -96 hlineto
          endchar
        </CharString>
        <CharString name="Yacute">
          -55 21 -21 700 -20 hstem
          231 84 vstem
          288 394 rmoveto
          -4 -8 -8 -13 -1 -10 rrcurveto
          -4 hlineto
          -1 10 -8 14 -4 7 -161 306 rcurveline
          -96 hlineto
          230 -408 rlineto
          -292 84 292 vlineto
          230 408 rlineto
          -96 hlineto
          -52 94 rmoveto
          -33 66 -162 -97 19 -40 rlineto
          endchar
        </CharString>
        <CharString name="Z">
          -39 0 70 560 70 hstem
          45 90 288 92 vstem
          135 70 rmoveto
          5 vlineto
          7 2 7 4 7 10 359 533 rcurveline
          76 -468 -70 376 -5 vlineto
          -7 -2 -6 -5 -8 -9 -357 -535 rcurveline
          -74 472 70 vlineto
          endchar
        </CharString>
        <CharString name="a">
          -35 0 70 -30 30 160 70 130 70 -40 40 hstemhm
          70 84 244 84 -70 94 hintmask 10110110
          hintmask 01110110
          412 40 rmoveto
          hintmask 10110110
          -10 5 -6 11 -9 vhcurveto
          hintmask 10110101
          -13 15 4 -2 24 hhcurveto
          35 49 hlineto
          20 0 1 -12 10 vhcurveto
          hintmask 10110110
          -12 10 0 1 20 vvcurveto
          299 vlineto
          30 -12 10 -12 10 vhcurveto
          -24 20 rlineto
          10 -12 -12 10 -24 hhcurveto
          -235 hlineto
          -24 -1 0 -20 -24 hvcurveto
          hintmask 10101110
          -24 -20 rlineto
          hintmask 10110110
          60 -50 rlineto
          20 24 1 0 24 hhcurveto
          162 hlineto
          24 1 0 -10 12 hvcurveto
          12 -10 0 -1 -20 vvcurveto
          -119 -4 vlineto
          9 0 1 -12 10 vhcurveto
          10 -11 -1 0 -25 hhcurveto
          -179 hlineto
          -24 -12 -10 -10 -12 hvcurveto
          -24 -20 rlineto
          -12 -10 -12 -10 -30 vvcurveto
          -120 vlineto
          -30 12 -10 12 -10 vhcurveto
          24 -20 rlineto
          -10 12 12 -10 24 hhcurveto
          171 hlineto
          24 1 0 15 24 hvcurveto
          hintmask 01110110
          12 7 10 8 10 vvcurveto
          hintmask 10110110
          -254 149 rmoveto
          20 0 1 12 10 vhcurveto
          10 12 1 0 24 hhcurveto
          146 hlineto
          24 1 0 -10 12 hvcurveto
          12 -10 0 -1 -20 vvcurveto
          -68 vlineto
          -20 0 -1 -24 -15 vhcurveto
          -15 -24 -1 0 -24 hhcurveto
          -122 hlineto
          -24 -1 0 10 -12 hvcurveto
          -12 10 0 1 20 vvcurveto
          endchar
        </CharString>
        <CharString name="aacute">
          -35 0 70 -30 30 160 70 130 70 -40 40 hstemhm
          70 84 244 84 -70 94 hintmask 10110110
          hintmask 01110110
          412 40 rmoveto
          hintmask 10110110
          -10 5 -6 11 -9 vhcurveto
          hintmask 10110101
          -13 15 4 -2 24 hhcurveto
          35 49 hlineto
          20 0 1 -12 10 vhcurveto
          hintmask 10110110
          -12 10 0 1 20 vvcurveto
          299 vlineto
          30 -12 10 -12 10 vhcurveto
          -24 20 rlineto
          10 -12 -12 10 -24 hhcurveto
          -235 hlineto
          -24 -1 0 -20 -24 hvcurveto
          hintmask 10101110
          -24 -20 rlineto
          hintmask 10110110
          60 -50 rlineto
          20 24 1 0 24 hhcurveto
          162 hlineto
          24 1 0 -10 12 hvcurveto
          12 -10 0 -1 -20 vvcurveto
          -119 -4 vlineto
          9 0 1 -12 10 vhcurveto
          10 -11 -1 0 -25 hhcurveto
          -179 hlineto
          -24 -12 -10 -10 -12 hvcurveto
          -24 -20 rlineto
          -12 -10 -12 -10 -30 vvcurveto
          -120 vlineto
          -30 12 -10 12 -10 vhcurveto
          24 -20 rlineto
          -10 12 12 -10 24 hhcurveto
          171 hlineto
          24 1 0 15 24 hvcurveto
          hintmask 01110110
          12 7 10 8 10 vvcurveto
          hintmask 10110110
          -254 149 rmoveto
          20 0 1 12 10 vhcurveto
          10 12 1 0 24 hhcurveto
          146 hlineto
          24 1 0 -10 12 hvcurveto
          12 -10 0 -1 -20 vvcurveto
          -68 vlineto
          -20 0 -1 -24 -15 vhcurveto
          -15 -24 -1 0 -24 hhcurveto
          -122 hlineto
          -24 -1 0 10 -12 hvcurveto
          -12 10 0 1 20 vvcurveto
          239 535 rmoveto
          -43 63 -137 -119 26 -40 rlineto
          endchar
        </CharString>
        <CharString name="acircumflex">
          -35 0 70 -30 30 160 70 130 70 -40 40 149 51 hstemhm
          70 84 244 84 -70 94 hintmask 1011011100000000
          hintmask 0111011100000000
          412 40 rmoveto
          hintmask 1011011100000000
          -10 5 -6 11 -9 vhcurveto
          hintmask 1011011010000000
          -13 15 4 -2 24 hhcurveto
          35 49 hlineto
          20 0 1 -12 10 vhcurveto
          hintmask 1011011100000000
          -12 10 0 1 20 vvcurveto
          299 vlineto
          30 -12 10 -12 10 vhcurveto
          -24 20 rlineto
          10 -12 -12 10 -24 hhcurveto
          -235 hlineto
          -24 -1 0 -20 -24 hvcurveto
          hintmask 1010111100000000
          -24 -20 rlineto
          hintmask 1011011100000000
          60 -50 rlineto
          20 24 1 0 24 hhcurveto
          162 hlineto
          24 1 0 -10 12 hvcurveto
          12 -10 0 -1 -20 vvcurveto
          -119 -4 vlineto
          9 0 1 -12 10 vhcurveto
          10 -11 -1 0 -25 hhcurveto
          -179 hlineto
          -24 -12 -10 -10 -12 hvcurveto
          -24 -20 rlineto
          -12 -10 -12 -10 -30 vvcurveto
          -120 vlineto
          -30 12 -10 12 -10 vhcurveto
          24 -20 rlineto
          -10 12 12 -10 24 hhcurveto
          171 hlineto
          24 1 0 15 24 hvcurveto
          hintmask 0111011100000000
          12 7 10 8 10 vvcurveto
          hintmask 1011011100000000
          -254 149 rmoveto
          20 0 1 12 10 vhcurveto
          10 12 1 0 24 hhcurveto
          146 hlineto
          24 1 0 -10 12 hvcurveto
          12 -10 0 -1 -20 vvcurveto
          -68 vlineto
          -20 0 -1 -24 -15 vhcurveto
          -15 -24 -1 0 -24 hhcurveto
          -122 hlineto
          -24 -1 0 10 -12 hvcurveto
          -12 10 0 1 20 vvcurveto
          193 456 rmoveto
          60 19 -99 114 rlineto
          -53 hlineto
          -97 -114 59 -19 58 70 rlineto
          4 5 1 3 4 vvcurveto
          4 hlineto
          -4 1 -3 4 -5 vhcurveto
          endchar
        </CharString>
        <CharString name="acute">
          -271 550 159 hstem
          75 180 vstem
          255 646 rmoveto
          -43 63 -137 -119 26 -40 rlineto
          endchar
        </CharString>
        <CharString name="acute.case">
          -271 733 137 hstem
          60 195 vstem
          255 804 rmoveto
          -33 66 -162 -97 19 -40 rlineto
          endchar
        </CharString>
        <CharString name="adieresis">
          -35 0 70 -30 30 160 70 130 70 -40 40 86 92 hstemhm
          70 84 1 96 64 96 -13 84 -70 94 hintmask 1011011001000000
          hintmask 0111011001000000
          412 40 rmoveto
          hintmask 1011011001000000
          -10 5 -6 11 -9 vhcurveto
          hintmask 1011011000100000
          -13 15 4 -2 24 hhcurveto
          35 49 hlineto
          20 0 1 -12 10 vhcurveto
          hintmask 1011011001000000
          -12 10 0 1 20 vvcurveto
          299 vlineto
          30 -12 10 -12 10 vhcurveto
          -24 20 rlineto
          10 -12 -12 10 -24 hhcurveto
          -235 hlineto
          -24 -1 0 -20 -24 hvcurveto
          hintmask 1010111001000000
          -24 -20 rlineto
          hintmask 1011011001000000
          60 -50 rlineto
          20 24 1 0 24 hhcurveto
          162 hlineto
          24 1 0 -10 12 hvcurveto
          12 -10 0 -1 -20 vvcurveto
          -119 -4 vlineto
          9 0 1 -12 10 vhcurveto
          10 -11 -1 0 -25 hhcurveto
          -179 hlineto
          -24 -12 -10 -10 -12 hvcurveto
          -24 -20 rlineto
          -12 -10 -12 -10 -30 vvcurveto
          -120 vlineto
          -30 12 -10 12 -10 vhcurveto
          24 -20 rlineto
          -10 12 12 -10 24 hhcurveto
          171 hlineto
          24 1 0 15 24 hvcurveto
          hintmask 0111011001000000
          12 7 10 8 10 vvcurveto
          hintmask 1011011001000000
          -254 149 rmoveto
          20 0 1 12 10 vhcurveto
          10 12 1 0 24 hhcurveto
          146 hlineto
          24 1 0 -10 12 hvcurveto
          12 -10 0 -1 -20 vvcurveto
          -68 vlineto
          -20 0 -1 -24 -15 vhcurveto
          -15 -24 -1 0 -24 hhcurveto
          -122 hlineto
          -24 -1 0 10 -12 hvcurveto
          -12 10 0 1 20 vvcurveto
          hintmask 1011010110000000
          97 525 rmoveto
          25 0 1 -8 7 vhcurveto
          9 -9 -3 0 -30 hhcurveto
          -27 -1 0 -9 -8 hvcurveto
          -9 -10 -1 -1 -22 vvcurveto
          -8 vlineto
          -22 1 -3 9 -8 vhcurveto
          -8 9 2 -1 25 hhcurveto
          5 hlineto
          24 3 0 9 9 hvcurveto
          9 7 0 1 25 vvcurveto
          160 8 rmoveto
          25 0 1 -8 7 vhcurveto
          9 -9 -3 0 -30 hhcurveto
          -27 -1 0 -9 -8 hvcurveto
          -9 -10 -1 -1 -22 vvcurveto
          -8 vlineto
          -22 1 -3 9 -8 vhcurveto
          -8 9 2 -1 25 hhcurveto
          5 hlineto
          24 3 0 9 9 hvcurveto
          9 7 0 1 25 vvcurveto
          endchar
        </CharString>
        <CharString name="ae">
          283 0 70 -29 29 135 65 -40 70 130 70 -40 40 hstemhm
          70 84 244 84 258 84 hintmask 1010101110000000
          151 500 rmoveto
          -24 -1 0 -20 -24 hvcurveto
          hintmask 1010011110000000
          -24 -20 rlineto
          hintmask 1001101110000000
          60 -50 rlineto
          20 24 1 0 24 hhcurveto
          162 hlineto
          24 1 0 -10 12 hvcurveto
          12 -10 0 -1 -20 vvcurveto
          -114 -4 vlineto
          -1 5 -3 2 -8 8 rrcurveto
          10 -11 -1 0 -25 hhcurveto
          -179 hlineto
          -24 -12 -10 -10 -12 hvcurveto
          -24 -20 rlineto
          -12 -10 -12 -10 -30 vvcurveto
          -120 vlineto
          -30 12 -10 12 -10 vhcurveto
          24 -20 rlineto
          -10 12 12 -10 24 hhcurveto
          171 hlineto
          24 2 0 15 23 hvcurveto
          hintmask 0110101110000000
          12 8 10 9 10 9 rrcurveto
          4 hlineto
          hintmask 1010101110000000
          24 -21 rlineto
          -10 12 12 -10 24 hhcurveto
          267 hlineto
          24 1 0 20 24 hvcurveto
          24 20 -60 50 rlineto
          -20 -24 -1 0 -24 hhcurveto
          -194 hlineto
          -24 -1 0 10 -12 hvcurveto
          -12 10 0 1 20 vvcurveto
          94 342 205 vlineto
          30 -11 10 -13 10 vhcurveto
          -25 20 rlineto
          10 -14 -15 10 -19 hhcurveto
          -233 hlineto
          -24 -14 -10 -12 -10 hvcurveto
          -4 -5 rlineto
          -4 hlineto
          -4 5 rlineto
          12 -10 -14 10 -24 hhcurveto
          354 -230 rmoveto
          -258 119 hlineto
          20 0 1 12 10 vhcurveto
          10 12 1 0 24 hhcurveto
          160 hlineto
          24 1 0 -10 12 hvcurveto
          12 -10 0 -1 -20 vvcurveto
          hintmask 1001101110000000
          -586 -200 rmoveto
          20 0 1 12 10 vhcurveto
          10 12 1 0 24 hhcurveto
          146 hlineto
          24 1 0 -10 12 hvcurveto
          12 -10 0 -1 -20 vvcurveto
          -78 vlineto
          -1 -11 -4 -3 -19 -12 rrcurveto
          -15 -24 -1 0 -24 hhcurveto
          -122 hlineto
          -24 -1 0 10 -12 hvcurveto
          -12 10 0 1 20 vvcurveto
          endchar
        </CharString>
        <CharString name="agrave">
          -35 0 70 -30 30 160 70 130 70 -40 40 hstemhm
          70 84 244 84 -70 94 hintmask 10110110
          hintmask 01110110
          412 40 rmoveto
          hintmask 10110110
          -10 5 -6 11 -9 vhcurveto
          hintmask 10110101
          -13 15 4 -2 24 hhcurveto
          35 49 hlineto
          20 0 1 -12 10 vhcurveto
          hintmask 10110110
          -12 10 0 1 20 vvcurveto
          299 vlineto
          30 -12 10 -12 10 vhcurveto
          -24 20 rlineto
          10 -12 -12 10 -24 hhcurveto
          -235 hlineto
          -24 -1 0 -20 -24 hvcurveto
          hintmask 10101110
          -24 -20 rlineto
          hintmask 10110110
          60 -50 rlineto
          20 24 1 0 24 hhcurveto
          162 hlineto
          24 1 0 -10 12 hvcurveto
          12 -10 0 -1 -20 vvcurveto
          -119 -4 vlineto
          9 0 1 -12 10 vhcurveto
          10 -11 -1 0 -25 hhcurveto
          -179 hlineto
          -24 -12 -10 -10 -12 hvcurveto
          -24 -20 rlineto
          -12 -10 -12 -10 -30 vvcurveto
          -120 vlineto
          -30 12 -10 12 -10 vhcurveto
          24 -20 rlineto
          -10 12 12 -10 24 hhcurveto
          171 hlineto
          24 1 0 15 24 hvcurveto
          hintmask 01110110
          12 7 10 8 10 vvcurveto
          hintmask 10110110
          -254 149 rmoveto
          20 0 1 12 10 vhcurveto
          10 12 1 0 24 hhcurveto
          146 hlineto
          24 1 0 -10 12 hvcurveto
          12 -10 0 -1 -20 vvcurveto
          -68 vlineto
          -20 0 -1 -24 -15 vhcurveto
          -15 -24 -1 0 -24 hhcurveto
          -122 hlineto
          -24 -1 0 10 -12 hvcurveto
          -12 10 0 1 20 vvcurveto
          163 439 rmoveto
          26 40 -137 119 -43 -63 rlineto
          endchar
        </CharString>
        <CharString name="ampersand">
          89 0 70 290 70 200 70 hstemhm
          85 84 -30 84 250 84 -58 84 hintmask 11110010
          583 360 rmoveto
          72 70 hlineto
          hintmask 11101100
          -351 hlineto
          -32 -4 2 21 -25 hvcurveto
          -20 16 0 1 25 vvcurveto
          94 vlineto
          20 0 1 12 10 vhcurveto
          10 12 1 0 24 hhcurveto
          151 hlineto
          25 1 0 -10 12 hvcurveto
          12 -10 0 -1 -20 vvcurveto
          -19 84 40 vlineto
          30 -12 10 -12 10 vhcurveto
          -24 20 rlineto
          10 -12 -12 10 -24 hhcurveto
          -226 hlineto
          -24 -12 -10 -10 -12 hvcurveto
          -24 -20 rlineto
          -12 -10 -12 -10 -30 vvcurveto
          -130 vlineto
          -22 0 -1 18 -14 vhcurveto
          29 -24 5 -5 11 -9 11 -1 rlinecurve
          -4 vlineto
          hintmask 11110010
          -40 hlineto
          -10 -11 -9 -5 -6 hvcurveto
          -41 -34 rlineto
          -20 -16 0 -1 -31 vvcurveto
          -214 vlineto
          -29 5 -5 14 -15 vhcurveto
          18 -18 rlineto
          -12 12 11 -11 24 hhcurveto
          330 hlineto
          24 11 11 12 12 hvcurveto
          18 18 rlineto
          14 15 5 5 29 vvcurveto
          -365 -20 rmoveto
          -24 -1 0 10 -12 hvcurveto
          -12 10 0 1 20 vvcurveto
          181 vlineto
          21 6 6 12 11 vhcurveto
          15 13 rlineto
          17 20 1 0 25 hhcurveto
          251 -249 hlineto
          -20 0 -1 -12 -10 vhcurveto
          -10 -12 -1 0 -24 hhcurveto
          endchar
        </CharString>
        <CharString name="aring">
          -35 0 70 -30 30 160 70 130 70 -40 40 50 43 75 43 hstemhm
          70 84 35 43 102 43 21 84 -70 94 hintmask 1011011110100000
          hintmask 0111011110100000
          412 40 rmoveto
          hintmask 1011011110100000
          -10 5 -6 11 -9 vhcurveto
          hintmask 1011011110010000
          -13 15 4 -2 24 hhcurveto
          35 49 hlineto
          20 0 1 -12 10 vhcurveto
          hintmask 1011011110100000
          -12 10 0 1 20 vvcurveto
          299 vlineto
          30 -12 10 -12 10 vhcurveto
          -24 20 rlineto
          10 -12 -12 10 -24 hhcurveto
          -235 hlineto
          -24 -1 0 -20 -24 hvcurveto
          hintmask 1010111110100000
          -24 -20 rlineto
          hintmask 1011011110100000
          60 -50 rlineto
          20 24 1 0 24 hhcurveto
          162 hlineto
          24 1 0 -10 12 hvcurveto
          12 -10 0 -1 -20 vvcurveto
          -119 -4 vlineto
          9 0 1 -12 10 vhcurveto
          10 -11 -1 0 -25 hhcurveto
          -179 hlineto
          -24 -12 -10 -10 -12 hvcurveto
          -24 -20 rlineto
          -12 -10 -12 -10 -30 vvcurveto
          -120 vlineto
          -30 12 -10 12 -10 vhcurveto
          24 -20 rlineto
          -10 12 12 -10 24 hhcurveto
          171 hlineto
          24 1 0 15 24 hvcurveto
          hintmask 0111011110100000
          12 7 10 8 10 vvcurveto
          hintmask 1011011110100000
          -254 149 rmoveto
          20 0 1 12 10 vhcurveto
          10 12 1 0 24 hhcurveto
          146 hlineto
          24 1 0 -10 12 hvcurveto
          12 -10 0 -1 -20 vvcurveto
          -68 vlineto
          -20 0 -1 -24 -15 vhcurveto
          -15 -24 -1 0 -24 hhcurveto
          -122 hlineto
          -24 -1 0 10 -12 hvcurveto
          -12 10 0 1 20 vvcurveto
          98 600 rmoveto
          -37 -1 0 -11 -11 hvcurveto
          -14 -13 0 -1 -31 vvcurveto
          -49 vlineto
          -31 0 -1 14 -13 vhcurveto
          -11 11 1 0 37 hhcurveto
          hintmask 1011011111100000
          62 hlineto
          37 1 0 11 11 hvcurveto
          14 13 0 1 31 vvcurveto
          49 vlineto
          31 0 1 -14 13 vhcurveto
          11 -11 -1 0 -37 hhcurveto
          -55 -118 rmoveto
          -15 1 1 5 -7 hvcurveto
          -6 5 0 1 15 vvcurveto
          21 vlineto
          15 0 1 6 5 vhcurveto
          5 7 -1 1 15 hhcurveto
          48 hlineto
          15 -1 -1 -5 7 hvcurveto
          6 -5 0 -1 -15 vvcurveto
          -21 vlineto
          -15 0 -1 -6 -5 vhcurveto
          -5 -7 1 -1 -15 hhcurveto
          endchar
        </CharString>
        <CharString name="asciicircum">
          -172 560 120 hstem
          100 229 vstem
          178 680 rmoveto
          -78 -120 rlineto
          76 hlineto
          26 40 rlineto
          4 7 7 13 10 vvcurveto
          4 hlineto
          -10 7 -14 4 -6 vhcurveto
          26 -40 rlineto
          75 hlineto
          -78 120 rlineto
          endchar
        </CharString>
        <CharString name="asciitilde">
          -146 561 62 -27 61 hstemhm
          75 305 hintmask 01100000
          75 612 rmoveto
          27 -51 47 25 rlineto
          10 19 1 0 9 hhcurveto
          hintmask 10100000
          24 43 -35 32 hhcurveto
          8 11 3 3 5 hvcurveto
          79 40 -27 51 -62 -32 rlineto
          -2 -5 -5 -1 -3 hhcurveto
          hintmask 01100000
          -20 -53 34 -27 hhcurveto
          -8 -11 -3 -3 -5 hvcurveto
          endchar
        </CharString>
        <CharString name="asterisk">
          -66 501 -20 hstem
          234 60 vstem
          440 610 rmoveto
          -146 -53 rlineto
          151 -60 -149 vlineto
          -138 50 -21 -56 139 -51 -88 -128 49 -34 90 130 90 -129 50 34 -88 126 143 52 rlineto
          endchar
        </CharString>
        <CharString name="at">
          101 -40 54 66 62 235 63 66 54 hstem
          60 62 76 70 166 70 76 62 vstem
          580 435 rmoveto
          -285 vlineto
          -24 -22 rlineto
          -18 hlineto
          -15 -1 0 8 -9 hvcurveto
          -9 7 0 1 15 vvcurveto
          281 -56 -22 -4 vlineto
          6 0 1 -8 8 vhcurveto
          7 -9 -1 0 -18 hhcurveto
          -139 hlineto
          -18 -9 -7 -8 -9 hvcurveto
          -17 -14 rlineto
          -10 -9 -8 -7 -21 vvcurveto
          -228 vlineto
          -22 9 -8 9 -7 vhcurveto
          17 -15 rlineto
          -7 9 9 -7 18 hhcurveto
          134 hlineto
          18 1 0 11 18 hvcurveto
          8 5 7 6 7 vvcurveto
          4 hlineto
          1 -6 5 -7 6 -5 rrcurveto
          -11 13 1 0 17 hhcurveto
          92 hlineto
          48 40 rlineto
          350 vlineto
          30 -12 10 -12 10 vhcurveto
          -24 20 rlineto
          10 -12 -12 10 -24 hhcurveto
          -390 hlineto
          -24 -12 -10 -10 -12 hvcurveto
          -24 -20 rlineto
          -12 -10 -12 -10 -30 vvcurveto
          -420 vlineto
          -30 12 -10 12 -10 vhcurveto
          24 -20 rlineto
          -10 12 12 -10 24 hhcurveto
          438 54 -399 hlineto
          -24 -1 0 15 -18 hvcurveto
          -12 10 rlineto
          -18 15 0 1 30 vvcurveto
          350 vlineto
          30 0 1 18 15 vhcurveto
          12 10 rlineto
          15 18 1 0 24 hhcurveto
          312 hlineto
          24 1 0 -15 18 hvcurveto
          12 -10 rlineto
          18 -15 0 -1 -30 vvcurveto
          -312 -88 rmoveto
          15 0 1 9 7 vhcurveto
          7 9 1 0 17 hhcurveto
          94 hlineto
          18 1 0 -7 9 hvcurveto
          8 -7 0 -1 -15 vvcurveto
          -167 vlineto
          -15 0 -1 -17 -11 vhcurveto
          -11 -18 -1 0 -18 hhcurveto
          -76 hlineto
          -17 -1 0 8 -9 hvcurveto
          -9 7 0 1 15 vvcurveto
          endchar
        </CharString>
        <CharString name="atilde">
          -35 0 70 -30 30 160 70 130 70 -40 40 61 62 -27 61 hstemhm
          70 84 244 84 -70 94 hintmask 1011000110000000
          hintmask 0111000110000000
          412 40 rmoveto
          hintmask 1011000110000000
          -10 5 -6 11 -9 vhcurveto
          hintmask 1011000101000000
          -13 15 4 -2 24 hhcurveto
          35 49 hlineto
          20 0 1 -12 10 vhcurveto
          hintmask 1011000110000000
          -12 10 0 1 20 vvcurveto
          299 vlineto
          30 -12 10 -12 10 vhcurveto
          -24 20 rlineto
          10 -12 -12 10 -24 hhcurveto
          -235 hlineto
          -24 -1 0 -20 -24 hvcurveto
          hintmask 1010100110000000
          -24 -20 rlineto
          hintmask 1011000110000000
          60 -50 rlineto
          20 24 1 0 24 hhcurveto
          162 hlineto
          24 1 0 -10 12 hvcurveto
          12 -10 0 -1 -20 vvcurveto
          -119 -4 vlineto
          9 0 1 -12 10 vhcurveto
          10 -11 -1 0 -25 hhcurveto
          -179 hlineto
          -24 -12 -10 -10 -12 hvcurveto
          -24 -20 rlineto
          -12 -10 -12 -10 -30 vvcurveto
          -120 vlineto
          -30 12 -10 12 -10 vhcurveto
          24 -20 rlineto
          -10 12 12 -10 24 hhcurveto
          171 hlineto
          24 1 0 15 24 hvcurveto
          hintmask 0111000110000000
          12 7 10 8 10 vvcurveto
          hintmask 1011001110000000
          -254 149 rmoveto
          20 0 1 12 10 vhcurveto
          10 12 1 0 24 hhcurveto
          146 hlineto
          24 1 0 -10 12 hvcurveto
          12 -10 0 -1 -20 vvcurveto
          -68 vlineto
          -20 0 -1 -24 -15 vhcurveto
          -15 -24 -1 0 -24 hhcurveto
          -122 hlineto
          -24 -1 0 10 -12 hvcurveto
          -12 10 0 1 20 vvcurveto
          -24 501 rmoveto
          27 -51 47 25 rlineto
          10 19 1 0 9 hhcurveto
          hintmask 1011010110000000
          24 43 -35 32 hhcurveto
          8 11 3 3 5 hvcurveto
          79 40 -27 51 -62 -32 rlineto
          -2 -5 -5 -1 -3 hhcurveto
          hintmask 1011001110000000
          -20 -53 34 -27 hhcurveto
          -8 -11 -3 -3 -5 hvcurveto
          endchar
        </CharString>
        <CharString name="b">
          -49 0 70 -33 33 360 23 -23 70 hstemhm
          60 84 264 84 hintmask 10011100
          408 111 rmoveto
          -20 0 -1 -12 -10 vhcurveto
          -10 -12 -1 0 -24 hhcurveto
          -142 hlineto
          -24 -1 0 15 -24 hvcurveto
          -24 15 0 1 20 vvcurveto
          258 vlineto
          20 0 1 24 15 vhcurveto
          15 24 1 0 25 hhcurveto
          141 hlineto
          24 1 0 -10 12 hvcurveto
          12 -10 0 -1 -20 vvcurveto
          -264 351 rmoveto
          -84 -740 72 hlineto
          hintmask 01011100
          37 4 vlineto
          hintmask 10011100
          1 -9 11 -7 12 -6 rrcurveto
          -15 24 1 0 24 hhcurveto
          187 hlineto
          24 12 10 10 12 hvcurveto
          24 20 rlineto
          12 10 12 10 30 vvcurveto
          320 vlineto
          30 -12 10 -12 10 vhcurveto
          -24 20 rlineto
          10 -12 -12 10 -24 hhcurveto
          -188 hlineto
          -12 -13 -8 -11 -13 hvcurveto
          hintmask 10101100
          -8 -7 -14 -12 -9 vvcurveto
          -4 hlineto
          endchar
        </CharString>
        <CharString name="backslash">
          -76 700 -20 hstem
          -40 605 vstem
          -40 700 rmoveto
          529 -790 rlineto
          76 hlineto
          -525 790 rlineto
          endchar
        </CharString>
        <CharString name="bar">
          -331 -180 920 hstem
          100 70 vstem
          100 740 rmoveto
          -920 70 920 vlineto
          endchar
        </CharString>
        <CharString name="braceleft">
          -322 -110 820 hstemhm
          60 57 -4 72 hintmask 10100000
          113 366 rmoveto
          -21 -6 -6 -12 -11 vhcurveto
          hintmask 11000000
          -35 -30 rlineto
          -80 vlineto
          hintmask 10100000
          35 -30 rlineto
          12 -11 6 -6 -21 vvcurveto
          -186 vlineto
          -30 0 -1 20 -14 vhcurveto
          22 -15 rlineto
          -14 20 1 0 25 hhcurveto
          18 39 hlineto
          30 0 1 -18 13 vhcurveto
          -16 11 0 1 30 vvcurveto
          162 vlineto
          31 0 1 -20 16 vhcurveto
          hintmask 11000000
          -26 21 rlineto
          5 -6 -9 5 -7 hhcurveto
          4 vlineto
          hintmask 10100000
          7 9 5 5 6 hvcurveto
          26 21 rlineto
          20 16 0 1 31 vvcurveto
          246 vlineto
          30 0 1 16 11 vhcurveto
          18 13 0 1 30 vvcurveto
          39 -18 vlineto
          -25 -1 0 -14 -20 hvcurveto
          -22 -15 rlineto
          -20 -14 0 -1 -30 vvcurveto
          endchar
        </CharString>
        <CharString name="braceright">
          -322 -110 820 hstemhm
          94 72 -4 57 hintmask 11000000
          166 636 rmoveto
          30 0 1 -20 14 vhcurveto
          -22 15 rlineto
          14 -20 -1 0 -25 hhcurveto
          -18 -39 hlineto
          -30 0 -1 18 -13 vhcurveto
          16 -11 0 -1 -30 vvcurveto
          -246 vlineto
          -31 0 -1 20 -16 vhcurveto
          hintmask 10100000
          26 -21 rlineto
          -5 6 9 -5 7 hhcurveto
          -4 vlineto
          hintmask 11000000
          -7 -9 -5 -5 -6 hvcurveto
          -26 -21 rlineto
          -20 -16 0 -1 -31 vvcurveto
          -162 vlineto
          -30 0 -1 -16 -11 vhcurveto
          -18 -13 0 -1 -30 vvcurveto
          -39 18 vlineto
          25 1 0 14 20 hvcurveto
          22 15 rlineto
          20 14 0 1 30 vvcurveto
          186 vlineto
          21 6 6 12 11 vhcurveto
          hintmask 10100000
          35 30 rlineto
          80 vlineto
          hintmask 11000000
          -35 30 rlineto
          -12 11 -6 6 21 vvcurveto
          endchar
        </CharString>
        <CharString name="bracketleft">
          -310 -110 65 690 65 hstem
          56 72 vstem
          236 -110 rmoveto
          65 -108 690 108 65 -180 -820 vlineto
          endchar
        </CharString>
        <CharString name="bracketright">
          -307 -110 65 690 65 hstem
          163 72 vstem
          55 710 rmoveto
          -65 108 -690 -108 -65 180 820 vlineto
          endchar
        </CharString>
        <CharString name="brokenbar">
          -331 -180 920 hstem
          100 70 vstem
          100 199 rmoveto
          -379 70 379 vlineto
          -70 541 rmoveto
          -379 70 379 vlineto
          endchar
        </CharString>
        <CharString name="bullet">
          -251 255 204 hstem
          75 201 vstem
          276 383 rmoveto
          42 0 1 -16 18 vhcurveto
          15 -18 -1 0 -49 hhcurveto
          -31 hlineto
          -51 -1 0 -15 -15 hvcurveto
          -19 -18 0 -1 -42 vvcurveto
          -52 vlineto
          -42 0 -1 18 -18 vhcurveto
          -15 16 1 0 51 hhcurveto
          32 hlineto
          48 1 0 15 15 hvcurveto
          19 18 0 1 42 vvcurveto
          endchar
        </CharString>
        <CharString name="c">
          -86 0 70 360 70 hstem
          60 84 232 84 vstem
          460 370 rmoveto
          40 vlineto
          30 -12 10 -12 10 vhcurveto
          -24 20 rlineto
          10 -12 -12 10 -24 hhcurveto
          -208 hlineto
          -24 -12 -10 -10 -12 hvcurveto
          -24 -20 rlineto
          -12 -10 -12 -10 -30 vvcurveto
          -320 vlineto
          -30 12 -10 12 -10 vhcurveto
          24 -20 rlineto
          -10 12 12 -10 24 hhcurveto
          208 hlineto
          24 12 10 10 12 hvcurveto
          24 20 rlineto
          12 10 12 10 30 vvcurveto
          40 -84 -19 vlineto
          -20 0 -1 -12 -10 vhcurveto
          -10 -12 -1 0 -24 hhcurveto
          -134 hlineto
          -24 -1 0 10 -12 hvcurveto
          -12 10 0 1 20 vvcurveto
          278 vlineto
          20 0 1 12 10 vhcurveto
          10 12 1 0 24 hhcurveto
          134 hlineto
          24 1 0 -10 12 hvcurveto
          12 -10 0 -1 -20 vvcurveto
          -19 vlineto
          endchar
        </CharString>
        <CharString name="caron">
          -202 567 51 82 -20 hstem
          75 249 vstem
          206 630 rmoveto
          -4 -5 -1 -3 -4 vvcurveto
          -4 hlineto
          4 -1 3 -4 5 vhcurveto
          -58 70 -59 -19 97 -114 rlineto
          53 hlineto
          99 114 -60 19 rlineto
          endchar
        </CharString>
        <CharString name="caron.case">
          -351 741 60 hstem
          0 259 vstem
          127 801 rmoveto
          -101 62 -26 -34 103 -88 rlineto
          53 hlineto
          103 88 -26 34 -102 -62 rlineto
          endchar
        </CharString>
        <CharString name="ccedilla">
          -86 -220 47 86 47 40 70 360 70 hstemhm
          60 84 40 49 -7 49 67 49 -15 84 hintmask 1111101100000000
          hintmask 1111101010000000
          364 hmoveto
          24 12 10 10 12 hvcurveto
          24 20 rlineto
          12 10 12 10 30 vvcurveto
          40 -84 -19 vlineto
          -20 0 -1 -12 -10 vhcurveto
          -10 -12 -1 0 -24 hhcurveto
          -134 hlineto
          -24 -1 0 10 -12 hvcurveto
          -12 10 0 1 20 vvcurveto
          278 vlineto
          20 0 1 12 10 vhcurveto
          10 12 1 0 24 hhcurveto
          134 hlineto
          24 1 0 -10 12 hvcurveto
          12 -10 0 -1 -20 vvcurveto
          -19 84 40 vlineto
          30 -12 10 -12 10 vhcurveto
          -24 20 rlineto
          10 -12 -12 10 -24 hhcurveto
          -208 hlineto
          -24 -12 -10 -10 -12 hvcurveto
          -24 -20 rlineto
          -12 -10 -12 -10 -30 vvcurveto
          -320 vlineto
          -30 12 -10 12 -10 vhcurveto
          24 -20 rlineto
          -10 12 12 -10 24 hhcurveto
          70 -97 hlineto
          hintmask 1111101100000000
          49 hlineto
          10 7 rlineto
          3 5 3 0 3 hhcurveto
          21 hlineto
          12 1 0 -5 6 hvcurveto
          6 -5 0 -1 -10 vvcurveto
          -44 vlineto
          -10 0 -1 -6 -5 vhcurveto
          hintmask 1111110100000000
          -5 -6 -2 0 -12 hhcurveto
          -58 hlineto
          -12 -1 0 5 -6 hvcurveto
          -6 5 0 1 10 vvcurveto
          9 -49 -32 vlineto
          -15 6 -5 6 -5 vhcurveto
          12 -10 rlineto
          -5 6 6 -5 12 hhcurveto
          111 hlineto
          12 6 5 5 6 hvcurveto
          12 10 rlineto
          6 5 6 5 15 vvcurveto
          90 vlineto
          15 -6 5 -6 5 vhcurveto
          hintmask 1111101100000000
          -12 10 rlineto
          5 -6 -6 5 -12 hhcurveto
          -32 hlineto
          -12 -6 -6 -13 -18 hvcurveto
          59 vlineto
          endchar
        </CharString>
        <CharString name="cedilla">
          -221 -220 47 86 47 hstemhm
          95 49 -7 49 67 49 hintmask 11011000
          137 hmoveto
          -97 49 vlineto
          10 7 rlineto
          3 5 3 0 3 hhcurveto
          21 hlineto
          12 1 0 -5 6 hvcurveto
          6 -5 0 -1 -10 vvcurveto
          -44 vlineto
          -10 0 -1 -6 -5 vhcurveto
          hintmask 11101000
          -5 -6 -2 0 -12 hhcurveto
          -58 hlineto
          -12 -1 0 5 -6 hvcurveto
          -6 5 0 1 10 vvcurveto
          9 -49 -32 vlineto
          -15 6 -5 6 -5 vhcurveto
          12 -10 rlineto
          -5 6 6 -5 12 hhcurveto
          111 hlineto
          12 6 5 5 6 hvcurveto
          12 10 rlineto
          6 5 6 5 15 vvcurveto
          90 vlineto
          15 -6 5 -6 5 vhcurveto
          hintmask 11011000
          -12 10 rlineto
          5 -6 -6 5 -12 hhcurveto
          -32 hlineto
          -12 -6 -6 -13 -18 hvcurveto
          59 vlineto
          endchar
        </CharString>
        <CharString name="cent">
          -61 0 70 360 70 hstem
          60 84 91 70 91 84 cntrmask 00111000
          235 600 rmoveto
          -100 -79 vlineto
          -24 -12 -10 -10 -12 hvcurveto
          -24 -20 rlineto
          -12 -10 -12 -10 -30 vvcurveto
          -320 vlineto
          -30 12 -10 12 -10 vhcurveto
          24 -20 rlineto
          -10 12 12 -10 24 hhcurveto
          79 -101 70 101 79 hlineto
          24 12 10 10 12 hvcurveto
          24 20 rlineto
          12 10 12 10 30 vvcurveto
          40 -84 -19 vlineto
          -20 0 -1 -12 -10 vhcurveto
          -10 -12 -1 0 -24 hhcurveto
          -154 hlineto
          -24 -1 0 10 -12 hvcurveto
          -12 10 0 1 20 vvcurveto
          278 vlineto
          20 0 1 12 10 vhcurveto
          10 12 1 0 24 hhcurveto
          154 hlineto
          24 1 0 -10 12 hvcurveto
          12 -10 0 -1 -20 vvcurveto
          -19 84 40 vlineto
          30 -12 10 -12 10 vhcurveto
          -24 20 rlineto
          10 -12 -12 10 -24 hhcurveto
          -79 100 hlineto
          endchar
        </CharString>
        <CharString name="circumflex">
          -202 649 51 hstem
          75 249 vstem
          264 567 rmoveto
          60 19 -99 114 rlineto
          -53 hlineto
          -97 -114 59 -19 58 70 rlineto
          4 5 1 3 4 vvcurveto
          4 hlineto
          -4 1 -3 4 -5 vhcurveto
          endchar
        </CharString>
        <CharString name="circumflex.case">
          -351 810 60 hstem
          0 259 vstem
          132 810 rmoveto
          101 -62 26 34 -103 88 rlineto
          -53 hlineto
          -103 -88 26 -34 102 62 rlineto
          endchar
        </CharString>
        <CharString name="colon">
          0 95 295 95 hstem
          60 84 vstem
          144 70 rmoveto
          10 -1 2 -6 6 vhcurveto
          7 -8 -4 0 -23 hhcurveto
          -23 -4 0 -7 -7 hvcurveto
          -7 -7 -1 -1 -11 vvcurveto
          -44 vlineto
          -10 1 -2 6 -6 vhcurveto
          -7 8 4 0 23 hhcurveto
          22 5 0 7 7 hvcurveto
          8 7 0 1 15 vvcurveto
          430 vmoveto
          10 -1 2 -6 6 vhcurveto
          7 -8 -4 0 -23 hhcurveto
          -23 -4 0 -7 -7 hvcurveto
          -7 -7 -1 -1 -11 vvcurveto
          -44 vlineto
          -10 1 -2 6 -6 vhcurveto
          -7 8 4 0 23 hhcurveto
          22 5 0 7 7 hvcurveto
          8 7 0 1 15 vvcurveto
          endchar
        </CharString>
        <CharString name="comma">
          0 95 hstem
          84 60 vstem
          138 -10 rmoveto
          6 25 0 1 23 vvcurveto
          17 vlineto
          23 0 1 -8 8 vhcurveto
          7 -8 -1 0 -26 hhcurveto
          -24 -1 0 -7 -8 hvcurveto
          -8 -8 0 -1 -23 vvcurveto
          -17 vlineto
          -23 0 -1 8 -7 vhcurveto
          -8 8 1 0 7 hhcurveto
          -100 vlineto
          30 -20 rlineto
          endchar
        </CharString>
        <CharString name="copyright">
          131 40 54 95 302 -267 232 130 54 hstemhm
          75 62 135 198 125 62 hintmask 10111110
          657 130 rmoveto
          420 vlineto
          30 -12 10 -12 10 vhcurveto
          -24 20 rlineto
          10 -12 -12 10 -24 hhcurveto
          -390 hlineto
          -24 -12 -10 -10 -12 hvcurveto
          -24 -20 rlineto
          -12 -10 -12 -10 -30 vvcurveto
          -420 vlineto
          -30 12 -10 12 -10 vhcurveto
          24 -20 rlineto
          -10 12 12 -10 24 hhcurveto
          390 hlineto
          24 12 10 10 12 hvcurveto
          24 20 rlineto
          12 10 12 10 30 vvcurveto
          -62 385 rmoveto
          -350 vlineto
          -30 0 -1 -18 -15 vhcurveto
          -12 -10 rlineto
          -15 -18 -1 0 -24 hhcurveto
          -312 hlineto
          -24 -1 0 15 -18 hvcurveto
          -12 10 rlineto
          -18 15 0 1 30 vvcurveto
          350 vlineto
          30 0 1 18 15 vhcurveto
          12 10 rlineto
          15 18 1 0 24 hhcurveto
          312 hlineto
          24 1 0 -15 18 hvcurveto
          12 -10 rlineto
          18 -15 0 -1 -30 vvcurveto
          -125 -59 rmoveto
          10 vlineto
          hintmask 11011110
          11 0 1 -8 7 vhcurveto
          6 -7 -1 0 -15 hhcurveto
          -138 hlineto
          -14 -1 0 -6 -8 hvcurveto
          -6 -6 0 -1 -11 vvcurveto
          -254 vlineto
          -11 0 -1 6 -6 vhcurveto
          -6 8 1 0 14 hhcurveto
          138 hlineto
          15 1 0 6 7 hvcurveto
          hintmask 10111110
          8 7 0 1 11 vvcurveto
          10 64 -37 vlineto
          -18 -7 -6 -7 -6 vhcurveto
          -15 -11 rlineto
          -6 -8 -6 -6 -15 hhcurveto
          -212 hlineto
          -13 -7 6 6 -7 hvcurveto
          -14 11 rlineto
          -8 6 -7 6 18 vvcurveto
          306 vlineto
          18 7 6 8 6 vhcurveto
          14 11 rlineto
          6 7 7 6 13 hhcurveto
          212 hlineto
          15 6 -6 -6 8 hvcurveto
          15 -11 rlineto
          7 -6 7 -6 -18 vvcurveto
          -37 vlineto
          endchar
        </CharString>
        <CharString name="currency">
          -87 175 47 240 47 hstem
          96 56 210 56 vstem
          91 561 rmoveto
          -46 -46 51 -52 rlineto
          -243 vlineto
          -51 -51 46 -46 54 52 rlineto
          226 hlineto
          52 -52 46 46 -51 52 rlineto
          243 vlineto
          51 51 -46 46 -54 -52 rlineto
          -224 hlineto
          7 -69 rmoveto
          11 0 1 6 5 vhcurveto
          5 7 1 0 12 hhcurveto
          158 hlineto
          12 1 0 -5 7 hvcurveto
          6 -5 0 -1 -11 vvcurveto
          -196 vlineto
          -11 0 -1 -6 -5 vhcurveto
          -5 -7 -1 0 -12 hhcurveto
          -158 hlineto
          -12 -1 0 5 -7 hvcurveto
          -6 5 0 1 11 vvcurveto
          endchar
        </CharString>
        <CharString name="d">
          -25 0 70 -30 30 360 20 -20 70 hstemhm
          60 84 264 84 hintmask 10011100
          336 430 rmoveto
          24 12 -10 -10 12 hvcurveto
          12 -10 12 -10 -20 vvcurveto
          -249 vlineto
          -20 0 -1 -24 -15 vhcurveto
          -15 -24 -1 0 -24 hhcurveto
          -142 hlineto
          -24 -1 0 10 -12 hvcurveto
          -12 10 0 1 20 vvcurveto
          278 vlineto
          20 0 1 12 10 vhcurveto
          10 12 1 0 24 hhcurveto
          154 -430 rmoveto
          24 1 0 15 24 hvcurveto
          hintmask 01011100
          12 7 10 8 10 vvcurveto
          4 hlineto
          hintmask 10101100
          -10 5 -6 11 -9 vhcurveto
          -13 15 4 -2 24 hhcurveto
          35 49 hlineto
          20 0 1 -12 10 vhcurveto
          -12 10 0 1 20 vvcurveto
          629 -84 -290 -4 vlineto
          hintmask 10011100
          9 -14 11 -10 10 vhcurveto
          10 -12 -12 10 -24 hhcurveto
          -176 hlineto
          -24 -12 -10 -10 -12 hvcurveto
          -24 -20 rlineto
          -12 -10 -12 -10 -30 vvcurveto
          -320 vlineto
          -30 12 -10 12 -10 vhcurveto
          24 -20 rlineto
          -10 12 12 -10 24 hhcurveto
          endchar
        </CharString>
        <CharString name="degree">
          -200 420 57 166 57 hstem
          60 66 150 66 vstem
          109 700 rmoveto
          -12 -6 -5 -5 -6 hvcurveto
          -13 -11 rlineto
          -6 -5 -6 -5 -15 vvcurveto
          -188 vlineto
          -15 6 -5 6 -5 vhcurveto
          13 -11 rlineto
          -5 6 6 -5 12 hhcurveto
          184 hlineto
          12 7 5 5 6 hvcurveto
          12 11 rlineto
          6 5 6 5 15 vvcurveto
          188 vlineto
          15 -6 5 -6 5 vhcurveto
          -12 11 rlineto
          5 -6 -7 5 -12 hhcurveto
          -17 -201 rmoveto
          -11 0 -1 -6 -5 vhcurveto
          -5 -6 -1 0 -12 hhcurveto
          -99 hlineto
          -12 -1 0 5 -7 hvcurveto
          -6 5 0 1 11 vvcurveto
          122 vlineto
          11 0 1 6 5 vhcurveto
          5 7 1 0 12 hhcurveto
          99 hlineto
          12 1 0 -5 6 hvcurveto
          6 -5 0 -1 -11 vvcurveto
          endchar
        </CharString>
        <CharString name="dieresis">
          -213 586 92 hstem
          66 96 64 96 vstem
          162 636 rmoveto
          25 0 1 -8 7 vhcurveto
          9 -9 -3 0 -30 hhcurveto
          -27 -1 0 -9 -8 hvcurveto
          -9 -10 -1 -1 -22 vvcurveto
          -8 vlineto
          -22 1 -3 9 -8 vhcurveto
          -8 9 2 -1 25 hhcurveto
          5 hlineto
          24 3 0 9 9 hvcurveto
          9 7 0 1 25 vvcurveto
          160 8 rmoveto
          25 0 1 -8 7 vhcurveto
          9 -9 -3 0 -30 hhcurveto
          -27 -1 0 -9 -8 hvcurveto
          -9 -10 -1 -1 -22 vvcurveto
          -8 vlineto
          -22 1 -3 9 -8 vhcurveto
          -8 9 2 -1 25 hhcurveto
          5 hlineto
          24 3 0 9 9 hvcurveto
          9 7 0 1 25 vvcurveto
          endchar
        </CharString>
        <CharString name="dieresis.case">
          -213 756 92 hstem
          63 96 70 96 vstem
          159 806 rmoveto
          25 0 1 -8 7 vhcurveto
          9 -9 -3 0 -30 hhcurveto
          -27 -1 0 -9 -8 hvcurveto
          -9 -10 -1 -1 -22 vvcurveto
          -8 vlineto
          -22 1 -3 9 -8 vhcurveto
          -8 9 2 -1 25 hhcurveto
          5 hlineto
          24 3 0 9 9 hvcurveto
          9 7 0 1 25 vvcurveto
          166 8 rmoveto
          25 0 1 -8 7 vhcurveto
          9 -9 -3 0 -30 hhcurveto
          -27 -1 0 -9 -8 hvcurveto
          -9 -10 -1 -1 -22 vvcurveto
          -8 vlineto
          -22 1 -3 9 -8 vhcurveto
          -8 9 2 -1 25 hhcurveto
          5 hlineto
          24 3 0 9 9 hvcurveto
          9 7 0 1 25 vvcurveto
          endchar
        </CharString>
        <CharString name="divide">
          -63 122 95 77 65 73 95 hstem
          227 84 vstem
          311 192 rmoveto
          10 -1 2 -6 6 vhcurveto
          7 -8 -4 0 -23 hhcurveto
          -23 -4 0 -7 -7 hvcurveto
          -7 -7 -1 -1 -11 vvcurveto
          -44 vlineto
          -10 1 -2 6 -6 vhcurveto
          -7 8 4 0 23 hhcurveto
          22 5 0 7 7 hvcurveto
          8 7 0 1 15 vvcurveto
          350 vmoveto
          10 -1 2 -6 6 vhcurveto
          7 -8 -4 0 -23 hhcurveto
          -23 -4 0 -7 -7 hvcurveto
          -7 -7 -1 -1 -11 vvcurveto
          -44 vlineto
          -10 1 -2 6 -6 vhcurveto
          -7 8 4 0 23 hhcurveto
          22 5 0 7 7 hvcurveto
          8 7 0 1 15 vvcurveto
          -251 -103 rmoveto
          -65 418 65 vlineto
          endchar
        </CharString>
        <CharString name="dollar">
          27 20 70 230 70 220 70 hstemhm
          75 84 -74 84 111 72 107 84 -74 84 hintmask 11101101
          352 -90 rmoveto
          110 105 vlineto
          24 12 10 10 12 hvcurveto
          24 20 rlineto
          12 10 12 10 30 vvcurveto
          190 vlineto
          30 -12 10 -12 10 vhcurveto
          -24 20 rlineto
          10 -12 -12 10 -24 hhcurveto
          -105 220 hlineto
          hintmask 11101110
          58 hlineto
          24 1 0 -10 12 hvcurveto
          12 -10 0 -1 -20 vvcurveto
          -19 84 40 vlineto
          30 -12 10 -12 10 vhcurveto
          -24 20 rlineto
          10 -12 -12 10 -24 hhcurveto
          -95 100 -72 -100 -99 hlineto
          -24 -12 -10 -10 -12 hvcurveto
          -24 -20 rlineto
          -12 -10 -12 -10 -30 vvcurveto
          -187 vlineto
          -23 10 -8 11 -9 vhcurveto
          27 -23 rlineto
          -10 12 12 -10 24 hhcurveto
          99 -230 hlineto
          hintmask 11110101
          -72 hlineto
          -24 -1 0 10 -12 hvcurveto
          -12 10 0 1 20 vvcurveto
          19 -84 -40 vlineto
          -30 12 -10 12 -10 vhcurveto
          24 -20 rlineto
          -10 12 12 -10 24 hhcurveto
          109 -110 hlineto
          140 410 rmoveto
          24 1 0 -10 12 hvcurveto
          12 -10 0 -1 -20 vvcurveto
          -148 vlineto
          -20 0 -1 -12 -10 vhcurveto
          -10 -12 -1 0 -24 hhcurveto
          -68 230 hlineto
          hintmask 11101101
          -171 280 rmoveto
          10 12 1 0 24 hhcurveto
          62 -220 -62 hlineto
          -24 -1 0 10 -12 hvcurveto
          -12 10 0 1 20 vvcurveto
          138 vlineto
          20 0 1 12 10 vhcurveto
          endchar
        </CharString>
        <CharString name="dotlessi">
          21 -21 500 -20 hstem
          60 84 vstem
          144 hmoveto
          500 -84 -500 vlineto
          endchar
        </CharString>
        <CharString name="e">
          -55 0 70 135 65 160 70 hstem
          60 84 258 84 vstem
          436 90 rmoveto
          -20 -24 -1 0 -24 hhcurveto
          -194 hlineto
          -24 -1 0 10 -12 hvcurveto
          -12 10 0 1 20 vvcurveto
          94 342 205 vlineto
          30 -11 10 -13 10 vhcurveto
          -25 20 rlineto
          10 -14 -15 10 -19 hhcurveto
          -233 hlineto
          -24 -12 -10 -10 -12 hvcurveto
          -24 -20 rlineto
          -12 -10 -12 -10 -30 vvcurveto
          -320 vlineto
          -30 12 -10 12 -10 vhcurveto
          24 -20 rlineto
          -10 12 12 -10 24 hhcurveto
          267 hlineto
          24 1 0 20 24 hvcurveto
          24 20 rlineto
          -94 230 rmoveto
          -258 119 hlineto
          20 0 1 12 10 vhcurveto
          10 12 1 0 24 hhcurveto
          160 hlineto
          24 1 0 -10 12 hvcurveto
          12 -10 0 -1 -20 vvcurveto
          endchar
        </CharString>
        <CharString name="eacute">
          -55 0 70 135 65 160 70 hstem
          60 84 258 84 vstem
          436 90 rmoveto
          -20 -24 -1 0 -24 hhcurveto
          -194 hlineto
          -24 -1 0 10 -12 hvcurveto
          -12 10 0 1 20 vvcurveto
          94 342 205 vlineto
          30 -11 10 -13 10 vhcurveto
          -25 20 rlineto
          10 -14 -15 10 -19 hhcurveto
          -233 hlineto
          -24 -12 -10 -10 -12 hvcurveto
          -24 -20 rlineto
          -12 -10 -12 -10 -30 vvcurveto
          -320 vlineto
          -30 12 -10 12 -10 vhcurveto
          24 -20 rlineto
          -10 12 12 -10 24 hhcurveto
          267 hlineto
          24 1 0 20 24 hvcurveto
          24 20 rlineto
          -94 230 rmoveto
          -258 119 hlineto
          20 0 1 12 10 vhcurveto
          10 12 1 0 24 hhcurveto
          160 hlineto
          24 1 0 -10 12 hvcurveto
          12 -10 0 -1 -20 vvcurveto
          -9 257 rmoveto
          -43 63 -137 -119 26 -40 rlineto
          endchar
        </CharString>
        <CharString name="ecircumflex">
          -55 0 70 135 65 160 70 149 51 hstem
          60 84 258 84 vstem
          436 90 rmoveto
          -20 -24 -1 0 -24 hhcurveto
          -194 hlineto
          -24 -1 0 10 -12 hvcurveto
          -12 10 0 1 20 vvcurveto
          94 342 205 vlineto
          30 -11 10 -13 10 vhcurveto
          -25 20 rlineto
          10 -14 -15 10 -19 hhcurveto
          -233 hlineto
          -24 -12 -10 -10 -12 hvcurveto
          -24 -20 rlineto
          -12 -10 -12 -10 -30 vvcurveto
          -320 vlineto
          -30 12 -10 12 -10 vhcurveto
          24 -20 rlineto
          -10 12 12 -10 24 hhcurveto
          267 hlineto
          24 1 0 20 24 hvcurveto
          24 20 rlineto
          -94 230 rmoveto
          -258 119 hlineto
          20 0 1 12 10 vhcurveto
          10 12 1 0 24 hhcurveto
          160 hlineto
          24 1 0 -10 12 hvcurveto
          12 -10 0 -1 -20 vvcurveto
          -65 178 rmoveto
          60 19 -99 114 rlineto
          -53 hlineto
          -97 -114 59 -19 58 70 rlineto
          4 5 1 3 4 vvcurveto
          4 hlineto
          -4 1 -3 4 -5 vhcurveto
          endchar
        </CharString>
        <CharString name="edieresis">
          -55 0 70 135 65 160 70 86 92 hstemhm
          60 84 1 96 64 96 1 84 hintmask 11111001
          436 90 rmoveto
          -20 -24 -1 0 -24 hhcurveto
          -194 hlineto
          -24 -1 0 10 -12 hvcurveto
          -12 10 0 1 20 vvcurveto
          94 342 205 vlineto
          30 -11 10 -13 10 vhcurveto
          -25 20 rlineto
          10 -14 -15 10 -19 hhcurveto
          -233 hlineto
          -24 -12 -10 -10 -12 hvcurveto
          -24 -20 rlineto
          -12 -10 -12 -10 -30 vvcurveto
          -320 vlineto
          -30 12 -10 12 -10 vhcurveto
          24 -20 rlineto
          -10 12 12 -10 24 hhcurveto
          267 hlineto
          24 1 0 20 24 hvcurveto
          24 20 rlineto
          -94 230 rmoveto
          -258 119 hlineto
          20 0 1 12 10 vhcurveto
          10 12 1 0 24 hhcurveto
          160 hlineto
          24 1 0 -10 12 hvcurveto
          12 -10 0 -1 -20 vvcurveto
          hintmask 11110110
          -161 247 rmoveto
          25 0 1 -8 7 vhcurveto
          9 -9 -3 0 -30 hhcurveto
          -27 -1 0 -9 -8 hvcurveto
          -9 -10 -1 -1 -22 vvcurveto
          -8 vlineto
          -22 1 -3 9 -8 vhcurveto
          -8 9 2 -1 25 hhcurveto
          5 hlineto
          24 3 0 9 9 hvcurveto
          9 7 0 1 25 vvcurveto
          160 8 rmoveto
          25 0 1 -8 7 vhcurveto
          9 -9 -3 0 -30 hhcurveto
          -27 -1 0 -9 -8 hvcurveto
          -9 -10 -1 -1 -22 vvcurveto
          -8 vlineto
          -22 1 -3 9 -8 vhcurveto
          -8 9 2 -1 25 hhcurveto
          5 hlineto
          24 3 0 9 9 hvcurveto
          9 7 0 1 25 vvcurveto
          endchar
        </CharString>
        <CharString name="egrave">
          -55 0 70 135 65 160 70 hstem
          60 84 258 84 vstem
          436 90 rmoveto
          -20 -24 -1 0 -24 hhcurveto
          -194 hlineto
          -24 -1 0 10 -12 hvcurveto
          -12 10 0 1 20 vvcurveto
          94 342 205 vlineto
          30 -11 10 -13 10 vhcurveto
          -25 20 rlineto
          10 -14 -15 10 -19 hhcurveto
          -233 hlineto
          -24 -12 -10 -10 -12 hvcurveto
          -24 -20 rlineto
          -12 -10 -12 -10 -30 vvcurveto
          -320 vlineto
          -30 12 -10 12 -10 vhcurveto
          24 -20 rlineto
          -10 12 12 -10 24 hhcurveto
          267 hlineto
          24 1 0 20 24 hvcurveto
          24 20 rlineto
          -94 230 rmoveto
          -258 119 hlineto
          20 0 1 12 10 vhcurveto
          10 12 1 0 24 hhcurveto
          160 hlineto
          24 1 0 -10 12 hvcurveto
          12 -10 0 -1 -20 vvcurveto
          -85 161 rmoveto
          26 40 -137 119 -43 -63 rlineto
          endchar
        </CharString>
        <CharString name="eight">
          91 0 70 250 70 240 70 hstemhm
          85 84 -72 84 330 84 -72 84 hintmask 11110010
          447 320 rmoveto
          20 1 0 -13 16 hvcurveto
          22 -18 rlineto
          17 -14 0 -1 -21 vvcurveto
          -142 vlineto
          -20 0 -1 -12 -10 vhcurveto
          -10 -12 -1 0 -24 hhcurveto
          -256 hlineto
          -24 -1 0 10 -12 hvcurveto
          -12 10 0 1 20 vvcurveto
          142 vlineto
          21 0 1 17 14 vhcurveto
          22 18 rlineto
          13 16 1 0 20 hhcurveto
          hintmask 11101100
          217 310 rmoveto
          24 1 0 -10 12 hvcurveto
          12 -10 0 -1 -20 vvcurveto
          -130 vlineto
          -23 0 -1 -16 -13 vhcurveto
          -26 -21 rlineto
          -11 -14 -1 0 -24 hhcurveto
          -168 hlineto
          -24 -1 0 11 -14 hvcurveto
          -26 21 rlineto
          -16 13 0 1 23 vvcurveto
          130 vlineto
          20 0 1 12 10 vhcurveto
          10 12 1 0 24 hhcurveto
          hintmask 11110010
          -131 -321 rmoveto
          -11 -9 -3 -4 -26 vvcurveto
          -180 vlineto
          -30 12 -10 12 -10 vhcurveto
          8 -6 8 -7 8 -7 rrcurveto
          -10 12 12 -10 24 hhcurveto
          330 hlineto
          24 12 10 10 12 hvcurveto
          8 7 8 7 8 6 rrcurveto
          12 10 12 10 30 vvcurveto
          180 vlineto
          26 -3 4 -11 9 vhcurveto
          hintmask 11101100
          -47 39 rlineto
          5 -6 -14 8 -8 hhcurveto
          5 vlineto
          8 14 8 5 6 hvcurveto
          33 26 rlineto
          11 9 5 4 21 vvcurveto
          171 vlineto
          30 -12 10 -12 10 vhcurveto
          -24 20 rlineto
          10 -12 -12 10 -24 hhcurveto
          -306 hlineto
          -24 -12 -10 -10 -12 hvcurveto
          -24 -20 rlineto
          -12 -10 -12 -10 -30 vvcurveto
          -171 vlineto
          -21 5 -4 11 -9 vhcurveto
          hintmask 11110010
          33 -26 rlineto
          -5 6 14 -8 8 hhcurveto
          -5 vlineto
          -8 -14 -8 -5 -6 hvcurveto
          endchar
        </CharString>
        <CharString name="emdash">
          47 294 65 hstem
          0 648 vstem
          648 359 rmoveto
          -648 -65 648 hlineto
          endchar
        </CharString>
        <CharString name="endash">
          9 294 65 hstem
          45 520 vstem
          565 359 rmoveto
          -520 -65 520 hlineto
          endchar
        </CharString>
        <CharString name="equal">
          -81 245 65 91 65 hstem
          60 400 vstem
          460 466 rmoveto
          -400 -65 400 hlineto
          -91 vmoveto
          -400 -65 400 hlineto
          endchar
        </CharString>
        <CharString name="eth">
          -49 0 70 360 20 -20 70 hstemhm
          59 84 264 84 hintmask 10111000
          174 707 rmoveto
          73 -61 -52 -56 48 -44 54 59 rlineto
          hintmask 11011000
          100 -83 rlineto
          20 -16 2 -7 -20 vvcurveto
          -29 -4 vlineto
          hintmask 10111000
          21 -23 -25 29 -24 hhcurveto
          -188 hlineto
          -24 -12 -10 -10 -12 hvcurveto
          -24 -20 rlineto
          -12 -10 -12 -10 -20 vvcurveto
          -340 vlineto
          -20 12 -10 12 -10 vhcurveto
          24 -20 rlineto
          -10 12 12 -10 24 hhcurveto
          240 hlineto
          24 12 10 10 12 hvcurveto
          24 20 rlineto
          12 10 12 10 20 vvcurveto
          430 vlineto
          20 -12 12 -9 9 vhcurveto
          -125 105 61 67 -48 44 -63 -69 -72 62 rlineto
          -80 -371 rmoveto
          20 0 1 12 10 vhcurveto
          10 12 1 0 24 hhcurveto
          141 hlineto
          25 1 0 -15 24 hvcurveto
          24 -15 0 -1 -20 vvcurveto
          -268 vlineto
          -20 0 -1 -12 -10 vhcurveto
          -10 -12 -1 0 -24 hhcurveto
          -166 hlineto
          -24 -1 0 10 -12 hvcurveto
          -12 10 0 1 20 vvcurveto
          endchar
        </CharString>
        <CharString name="exclam">
          -317 700 -20 hstem
          100 84 vstem
          184 36 rmoveto
          -20 0 -1 -9 -8 vhcurveto
          -7 -7 -1 0 -22 hhcurveto
          -5 hlineto
          -23 -1 0 7 -8 hvcurveto
          -8 8 0 1 20 vvcurveto
          23 vlineto
          20 0 1 9 8 vhcurveto
          7 7 1 0 23 hhcurveto
          4 hlineto
          23 1 0 -7 8 hvcurveto
          8 -8 0 -1 -20 vvcurveto
          -11 131 rmoveto
          11 260 rlineto
          250 -84 -250 vlineto
          11 -260 rlineto
          endchar
        </CharString>
        <CharString name="exclamdown">
          -317 -239 -21 605 95 hstem
          100 84 vstem
          184 404 rmoveto
          20 0 1 -9 8 vhcurveto
          7 -7 -1 0 -22 hhcurveto
          -5 hlineto
          -23 -1 0 -7 -8 hvcurveto
          -8 -8 0 -1 -20 vvcurveto
          -23 vlineto
          -20 0 -1 9 -8 vhcurveto
          -7 7 1 0 23 hhcurveto
          4 hlineto
          23 1 0 7 8 hvcurveto
          8 8 0 1 20 vvcurveto
          -73 -131 rmoveto
          -11 -260 rlineto
          -250 84 250 vlineto
          -11 260 rlineto
          endchar
        </CharString>
        <CharString name="f">
          -245 21 -21 430 70 146 70 hstem
          107 84 vstem
          107 430 rmoveto
          -430 84 430 130 26 vlineto
          30 0 1 -18 13 vhcurveto
          -112 105 hlineto
          20 0 1 12 10 vhcurveto
          9 11 2 1 18 hhcurveto
          107 26 hlineto
          30 0 1 -18 13 vhcurveto
          -120 hlineto
          -24 -12 -10 -10 -12 hvcurveto
          -24 -20 rlineto
          -12 -10 -12 -10 -30 vvcurveto
          -126 -72 -26 vlineto
          -30 0 -1 18 -13 vhcurveto
          endchar
        </CharString>
        <CharString name="five">
          51 0 70 260 81 -21 70 170 70 hstemhm
          75 84 -74 84 314 84 hintmask 10110110
          245 460 rmoveto
          -24 -11 -11 -11 -15 hvcurveto
          hintmask 11010110
          -9 -7 -12 -11 -1 -9 rrcurveto
          -4 219 386 70 -470 -370 84 hlineto
          hintmask 10110110
          20 12 10 12 10 vhcurveto
          10 12 12 10 24 hhcurveto
          193 hlineto
          24 1 0 -10 12 hvcurveto
          12 -10 0 -1 -20 vvcurveto
          -238 vlineto
          -20 0 -1 -12 -10 vhcurveto
          -10 -12 -1 0 -24 hhcurveto
          hintmask 10111010
          -226 hlineto
          -24 -1 0 10 -12 hvcurveto
          -12 10 0 1 20 vvcurveto
          19 -84 -40 vlineto
          -30 12 -10 12 -10 vhcurveto
          24 -20 rlineto
          -10 12 12 -10 24 hhcurveto
          300 hlineto
          24 12 10 10 12 hvcurveto
          24 20 rlineto
          12 10 12 10 30 vvcurveto
          280 vlineto
          30 -12 10 -12 10 vhcurveto
          -24 20 rlineto
          10 -12 -12 10 -24 hhcurveto
          hintmask 10110110
          -226 hlineto
          endchar
        </CharString>
        <CharString name="foundryicon">
          1141 -275 36 241 36 -30 39 -29 32 519 17 hstemhm
          59 131 117 107 -63 111 58 103 60 94 47 91 19 102 44 42 23 90 43 99 49 114 51 65 21 14 hintmask 110011011110011110000000
          612 397 rmoveto
          -26 28 -56 23 -35 -4 12 -75 29 -152 -27 -124 -2 -7 -4 -16 -15 -4 -29 92 0 103 6 108 -26 24 -49 9 -20 4 rrcurveto
          -12 -23 -7 -34 -50 vvcurveto
          -53 4 -54 14 -46 vhcurveto
          -15 -33 -32 -58 -52 -17 -127 91 47 405 66 61 17 -21 21 -84 -9 -53 rrcurveto
          hintmask 000110000101000000000000
          -2 -6 0 -10 12 13 rrcurveto
          37 32 26 40 48 vvcurveto
          125 -91 22 -60 13 vhcurveto
          -110 -96 -39 -165 1 -163 rrcurveto
          -142 3 60 -146 152 hhcurveto
          67 33 48 40 14 hvcurveto
          -43 21 33 -29 48 hhcurveto
          13 12 10 8 5 hvcurveto
          -16 -132 -2 -89 -83 -54 rrcurveto
          hintmask 001000000000000101000000
          -10 37 7 52 5 38 rrcurveto
          27 -27 -40 10 -32 hhcurveto
          -8 -27 -7 -30 -32 vvcurveto
          -72 18 -39 70 199 56 353 319 -38 vhcurveto
          16 18 rmoveto
          43 -105 5 -178 7 -119 rrcurveto
          hintmask 001000000000011110000000
          45 -8 27 31 12 41 rrcurveto
          10 29 0 55 34 vvcurveto
          9 37 28 27 10 27 8 -54 32 -21 56 15 -9 48 4 66 9 48 -14 25 -39 12 -42 4 rrcurveto
          -7 -16 -8 -30 -18 vvcurveto
          -9 -27 -15 -30 -23 -43 -4 53 -13 38 -15 27 -11 13 -15 8 -17 3 rrcurveto
          hintmask 000100000000010000000000
          -16 4 -21 3 -27 1 rrcurveto
          hintmask 000110000000100000000000
          618 -360 rmoveto
          -27 84 29 151 30 37 -3 -37 -1 -92 18 -73 -2 -28 -28 -28 -16 -14 rrcurveto
          294 206 rmoveto
          5 104 20 120 20 81 15 -80 -15 -160 -45 -65 rrcurveto
          hintmask 000100000000011110000000
          -477 76 rmoveto
          7 -14 10 -29 -29 vvcurveto
          -49 -14 -58 -30 -4 vhcurveto
          63 9 65 18 55 vhcurveto
          143 323 rmoveto
          0 1 0 -1 1 vhcurveto
          -17 hlineto
          hintmask 100100011001100000000000
          4 19 rlineto
          0 3 1 -4 vhcurveto
          -17 -6 rlineto
          5 -8 -9 1 -10 hhcurveto
          -25 -25 -17 -29 -8 hvcurveto
          -15 -15 -95 -15 -96 -18 rrcurveto
          -19 -118 10 3 -2 hvcurveto
          -5 -2 -6 -4 5 hvcurveto
          26 -24 65 3 19 -17 40 -48 48 -47 54 -11 4 -14 6 -14 6 -12 -11 1 -12 0 -12 -1 rrcurveto
          hintmask 010001011000000000000000
          -25 -41 -15 -86 -2 -73 rrcurveto
          -97 -6 36 -91 104 hhcurveto
          44 4 29 31 17 27 rrcurveto
          -36 10 28 -26 52 hhcurveto
          26 3 34 21 7 28 rrcurveto
          -28 12 30 -34 38 hhcurveto
          33 24 30 31 8 hvcurveto
          -39 23 36 -22 49 hhcurveto
          108 20 132 78 -5 hvcurveto
          -4 -3 1 -3 -7 hvcurveto
          -21 -85 -32 -54 -40 -30 rrcurveto
          hintmask 100000100000000000000000
          -29 42 -13 56 69 vvcurveto
          74 34 40 138 115 vvcurveto
          121 -32 52 -117 19 vhcurveto
          -79 -142 -23 -249 38 -185 3 -14 rcurveline
          hintmask 100100011001100000000000
          -9 -16 -22 -45 -19 5 rrcurveto
          hintmask 000010000110000000000000
          -29 99 9 162 15 105 -15 16 -51 21 -22 -6 -8 -6 -11 -55 -3 -10 rrcurveto
          8 -21 -27 5 -23 hhcurveto
          -46 -49 -16 -67 -3 -72 rrcurveto
          -53 vlineto
          -13 -32 -22 -47 -39 -16 -19 12 -7 28 -7 28 rrcurveto
          55 17 29 76 68 vvcurveto
          59 -22 37 -36 18 vhcurveto
          -1 1 0 0 1 vvcurveto
          -8 14 -9 18 -9 18 94 15 31 122 30 61 rrcurveto
          -143 -244 rmoveto
          -9 3 -9 1 -10 2 -12 39 rcurveline
          15 hlineto
          7 -17 9 -16 9 -12 rrcurveto
          endchar
        </CharString>
        <CharString name="four">
          53 21 -21 160 70 470 -20 hstem
          55 86 268 84 vstem
          409 430 rmoveto
          -200 -268 4 vlineto
          6 3 4 5 7 11 333 447 rcurveline
          -94 hlineto
          -342 -458 rlineto
          -82 354 -160 84 160 96 70 -96 200 vlineto
          endchar
        </CharString>
        <CharString name="foursuperior">
          -238 420 55 225 -20 hstem
          220 60 vstem
          276 700 rmoveto
          -74 hlineto
          -164 -234 rlineto
          -46 182 -75 60 75 48 55 -48 90 -60 -90 -110 vlineto
          endchar
        </CharString>
        <CharString name="fraction">
          6 -46 762 hstem
          28 561 vstem
          516 716 rmoveto
          -488 -762 rlineto
          69 hlineto
          492 762 rlineto
          endchar
        </CharString>
        <CharString name="g">
          -25 -260 70 190 70 -22 22 360 30 -30 70 hstemhm
          60 84 264 84 hintmask 11001110
          193 70 rmoveto
          -24 -1 0 10 -12 hvcurveto
          -12 10 0 1 20 vvcurveto
          278 vlineto
          20 0 1 12 10 vhcurveto
          10 12 1 0 24 hhcurveto
          142 hlineto
          24 1 0 -15 24 hvcurveto
          24 -15 0 -1 -20 vvcurveto
          -249 vlineto
          -20 -12 -10 -12 -10 vhcurveto
          -10 -12 -12 -10 -24 hhcurveto
          -214 -260 rmoveto
          -18 -13 0 -1 -30 vvcurveto
          -26 292 vlineto
          24 12 10 10 12 hvcurveto
          24 20 rlineto
          12 10 12 10 30 vvcurveto
          559 vlineto
          20 0 1 12 10 vhcurveto
          12 10 0 1 20 vvcurveto
          49 -35 vlineto
          -24 -4 -2 -13 -15 hvcurveto
          hintmask 11010110
          -11 -9 -5 -6 -10 vvcurveto
          -4 hlineto
          hintmask 11001110
          10 -10 8 -12 7 vhcurveto
          15 -24 -1 0 -24 hhcurveto
          -191 hlineto
          -24 -12 -10 -10 -12 hvcurveto
          -24 -20 rlineto
          -12 -10 -12 -10 -30 vvcurveto
          -320 vlineto
          -30 12 -10 12 -10 vhcurveto
          24 -20 rlineto
          -10 12 12 -10 24 hhcurveto
          176 hlineto
          24 12 10 10 12 hvcurveto
          hintmask 10101110
          7 6 15 13 2 9 rrcurveto
          4 -197 hlineto
          -20 0 -1 -12 -10 vhcurveto
          -10 -12 -1 0 -24 hhcurveto
          endchar
        </CharString>
        <CharString name="germandbls">
          -43 -239 -21 260 70 258 64 238 70 hstemhm
          60 84 258 84 -72 84 hintmask 11111010
          hintmask 11111100
          451 350 rmoveto
          5 -6 -14 8 -8 hhcurveto
          5 vlineto
          8 14 8 5 6 hvcurveto
          11 9 rlineto
          12 10 12 10 30 vvcurveto
          170 vlineto
          30 -12 10 -12 10 vhcurveto
          -24 20 rlineto
          10 -12 -12 10 -24 hhcurveto
          -234 hlineto
          -24 -12 -10 -10 -12 hvcurveto
          -24 -20 rlineto
          -12 -10 -12 -10 -30 vvcurveto
          -870 84 849 vlineto
          20 0 1 12 10 vhcurveto
          10 12 1 0 24 hhcurveto
          160 hlineto
          24 1 0 -10 12 hvcurveto
          12 -10 0 -1 -20 vvcurveto
          -138 vlineto
          -24 -5 -4 -18 -15 vhcurveto
          -9 -12 -9 -7 -23 hhcurveto
          -137 -64 hlineto
          hintmask 11111010
          150 hlineto
          11 22 -7 -10 11 hvcurveto
          12 -10 10 -8 -24 vvcurveto
          -158 vlineto
          -20 0 -1 -12 -10 vhcurveto
          -10 -12 -1 0 -24 hhcurveto
          -167 -70 216 hlineto
          24 11 10 10 9 hvcurveto
          20 20 rlineto
          10 10 10 10 30 vvcurveto
          190 vlineto
          30 -12 10 -12 10 vhcurveto
          endchar
        </CharString>
        <CharString name="grave">
          -271 550 159 hstem
          75 180 vstem
          229 550 rmoveto
          26 40 -137 119 -43 -63 rlineto
          endchar
        </CharString>
        <CharString name="grave.case">
          -271 733 137 hstem
          60 195 vstem
          236 733 rmoveto
          19 40 -162 97 -33 -66 rlineto
          endchar
        </CharString>
        <CharString name="greater">
          -85 105 503 hstem
          392 69 vstem
          55 524 rmoveto
          292 -149 rlineto
          -10 22 11 -5 12 hhcurveto
          -4 vlineto
          -13 -18 -9 -6 -14 hvcurveto
          -292 -153 rlineto
          -83 vlineto
          406 212 rlineto
          74 vlineto
          -406 217 rlineto
          endchar
        </CharString>
        <CharString name="guillemotleft">
          -79 501 -20 hstem
          65 392 vstem
          231 541 rmoveto
          -166 -268 166 -268 53 40 -144 228 144 228 rlineto
          120 40 rmoveto
          -166 -268 166 -268 53 40 -144 228 144 228 rlineto
          endchar
        </CharString>
        <CharString name="guillemotright">
          -79 501 -20 hstem
          65 392 vstem
          238 501 rmoveto
          144 -228 -144 -228 53 -40 166 268 -166 268 rlineto
          -226 -40 rmoveto
          144 -228 -144 -228 53 -40 166 268 -166 268 rlineto
          endchar
        </CharString>
        <CharString name="guilsinglleft">
          -252 501 -20 hstem
          65 219 vstem
          231 541 rmoveto
          -166 -268 166 -268 53 40 -144 228 144 228 rlineto
          endchar
        </CharString>
        <CharString name="guilsinglright">
          -252 501 -20 hstem
          65 219 vstem
          65 501 rmoveto
          144 -228 -144 -228 53 -40 166 268 -166 268 rlineto
          endchar
        </CharString>
        <CharString name="h">
          -62 21 -21 430 23 -23 70 hstemhm
          60 84 251 84 hintmask 10111000
          208 500 rmoveto
          -12 -13 -8 -11 -13 hvcurveto
          hintmask 11011000
          -8 -7 -14 -12 -9 vvcurveto
          -4 287 -84 -740 84 hlineto
          hintmask 10111000
          379 vlineto
          20 0 1 24 15 vhcurveto
          15 24 1 0 25 hhcurveto
          128 hlineto
          24 1 0 -10 12 hvcurveto
          12 -10 0 -1 -20 vvcurveto
          -389 84 410 vlineto
          30 -12 10 -12 10 vhcurveto
          -24 20 rlineto
          10 -12 -12 10 -24 hhcurveto
          endchar
        </CharString>
        <CharString name="hyphen">
          -99 294 65 hstem
          60 382 vstem
          442 359 rmoveto
          -382 -65 382 hlineto
          endchar
        </CharString>
        <CharString name="i">
          -389 21 -21 500 -20 124 96 hstemhm
          55 102 -93 84 hintmask 11101000
          148 hmoveto
          500 -84 -500 vlineto
          hintmask 11110000
          93 656 rmoveto
          25 0 1 -10 10 vhcurveto
          8 -9 -2 0 -28 hhcurveto
          -4 hlineto
          -29 -1 0 -8 -8 hvcurveto
          -11 -10 0 -1 -25 vvcurveto
          -8 vlineto
          -25 0 -2 10 -9 vhcurveto
          -8 9 1 0 29 hhcurveto
          5 hlineto
          27 2 0 8 8 hvcurveto
          11 9 0 2 25 vvcurveto
          endchar
        </CharString>
        <CharString name="iacute">
          21 -21 500 -20 hstem
          60 84 vstem
          144 hmoveto
          500 -84 -500 vlineto
          172 646 rmoveto
          -43 63 -137 -119 26 -40 rlineto
          endchar
        </CharString>
        <CharString name="icircumflex">
          21 -21 500 -20 169 51 hstem
          60 84 vstem
          144 hmoveto
          500 -84 -500 vlineto
          107 567 rmoveto
          60 19 -99 114 rlineto
          -53 hlineto
          -97 -114 59 -19 58 70 rlineto
          4 5 1 3 4 vvcurveto
          4 hlineto
          -4 1 -3 4 -5 vhcurveto
          endchar
        </CharString>
        <CharString name="idieresis">
          21 -21 500 -20 106 92 hstemhm
          -26 96 -10 84 -10 96 hintmask 11101000
          144 hmoveto
          500 -84 -500 vlineto
          hintmask 11110100
          10 636 rmoveto
          25 0 1 -8 7 vhcurveto
          9 -9 -3 0 -30 hhcurveto
          -27 -1 0 -9 -8 hvcurveto
          -9 -10 -1 -1 -22 vvcurveto
          -8 vlineto
          -22 1 -3 9 -8 vhcurveto
          -8 9 2 -1 25 hhcurveto
          5 hlineto
          24 3 0 9 9 hvcurveto
          9 7 0 1 25 vvcurveto
          160 8 rmoveto
          25 0 1 -8 7 vhcurveto
          9 -9 -3 0 -30 hhcurveto
          -27 -1 0 -9 -8 hvcurveto
          -9 -10 -1 -1 -22 vvcurveto
          -8 vlineto
          -22 1 -3 9 -8 vhcurveto
          -8 9 2 -1 25 hhcurveto
          5 hlineto
          24 3 0 9 9 hvcurveto
          9 7 0 1 25 vvcurveto
          endchar
        </CharString>
        <CharString name="igrave">
          21 -21 500 -20 hstem
          60 84 vstem
          144 hmoveto
          500 -84 -500 vlineto
          66 550 rmoveto
          26 40 -137 119 -43 -63 rlineto
          endchar
        </CharString>
        <CharString name="j">
          -396 -200 70 630 -20 124 96 hstemhm
          51 102 -92 84 hintmask 11101000
          145 500 rmoveto
          -84 -589 hlineto
          -20 0 -1 -12 -10 vhcurveto
          -10 -12 1 0 -25 hhcurveto
          -18 -13 0 -1 -30 vvcurveto
          -26 54 vlineto
          24 12 10 10 12 hvcurveto
          24 20 rlineto
          12 10 12 10 30 vvcurveto
          hintmask 11110000
          8 766 rmoveto
          25 0 1 -10 10 vhcurveto
          8 -9 -2 0 -28 hhcurveto
          -4 hlineto
          -29 -1 0 -8 -8 hvcurveto
          -11 -10 0 -1 -25 vvcurveto
          -8 vlineto
          -25 0 -2 10 -9 vhcurveto
          -8 9 1 0 29 hhcurveto
          5 hlineto
          27 2 0 8 8 hvcurveto
          11 9 0 2 25 vvcurveto
          endchar
        </CharString>
        <CharString name="k">
          -101 21 -21 215 70 215 -20 hstem
          60 84 vstem
          60 hmoveto
          84 215 85 hlineto
          133 -215 rlineto
          93 hlineto
          -146 227 -6 9 -8 12 -9 2 rlinecurve
          4 vlineto
          10 6 4 7 4 6 65 101 rcurveline
          15 22 1 2 21 13 11 6 rcurveline
          24 13 0 1 30 vvcurveto
          39 -20 vlineto
          -24 -1 0 -15 -22 hvcurveto
          -19 -13 -21 -15 -2 -3 -14 -22 rlinecurve
          -90 -147 rlineto
          -84 455 -84 hlineto
          endchar
        </CharString>
        <CharString name="l">
          -353 21 -21 hstem
          65 84 vstem
          65 740 rmoveto
          -666 vlineto
          -30 0 -1 20 -14 vhcurveto
          22 -15 rlineto
          -14 20 1 0 25 hhcurveto
          30 39 hlineto
          30 0 1 -18 13 vhcurveto
          -16 11 0 1 30 vvcurveto
          615 vlineto
          endchar
        </CharString>
        <CharString name="less">
          -85 105 503 hstem
          55 69 vstem
          461 608 rmoveto
          -406 -217 rlineto
          -74 vlineto
          406 -212 rlineto
          83 vlineto
          -292 153 rlineto
          6 -14 -18 9 -13 hhcurveto
          4 vlineto
          12 11 5 10 22 hvcurveto
          292 149 rlineto
          endchar
        </CharString>
        <CharString name="logicalnot">
          -101 294 65 hstem
          375 65 vstem
          60 359 rmoveto
          -65 315 -107 65 172 vlineto
          endchar
        </CharString>
        <CharString name="m">
          250 21 -21 430 30 -30 70 hstemhm
          84 84 223 84 232 84 hintmask 10111100
          449 452 rmoveto
          -1 7 -10 11 -11 10 rrcurveto
          11 -13 -11 9 -24 hhcurveto
          -150 hlineto
          -24 -1 0 -15 -24 hvcurveto
          hintmask 11011100
          -12 -7 -10 -8 -10 vvcurveto
          -4 hlineto
          hintmask 10111100
          10 -5 6 -11 9 vhcurveto
          13 -15 -4 2 -24 hhcurveto
          -35 -49 hlineto
          -20 0 -1 12 -10 vhcurveto
          12 -10 0 -1 -20 vvcurveto
          -389 84 379 vlineto
          20 0 1 24 15 vhcurveto
          15 24 1 0 24 hhcurveto
          101 hlineto
          24 1 0 -10 12 hvcurveto
          12 -10 0 -1 -20 vvcurveto
          -389 84 389 vlineto
          1 10 4 4 19 12 rrcurveto
          15 24 1 0 24 hhcurveto
          110 hlineto
          24 1 0 -10 12 hvcurveto
          12 -10 0 -1 -20 vvcurveto
          -389 84 410 vlineto
          30 -12 10 -12 10 vhcurveto
          -24 20 rlineto
          10 -12 -12 10 -24 hhcurveto
          -159 hlineto
          -24 -1 0 -15 -24 hvcurveto
          -15 -11 -8 -6 -10 -8 -1 -8 rlinecurve
          endchar
        </CharString>
        <CharString name="macron">
          -73 635 65 hstem
          0 528 vstem
          528 700 rmoveto
          -528 -65 528 hlineto
          endchar
        </CharString>
        <CharString name="minus">
          -63 294 65 hstem
          60 418 vstem
          60 359 rmoveto
          -65 418 65 vlineto
          endchar
        </CharString>
        <CharString name="mu">
          -45 -239 -21 260 70 -50 50 430 -20 hstemhm
          60 84 244 84 hintmask 11011100
          327 hmoveto
          24 1 0 15 24 hvcurveto
          hintmask 10111100
          12 7 10 8 10 vvcurveto
          4 hlineto
          hintmask 11011100
          -10 5 -6 11 -9 vhcurveto
          -13 15 4 -2 24 hhcurveto
          35 49 hlineto
          20 0 1 -12 10 vhcurveto
          -12 10 0 1 20 vvcurveto
          389 -84 -379 vlineto
          -20 0 -1 -24 -15 vhcurveto
          -15 -24 -1 0 -24 hhcurveto
          -122 hlineto
          -24 -1 0 10 -12 hvcurveto
          -12 10 0 1 20 vvcurveto
          389 -84 -760 80 vlineto
          hintmask 10111100
          280 4 vlineto
          hintmask 11011100
          -10 12 12 -10 24 hhcurveto
          endchar
        </CharString>
        <CharString name="multiply">
          -63 155 341 hstem
          98 342 vstem
          145 155 rmoveto
          124 124 124 -124 46 46 -124 124 125 125 -46 46 -125 -125 -125 125 -46 -46 125 -125 -124 -124 rlineto
          endchar
        </CharString>
        <CharString name="n">
          -39 21 -21 430 30 -30 70 hstemhm
          84 84 250 84 hintmask 10111000
          60 500 rmoveto
          -49 vlineto
          -20 0 -1 12 -10 vhcurveto
          12 -10 0 -1 -20 vvcurveto
          -389 84 379 vlineto
          20 0 1 24 15 vhcurveto
          15 24 1 0 24 hhcurveto
          128 hlineto
          24 1 0 -10 12 hvcurveto
          12 -10 0 -1 -20 vvcurveto
          -389 84 410 vlineto
          30 -12 10 -12 10 vhcurveto
          -24 20 rlineto
          10 -12 -12 10 -24 hhcurveto
          -177 hlineto
          -24 -1 0 -15 -24 hvcurveto
          hintmask 11011000
          -12 -7 -10 -8 -10 vvcurveto
          -4 hlineto
          hintmask 10111000
          10 -5 6 -11 9 vhcurveto
          13 -15 -4 2 -24 hhcurveto
          endchar
        </CharString>
        <CharString name="nbspace">
          -351 endchar
        </CharString>
        <CharString name="nine">
          85 0 70 200 70 290 70 hstemhm
          85 84 -74 84 338 84 hintmask 11110100
          hintmask 11101100
          95 130 rmoveto
          -40 vlineto
          -30 12 -10 12 -10 vhcurveto
          24 -20 rlineto
          -10 12 12 -10 24 hhcurveto
          314 hlineto
          24 12 10 10 12 hvcurveto
          24 20 rlineto
          12 10 12 10 30 vvcurveto
          520 vlineto
          30 -12 10 -12 10 vhcurveto
          -24 20 rlineto
          10 -12 -12 10 -24 hhcurveto
          hintmask 11110100
          -324 hlineto
          -24 -12 -10 -10 -12 hvcurveto
          -24 -20 rlineto
          -12 -10 -12 -10 -30 vvcurveto
          -250 vlineto
          -30 12 -10 12 -10 vhcurveto
          24 -20 rlineto
          -10 12 12 -10 24 hhcurveto
          272 hlineto
          18 19 17 18 18 hvcurveto
          5 5 rlineto
          4 -199 hlineto
          -20 0 -1 -12 -10 vhcurveto
          -10 -12 -1 0 -24 hhcurveto
          hintmask 11101100
          -240 hlineto
          -24 -1 0 10 -12 hvcurveto
          -12 10 0 1 20 vvcurveto
          19 vlineto
          hintmask 11110100
          -10 459 rmoveto
          20 0 1 12 10 vhcurveto
          10 12 1 0 24 hhcurveto
          250 hlineto
          24 1 0 -10 12 hvcurveto
          12 -10 0 -1 -20 vvcurveto
          -209 vlineto
          -1 -10 -4 -3 -19 -12 rrcurveto
          -15 -24 -1 0 -25 hhcurveto
          -225 hlineto
          -24 -1 0 10 -12 hvcurveto
          -12 10 0 1 20 vvcurveto
          endchar
        </CharString>
        <CharString name="noBreak">
          -601 endchar
        </CharString>
        <CharString name="nonmarkingreturn">
          -601 endchar
        </CharString>
        <CharString name="ntilde">
          -39 21 -21 430 30 -30 70 61 62 -27 61 hstemhm
          84 84 250 84 hintmask 10101110
          60 500 rmoveto
          -49 vlineto
          -20 0 -1 12 -10 vhcurveto
          12 -10 0 -1 -20 vvcurveto
          -389 84 379 vlineto
          20 0 1 24 15 vhcurveto
          15 24 1 0 24 hhcurveto
          128 hlineto
          24 1 0 -10 12 hvcurveto
          12 -10 0 -1 -20 vvcurveto
          -389 84 410 vlineto
          30 -12 10 -12 10 vhcurveto
          -24 20 rlineto
          10 -12 -12 10 -24 hhcurveto
          -177 hlineto
          -24 -1 0 -15 -24 hvcurveto
          hintmask 11001110
          -12 -7 -10 -8 -10 vvcurveto
          -4 hlineto
          hintmask 10101110
          10 -5 6 -11 9 vhcurveto
          13 -15 -4 2 -24 hhcurveto
          33 112 rmoveto
          27 -51 47 25 rlineto
          10 19 1 0 9 hhcurveto
          hintmask 10110110
          24 43 -35 32 hhcurveto
          8 11 3 3 5 hvcurveto
          79 40 -27 51 -62 -32 rlineto
          -2 -5 -5 -1 -3 hhcurveto
          hintmask 10101110
          -20 -53 34 -27 hhcurveto
          -8 -11 -3 -3 -5 hvcurveto
          endchar
        </CharString>
        <CharString name="numbersign">
          20 236 60 100 60 hstem
          55 511 vstem
          376 456 rmoveto
          -103 hlineto
          27 184 rlineto
          -60 hlineto
          -27 -184 rlineto
          -127 hlineto
          -9 -60 rlineto
          127 hlineto
          -15 -100 rlineto
          -125 hlineto
          -9 -60 rlineto
          125 hlineto
          -28 -196 rlineto
          60 hlineto
          28 196 rlineto
          103 hlineto
          -28 -196 rlineto
          60 hlineto
          28 196 rlineto
          132 hlineto
          9 60 rlineto
          -132 hlineto
          15 100 rlineto
          130 hlineto
          9 60 rlineto
          -130 hlineto
          27 184 rlineto
          -60 hlineto
          -139 -244 rmoveto
          103 hlineto
          -15 -100 rlineto
          -103 hlineto
          endchar
        </CharString>
        <CharString name="o">
          -47 0 70 360 70 hstem
          61 84 264 84 vstem
          157 500 rmoveto
          -24 -12 -10 -10 -12 hvcurveto
          -24 -20 rlineto
          -12 -10 -12 -10 -30 vvcurveto
          -320 vlineto
          -30 12 -10 12 -10 vhcurveto
          24 -20 rlineto
          -10 12 12 -10 24 hhcurveto
          240 hlineto
          24 12 10 10 12 hvcurveto
          24 20 rlineto
          12 10 12 10 30 vvcurveto
          320 vlineto
          30 -12 10 -12 10 vhcurveto
          -24 20 rlineto
          10 -12 -12 10 -24 hhcurveto
          12 -389 rmoveto
          -20 0 -1 -12 -10 vhcurveto
          -10 -12 -1 0 -24 hhcurveto
          -166 hlineto
          -24 -1 0 10 -12 hvcurveto
          -12 10 0 1 20 vvcurveto
          278 vlineto
          20 0 1 12 10 vhcurveto
          10 12 1 0 24 hhcurveto
          166 hlineto
          24 1 0 -10 12 hvcurveto
          12 -10 0 -1 -20 vvcurveto
          endchar
        </CharString>
        <CharString name="oacute">
          -47 0 70 360 70 hstem
          61 84 264 84 vstem
          157 500 rmoveto
          -24 -12 -10 -10 -12 hvcurveto
          -24 -20 rlineto
          -12 -10 -12 -10 -30 vvcurveto
          -320 vlineto
          -30 12 -10 12 -10 vhcurveto
          24 -20 rlineto
          -10 12 12 -10 24 hhcurveto
          240 hlineto
          24 12 10 10 12 hvcurveto
          24 20 rlineto
          12 10 12 10 30 vvcurveto
          320 vlineto
          30 -12 10 -12 10 vhcurveto
          -24 20 rlineto
          10 -12 -12 10 -24 hhcurveto
          12 -389 rmoveto
          -20 0 -1 -12 -10 vhcurveto
          -10 -12 -1 0 -24 hhcurveto
          -166 hlineto
          -24 -1 0 10 -12 hvcurveto
          -12 10 0 1 20 vvcurveto
          278 vlineto
          20 0 1 12 10 vhcurveto
          10 12 1 0 24 hhcurveto
          166 hlineto
          24 1 0 -10 12 hvcurveto
          12 -10 0 -1 -20 vvcurveto
          -12 257 rmoveto
          -43 63 -137 -119 26 -40 rlineto
          endchar
        </CharString>
        <CharString name="ocircumflex">
          -47 500 86 63 51 hstem
          145 264 vstem
          397 500 rmoveto
          24 12 -10 -10 12 hvcurveto
          24 -20 rlineto
          12 -10 12 -10 -30 vvcurveto
          -320 vlineto
          -30 -12 -10 -12 -10 vhcurveto
          -24 -20 rlineto
          -10 -12 -12 -10 -24 hhcurveto
          -240 hlineto
          -24 -12 10 10 -12 hvcurveto
          -24 20 rlineto
          -12 10 -12 10 30 vvcurveto
          320 vlineto
          30 12 10 12 10 vhcurveto
          24 20 rlineto
          10 12 12 10 24 hhcurveto
          252 -111 rmoveto
          20 0 1 -12 10 vhcurveto
          10 -12 -1 0 -24 hhcurveto
          -166 hlineto
          -24 -1 0 -10 -12 hvcurveto
          -12 -10 0 -1 -20 vvcurveto
          -278 vlineto
          -20 0 -1 12 -10 vhcurveto
          -10 12 1 0 24 hhcurveto
          166 hlineto
          24 1 0 10 12 hvcurveto
          12 10 0 1 20 vvcurveto
          -68 456 rmoveto
          60 19 -99 114 rlineto
          -53 hlineto
          -97 -114 59 -19 58 70 rlineto
          4 5 1 3 4 vvcurveto
          4 hlineto
          -4 1 -3 4 -5 vhcurveto
          endchar
        </CharString>
        <CharString name="odieresis">
          -47 0 70 360 70 86 92 hstemhm
          61 84 4 96 64 96 4 84 hintmask 11110010
          157 500 rmoveto
          -24 -12 -10 -10 -12 hvcurveto
          -24 -20 rlineto
          -12 -10 -12 -10 -30 vvcurveto
          -320 vlineto
          -30 12 -10 12 -10 vhcurveto
          24 -20 rlineto
          -10 12 12 -10 24 hhcurveto
          240 hlineto
          24 12 10 10 12 hvcurveto
          24 20 rlineto
          12 10 12 10 30 vvcurveto
          320 vlineto
          30 -12 10 -12 10 vhcurveto
          -24 20 rlineto
          10 -12 -12 10 -24 hhcurveto
          12 -389 rmoveto
          -20 0 -1 -12 -10 vhcurveto
          -10 -12 -1 0 -24 hhcurveto
          -166 hlineto
          -24 -1 0 10 -12 hvcurveto
          -12 10 0 1 20 vvcurveto
          278 vlineto
          20 0 1 12 10 vhcurveto
          10 12 1 0 24 hhcurveto
          166 hlineto
          24 1 0 -10 12 hvcurveto
          12 -10 0 -1 -20 vvcurveto
          hintmask 11101100
          -164 247 rmoveto
          25 0 1 -8 7 vhcurveto
          9 -9 -3 0 -30 hhcurveto
          -27 -1 0 -9 -8 hvcurveto
          -9 -10 -1 -1 -22 vvcurveto
          -8 vlineto
          -22 1 -3 9 -8 vhcurveto
          -8 9 2 -1 25 hhcurveto
          5 hlineto
          24 3 0 9 9 hvcurveto
          9 7 0 1 25 vvcurveto
          160 8 rmoveto
          25 0 1 -8 7 vhcurveto
          9 -9 -3 0 -30 hhcurveto
          -27 -1 0 -9 -8 hvcurveto
          -9 -10 -1 -1 -22 vvcurveto
          -8 vlineto
          -22 1 -3 9 -8 vhcurveto
          -8 9 2 -1 25 hhcurveto
          5 hlineto
          24 3 0 9 9 hvcurveto
          9 7 0 1 25 vvcurveto
          endchar
        </CharString>
        <CharString name="oe">
          294 0 70 135 65 160 70 hstem
          61 84 264 84 258 84 vstem
          157 500 rmoveto
          -24 -12 -10 -10 -12 hvcurveto
          -24 -20 rlineto
          -12 -10 -12 -10 -30 vvcurveto
          -320 vlineto
          -30 12 -10 12 -10 vhcurveto
          24 -20 rlineto
          -10 12 12 -10 24 hhcurveto
          240 hlineto
          24 14 10 12 10 hvcurveto
          4 5 rlineto
          4 hlineto
          4 -5 rlineto
          -12 10 14 -10 24 hhcurveto
          267 hlineto
          24 1 0 20 24 hvcurveto
          24 20 -60 50 rlineto
          -20 -24 -1 0 -24 hhcurveto
          -194 hlineto
          -24 -1 0 10 -12 hvcurveto
          -12 10 0 1 20 vvcurveto
          94 342 205 vlineto
          30 -11 10 -13 10 vhcurveto
          -25 20 rlineto
          10 -14 -15 10 -19 hhcurveto
          -233 hlineto
          -24 -14 -10 -12 -10 hvcurveto
          -4 -5 rlineto
          -4 hlineto
          -4 5 rlineto
          12 -10 -14 10 -24 hhcurveto
          12 -389 rmoveto
          -20 0 -1 -12 -10 vhcurveto
          -10 -12 -1 0 -24 hhcurveto
          -166 hlineto
          -24 -1 0 10 -12 hvcurveto
          -12 10 0 1 20 vvcurveto
          278 vlineto
          20 0 1 12 10 vhcurveto
          10 12 1 0 24 hhcurveto
          166 hlineto
          24 1 0 -10 12 hvcurveto
          9 -8 2 -2 1 -9 rrcurveto
          342 -131 rmoveto
          -258 119 hlineto
          20 0 1 12 10 vhcurveto
          10 12 1 0 24 hhcurveto
          160 hlineto
          24 1 0 -10 12 hvcurveto
          12 -10 0 -1 -20 vvcurveto
          endchar
        </CharString>
        <CharString name="ograve">
          -47 0 70 360 70 hstem
          61 84 264 84 vstem
          157 500 rmoveto
          -24 -12 -10 -10 -12 hvcurveto
          -24 -20 rlineto
          -12 -10 -12 -10 -30 vvcurveto
          -320 vlineto
          -30 12 -10 12 -10 vhcurveto
          24 -20 rlineto
          -10 12 12 -10 24 hhcurveto
          240 hlineto
          24 12 10 10 12 hvcurveto
          24 20 rlineto
          12 10 12 10 30 vvcurveto
          320 vlineto
          30 -12 10 -12 10 vhcurveto
          -24 20 rlineto
          10 -12 -12 10 -24 hhcurveto
          12 -389 rmoveto
          -20 0 -1 -12 -10 vhcurveto
          -10 -12 -1 0 -24 hhcurveto
          -166 hlineto
          -24 -1 0 10 -12 hvcurveto
          -12 10 0 1 20 vvcurveto
          278 vlineto
          20 0 1 12 10 vhcurveto
          10 12 1 0 24 hhcurveto
          166 hlineto
          24 1 0 -10 12 hvcurveto
          12 -10 0 -1 -20 vvcurveto
          -98 161 rmoveto
          26 40 -137 119 -43 -63 rlineto
          endchar
        </CharString>
        <CharString name="one">
          -218 21 -21 647 53 hstem
          230 78 vstem
          97 498 rmoveto
          133 149 3 -3 rlineto
          -3 -6 0 -7 -13 vvcurveto
          -618 78 700 -117 vlineto
          -141 -153 rlineto
          endchar
        </CharString>
        <CharString name="onehalf">
          175 0 55 250 55 hstemhm
          121 57 268 60 -52 65 108 66 hintmask 11110100
          563 716 rmoveto
          -488 -762 rlineto
          69 hlineto
          492 762 rlineto
          -556 -85 rmoveto
          63 69 rlineto
          99 -360 -64 313 hlineto
          -57 -62 rlineto
          hintmask 11101100
          333 -591 rmoveto
          247 55 -182 hlineto
          5 4 5 4 4 vhcurveto
          154 121 rlineto
          10 9 2 5 11 vvcurveto
          95 vlineto
          15 -5 7 -9 7 vhcurveto
          -12 10 rlineto
          7 -9 -7 4 -11 hhcurveto
          hintmask 11110100
          -142 hlineto
          -14 -6 -7 -4 -6 hvcurveto
          -13 -10 rlineto
          -7 -6 -6 -5 -18 vvcurveto
          -35 60 14 vlineto
          7 0 1 5 4 vhcurveto
          4 5 1 0 10 hhcurveto
          79 hlineto
          10 1 0 -4 5 hvcurveto
          5 -4 0 -1 -7 vvcurveto
          -59 vlineto
          -7 -3 -4 -5 -5 vhcurveto
          hintmask 11101100
          -155 -130 rlineto
          -10 -9 0 -1 -16 vvcurveto
          endchar
        </CharString>
        <CharString name="onequarter">
          168 0 130 -55 55 hstemhm
          116 57 408 60 hintmask 10110000
          564 716 rmoveto
          -488 -762 rlineto
          69 hlineto
          492 762 rlineto
          -562 -85 rmoveto
          63 69 rlineto
          99 -360 -64 313 hlineto
          -57 -62 rlineto
          521 -236 rmoveto
          -74 hlineto
          hintmask 01110000
          -164 -234 rlineto
          -46 182 vlineto
          hintmask 10110000
          -75 60 vlineto
          hintmask 01110000
          75 48 vlineto
          hintmask 10110000
          55 -48 90 -60 -90 -110 vlineto
          endchar
        </CharString>
        <CharString name="onesuperior">
          -331 653 47 hstem
          151 64 vstem
          94 591 rmoveto
          57 62 rlineto
          -313 64 360 -99 vlineto
          -63 -69 rlineto
          endchar
        </CharString>
        <CharString name="ordfeminine">
          -166 346 57 106 50 84 57 -28 28 hstemhm
          61 65 170 70 hintmask 11101100
          315 376 rmoveto
          2 -6 5 -5 6 -6 rrcurveto
          -12 12 1 -1 18 hhcurveto
          23 36 hlineto
          14 0 1 -8 7 vhcurveto
          -8 7 0 1 14 vvcurveto
          210 vlineto
          21 -9 8 -8 7 vhcurveto
          -17 14 rlineto
          7 -9 -9 7 -17 hhcurveto
          -172 hlineto
          -17 -2 0 -14 -16 hvcurveto
          hintmask 11011100
          -16 -14 rlineto
          hintmask 11101100
          42 -43 rlineto
          13 16 1 1 18 hhcurveto
          110 hlineto
          19 1 -1 -6 7 hvcurveto
          8 -7 0 -1 -14 vvcurveto
          -76 -3 vlineto
          7 -1 1 -7 6 vhcurveto
          7 -9 -1 0 -17 hhcurveto
          -129 hlineto
          -13 -13 -7 -7 -8 hvcurveto
          -18 -14 rlineto
          -8 -8 -8 -10 -18 vvcurveto
          -85 vlineto
          -21 8 -7 8 -7 vhcurveto
          18 -14 rlineto
          -8 8 8 -7 18 hhcurveto
          133 hlineto
          18 3 1 12 15 hvcurveto
          6 6 4 5 2 6 rrcurveto
          -184 103 rmoveto
          15 0 1 8 7 vhcurveto
          7 8 1 0 17 hhcurveto
          100 hlineto
          18 1 0 -7 9 hvcurveto
          8 -7 0 -1 -15 vvcurveto
          -40 vlineto
          -14 0 -1 -17 -10 vhcurveto
          -11 -16 -2 0 -16 hhcurveto
          -85 hlineto
          -17 -1 0 7 -8 hvcurveto
          -8 7 0 1 14 vvcurveto
          endchar
        </CharString>
        <CharString name="ordmasculine">
          -179 346 57 240 57 hstem
          60 66 170 66 vstem
          109 700 rmoveto
          -12 -6 -5 -5 -6 hvcurveto
          -13 -11 rlineto
          -6 -5 -6 -5 -15 vvcurveto
          -262 vlineto
          -15 6 -5 6 -5 vhcurveto
          13 -11 rlineto
          -5 6 6 -5 12 hhcurveto
          204 hlineto
          12 7 5 5 6 hvcurveto
          12 11 rlineto
          6 5 6 5 15 vvcurveto
          262 vlineto
          15 -6 5 -6 5 vhcurveto
          -12 11 rlineto
          5 -6 -7 5 -12 hhcurveto
          -17 -275 rmoveto
          -11 0 -1 -6 -5 vhcurveto
          -5 -6 -1 0 -12 hhcurveto
          -119 hlineto
          -12 -1 0 5 -7 hvcurveto
          -6 5 0 1 11 vvcurveto
          196 vlineto
          11 0 1 6 5 vhcurveto
          5 7 1 0 12 hhcurveto
          119 hlineto
          12 1 0 -5 6 hvcurveto
          6 -5 0 -1 -11 vvcurveto
          endchar
        </CharString>
        <CharString name="oslash">
          -47 0 70 360 70 -34 34 hstemhm
          61 84 264 84 hintmask 11011000
          157 500 rmoveto
          -24 -12 -10 -10 -12 hvcurveto
          -24 -20 rlineto
          -12 -10 -12 -10 -30 vvcurveto
          -320 vlineto
          -30 12 -10 12 -10 vhcurveto
          9 -8 -58 -82 rlineto
          62 hlineto
          37 53 rlineto
          -2 6 7 -1 9 hhcurveto
          240 hlineto
          24 12 10 10 12 hvcurveto
          24 20 rlineto
          12 10 12 10 30 vvcurveto
          hintmask 10111000
          320 vlineto
          30 -12 10 -12 10 vhcurveto
          -7 6 rlineto
          hintmask 11011000
          59 84 rlineto
          -65 hlineto
          -37 -53 rlineto
          2 -6 -8 1 -8 hhcurveto
          -25 -70 rmoveto
          -227 -325 rlineto
          284 vlineto
          20 0 1 12 10 vhcurveto
          10 12 1 0 24 hhcurveto
          215 -319 rmoveto
          -20 0 -1 -12 -10 vhcurveto
          -10 -12 -1 0 -24 hhcurveto
          -178 hlineto
          227 319 rlineto
          endchar
        </CharString>
        <CharString name="otilde">
          -47 500 123 -27 61 hstemhm
          145 264 hintmask 10100000
          397 500 rmoveto
          24 12 -10 -10 12 hvcurveto
          24 -20 rlineto
          12 -10 12 -10 -30 vvcurveto
          -320 vlineto
          -30 -12 -10 -12 -10 vhcurveto
          -24 -20 rlineto
          -10 -12 -12 -10 -24 hhcurveto
          -240 hlineto
          -24 -12 10 10 -12 hvcurveto
          -24 20 rlineto
          -12 10 -12 10 30 vvcurveto
          320 vlineto
          30 12 10 12 10 vhcurveto
          24 20 rlineto
          10 12 12 10 24 hhcurveto
          252 -111 rmoveto
          20 0 1 -12 10 vhcurveto
          10 -12 -1 0 -24 hhcurveto
          -166 hlineto
          -24 -1 0 -10 -12 hvcurveto
          -12 -10 0 -1 -20 vvcurveto
          -278 vlineto
          -20 0 -1 12 -10 vhcurveto
          -10 12 1 0 24 hhcurveto
          166 hlineto
          24 1 0 10 12 hvcurveto
          12 10 0 1 20 vvcurveto
          hintmask 01100000
          -285 501 rmoveto
          27 -51 47 25 rlineto
          10 19 1 0 9 hhcurveto
          hintmask 10100000
          24 43 -35 32 hhcurveto
          8 11 3 3 5 hvcurveto
          79 40 -27 51 -62 -32 rlineto
          -2 -5 -5 -1 -3 -20 -53 34 -27 hhcurveto
          -8 -11 -3 -3 -5 hvcurveto
          endchar
        </CharString>
        <CharString name="p">
          -25 -239 -21 260 70 -20 20 360 30 -30 70 hstemhm
          84 84 264 84 hintmask 11001110
          60 500 rmoveto
          -49 vlineto
          -20 0 -1 12 -10 vhcurveto
          12 -10 0 -1 -20 vvcurveto
          -649 84 vlineto
          hintmask 10101110
          310 4 vlineto
          hintmask 11001110
          -9 14 -11 10 -10 vhcurveto
          -10 11 13 -10 24 hhcurveto
          176 hlineto
          24 12 10 10 12 hvcurveto
          24 20 rlineto
          12 10 12 10 30 vvcurveto
          320 vlineto
          30 -12 10 -12 10 vhcurveto
          -24 20 rlineto
          10 -12 -12 10 -24 hhcurveto
          -191 hlineto
          -24 -1 0 -15 -24 hvcurveto
          hintmask 11010110
          -12 -7 -10 -8 -10 vvcurveto
          -4 hlineto
          hintmask 11001110
          10 -5 6 -11 9 vhcurveto
          13 -15 -4 2 -24 hhcurveto
          145 -430 rmoveto
          -24 -12 10 10 -12 hvcurveto
          -12 10 -12 10 20 vvcurveto
          249 vlineto
          20 0 1 24 15 vhcurveto
          15 24 1 0 24 hhcurveto
          142 hlineto
          24 1 0 -10 12 hvcurveto
          12 -10 0 -1 -20 vvcurveto
          -278 vlineto
          -20 0 -1 -12 -10 vhcurveto
          -10 -12 -1 0 -24 hhcurveto
          endchar
        </CharString>
        <CharString name="paragraph">
          -84 -180 920 hstem
          225 60 75 60 vstem
          109 740 rmoveto
          -12 -6 -5 -5 -6 hvcurveto
          -13 -11 rlineto
          -6 -5 -6 -5 -15 vvcurveto
          -262 vlineto
          -15 6 -5 6 -5 vhcurveto
          13 -11 rlineto
          -5 6 6 -5 12 hhcurveto
          116 -566 60 920 hlineto
          75 hmoveto
          -920 60 920 vlineto
          endchar
        </CharString>
        <CharString name="parenleft">
          -382 -110 820 hstem
          58 72 vstem
          58 -36 rmoveto
          -30 0 -1 20 -14 vhcurveto
          22 -15 rlineto
          -14 20 1 0 25 hhcurveto
          18 39 hlineto
          30 0 1 -18 13 vhcurveto
          -16 11 0 1 30 vvcurveto
          570 vlineto
          30 0 1 16 11 vhcurveto
          18 13 0 1 30 vvcurveto
          39 -18 vlineto
          -25 -1 0 -14 -20 hvcurveto
          -22 -15 rlineto
          -20 -14 0 -1 -30 vvcurveto
          -672 vlineto
          endchar
        </CharString>
        <CharString name="parenright">
          -382 -110 820 hstem
          89 72 vstem
          161 -36 rmoveto
          672 vlineto
          30 0 1 -20 14 vhcurveto
          -22 15 rlineto
          14 -20 -1 0 -25 hhcurveto
          -18 -39 hlineto
          -30 0 -1 18 -13 vhcurveto
          16 -11 0 -1 -30 vvcurveto
          -570 vlineto
          -30 0 -1 -16 -11 vhcurveto
          -18 -13 0 -1 -30 vvcurveto
          -39 18 vlineto
          25 1 0 14 20 hvcurveto
          22 15 rlineto
          20 14 0 1 30 vvcurveto
          endchar
        </CharString>
        <CharString name="percent">
          336 57 240 106 240 hstem
          141 170 66 183 66 170 cntrmask 00111000
          813 354 rmoveto
          12 7 -5 -5 6 hvcurveto
          12 -11 rlineto
          6 -5 6 -5 -15 vvcurveto
          -262 vlineto
          -15 -6 -5 -6 -5 vhcurveto
          -12 -11 rlineto
          -5 -6 -7 -5 -12 hhcurveto
          -204 hlineto
          -12 -6 5 5 -6 hvcurveto
          -13 11 rlineto
          -6 5 -6 5 15 vvcurveto
          262 vlineto
          15 6 5 6 5 vhcurveto
          13 11 rlineto
          5 6 6 5 12 hhcurveto
          187 -79 rmoveto
          11 0 1 -6 5 vhcurveto
          5 -6 -1 0 -12 hhcurveto
          -119 hlineto
          -12 -1 0 -5 -7 hvcurveto
          -6 -5 0 -1 -11 vvcurveto
          -196 vlineto
          -11 0 -1 6 -5 vhcurveto
          -5 7 1 0 12 hhcurveto
          119 hlineto
          12 1 0 5 6 hvcurveto
          6 5 0 1 11 vvcurveto
          -468 621 rmoveto
          12 7 -5 -5 6 hvcurveto
          12 -11 rlineto
          6 -5 6 -5 -15 vvcurveto
          -262 vlineto
          -15 -6 -5 -6 -5 vhcurveto
          -12 -11 rlineto
          -5 -6 -7 -5 -12 hhcurveto
          -204 hlineto
          -12 -6 5 5 -6 hvcurveto
          -13 11 rlineto
          -6 5 -6 5 15 vvcurveto
          262 vlineto
          15 6 5 6 5 vhcurveto
          13 11 rlineto
          5 6 6 5 12 hhcurveto
          187 -79 rmoveto
          11 0 1 -6 5 vhcurveto
          5 -6 -1 0 -12 hhcurveto
          -119 hlineto
          -12 -1 0 -5 -7 hvcurveto
          -6 -5 0 -1 -11 vvcurveto
          -196 vlineto
          -11 0 -1 6 -5 vhcurveto
          -5 7 1 0 12 hhcurveto
          119 hlineto
          12 1 0 5 6 hvcurveto
          6 5 0 1 11 vvcurveto
          357 291 rmoveto
          -488 -762 rlineto
          69 hlineto
          492 762 rlineto
          endchar
        </CharString>
        <CharString name="period">
          0 95 hstem
          60 84 vstem
          144 59 rmoveto
          20 0 1 -8 8 vhcurveto
          7 -8 -1 0 -23 hhcurveto
          -4 hlineto
          -23 -1 0 -7 -7 hvcurveto
          -9 -8 0 -1 -20 vvcurveto
          -23 vlineto
          -20 0 -1 8 -8 vhcurveto
          -7 8 1 0 23 hhcurveto
          5 hlineto
          22 1 0 7 7 hvcurveto
          9 8 0 1 20 vvcurveto
          endchar
        </CharString>
        <CharString name="periodcentered">
          -308 255 150 hstem
          72 148 vstem
          220 349 rmoveto
          31 0 1 -12 13 vhcurveto
          11 -13 -1 0 -36 hhcurveto
          -23 hlineto
          -37 -1 0 -11 -11 hvcurveto
          -14 -13 0 -1 -31 vvcurveto
          -38 vlineto
          -31 0 -1 13 -13 vhcurveto
          -11 12 1 0 37 hhcurveto
          24 hlineto
          35 1 0 11 11 hvcurveto
          14 13 0 1 31 vvcurveto
          endchar
        </CharString>
        <CharString name="plus">
          -63 294 65 hstem
          236 65 vstem
          236 535 rmoveto
          -176 -176 -65 176 -177 65 177 177 65 -177 176 vlineto
          endchar
        </CharString>
        <CharString name="plusminus">
          -63 110 65 239 65 hstem
          236 65 vstem
          236 655 rmoveto
          -176 -176 -65 176 -177 65 177 177 65 -177 176 vlineto
          -241 -480 rmoveto
          -65 418 65 vlineto
          endchar
        </CharString>
        <CharString name="q">
          -25 -239 -21 260 70 -20 20 360 30 -30 70 hstemhm
          60 84 264 84 hintmask 11001110
          481 500 rmoveto
          -24 -4 -2 -13 -15 hvcurveto
          hintmask 11010110
          -11 -9 -5 -6 -10 vvcurveto
          -4 hlineto
          hintmask 11001110
          10 -10 8 -12 7 vhcurveto
          15 -24 -1 0 -24 hhcurveto
          -191 hlineto
          -24 -12 -10 -10 -12 hvcurveto
          -24 -20 rlineto
          -12 -10 -12 -10 -30 vvcurveto
          -320 vlineto
          -30 12 -10 12 -10 vhcurveto
          24 -20 rlineto
          -10 12 12 -10 24 hhcurveto
          176 hlineto
          24 13 10 10 11 hvcurveto
          hintmask 10101110
          10 10 14 11 9 vvcurveto
          4 -310 84 649 hlineto
          20 0 1 12 10 vhcurveto
          12 10 0 1 20 vvcurveto
          49 vlineto
          hintmask 11001110
          -323 -430 rmoveto
          -24 -1 0 10 -12 hvcurveto
          -12 10 0 1 20 vvcurveto
          278 vlineto
          20 0 1 12 10 vhcurveto
          10 12 1 0 24 hhcurveto
          142 hlineto
          24 1 0 -15 24 hvcurveto
          24 -15 0 -1 -20 vvcurveto
          -249 vlineto
          -20 -12 -10 -12 -10 vhcurveto
          -10 -12 -12 -10 -24 hhcurveto
          endchar
        </CharString>
        <CharString name="question">
          -69 320 70 240 70 hstem
          35 84 54 84 126 84 vstem
          257 200 rmoveto
          79 vlineto
          20 0 1 12 10 vhcurveto
          10 12 1 0 24 hhcurveto
          65 hlineto
          24 12 10 10 12 hvcurveto
          26 22 rlineto
          12 10 10 8 23 vvcurveto
          207 vlineto
          30 -12 10 -12 10 vhcurveto
          -24 20 rlineto
          10 -12 -12 10 -24 hhcurveto
          -240 hlineto
          -24 -12 -10 -10 -12 hvcurveto
          -24 -20 rlineto
          -12 -10 -12 -10 -30 vvcurveto
          -40 84 19 vlineto
          20 0 1 12 10 vhcurveto
          10 12 1 0 24 hhcurveto
          166 hlineto
          24 1 0 -10 12 hvcurveto
          12 -10 0 -1 -20 vvcurveto
          -158 vlineto
          -20 0 -1 -12 -10 vhcurveto
          -10 -12 -1 0 -24 hhcurveto
          -65 hlineto
          -24 -12 -10 -10 -12 hvcurveto
          -24 -20 rlineto
          -12 -10 -12 -10 -30 vvcurveto
          -100 vlineto
          84 -164 rmoveto
          -20 0 -1 -9 -8 vhcurveto
          -7 -7 -1 0 -22 hhcurveto
          -5 hlineto
          -23 -1 0 7 -8 hvcurveto
          -8 8 0 1 20 vvcurveto
          23 vlineto
          20 0 1 9 8 vhcurveto
          7 7 1 0 23 hhcurveto
          4 hlineto
          23 1 0 -7 8 hvcurveto
          8 -8 0 -1 -20 vvcurveto
          endchar
        </CharString>
        <CharString name="questiondown">
          -69 -260 70 240 70 225 95 hstem
          65 84 126 84 54 84 vstem
          275 240 rmoveto
          -79 vlineto
          -20 0 -1 -12 -10 vhcurveto
          -10 -12 -1 0 -24 hhcurveto
          -65 hlineto
          -24 -12 -10 -10 -12 hvcurveto
          -26 -22 rlineto
          -12 -10 -10 -8 -23 vvcurveto
          -207 vlineto
          -30 12 -10 12 -10 vhcurveto
          24 -20 rlineto
          -10 12 12 -10 24 hhcurveto
          240 hlineto
          24 12 10 10 12 hvcurveto
          24 20 rlineto
          12 10 12 10 30 vvcurveto
          40 -84 -19 vlineto
          -20 0 -1 -12 -10 vhcurveto
          -10 -12 -1 0 -24 hhcurveto
          -166 hlineto
          -24 -1 0 10 -12 hvcurveto
          -12 10 0 1 20 vvcurveto
          158 vlineto
          20 0 1 12 10 vhcurveto
          10 12 1 0 24 hhcurveto
          65 hlineto
          24 12 10 10 12 hvcurveto
          24 20 rlineto
          12 10 12 10 30 vvcurveto
          100 vlineto
          -84 141 rmoveto
          -20 0 -1 8 -8 vhcurveto
          -7 8 1 0 23 hhcurveto
          4 hlineto
          23 1 0 7 7 hvcurveto
          9 8 0 1 20 vvcurveto
          23 vlineto
          20 0 1 -8 8 vhcurveto
          7 -8 -1 0 -23 hhcurveto
          -5 hlineto
          -22 -1 0 -7 -7 hvcurveto
          -9 -8 0 -1 -20 vvcurveto
          endchar
        </CharString>
        <CharString name="quotedbl">
          -242 700 -20 hstem
          64 77 77 77 vstem
          141 672 rmoveto
          12 -2 3 -6 6 vhcurveto
          5 -6 -2 2 -10 hhcurveto
          -18 hlineto
          -17 -2 -1 -6 -7 hvcurveto
          -6 -6 -1 -2 -10 vvcurveto
          -14 vlineto
          20 -230 rlineto
          34 hlineto
          23 230 rlineto
          154 11 rmoveto
          12 -2 3 -6 6 vhcurveto
          5 -6 -2 2 -10 hhcurveto
          -18 hlineto
          -17 -2 -1 -6 -7 hvcurveto
          -6 -6 -1 -2 -10 vvcurveto
          -14 vlineto
          20 -230 rlineto
          34 hlineto
          23 230 rlineto
          endchar
        </CharString>
        <CharString name="quotedblbase">
          -250 0 95 hstem
          84 60 87 60 vstem
          285 -10 rmoveto
          6 25 0 1 23 vvcurveto
          17 vlineto
          23 0 1 -8 8 vhcurveto
          7 -8 -1 0 -26 hhcurveto
          -24 -1 0 -7 -8 hvcurveto
          -8 -8 0 -1 -23 vvcurveto
          -17 vlineto
          -23 0 -1 8 -7 vhcurveto
          -8 8 1 0 7 hhcurveto
          -100 vlineto
          30 -20 rlineto
          -123 110 rmoveto
          6 25 0 1 23 vvcurveto
          17 vlineto
          23 0 1 -8 8 vhcurveto
          7 -8 -1 0 -26 hhcurveto
          -24 -1 0 -7 -8 hvcurveto
          -8 -8 0 -1 -23 vvcurveto
          -17 vlineto
          -23 0 -1 8 -7 vhcurveto
          -8 8 1 0 7 hhcurveto
          -100 vlineto
          30 -20 rlineto
          endchar
        </CharString>
        <CharString name="quotedblleft">
          -250 500 95 hstem
          60 60 87 60 vstem
          66 605 rmoveto
          -6 -25 0 -1 -23 vvcurveto
          -17 vlineto
          -23 0 -1 8 -8 vhcurveto
          -7 8 1 0 26 hhcurveto
          24 1 0 7 8 hvcurveto
          8 8 0 1 23 vvcurveto
          17 vlineto
          23 0 1 -8 7 vhcurveto
          8 -8 -1 0 -7 hhcurveto
          100 vlineto
          -30 20 rlineto
          123 -110 rmoveto
          -6 -25 0 -1 -23 vvcurveto
          -17 vlineto
          -23 0 -1 8 -8 vhcurveto
          -7 8 1 0 26 hhcurveto
          24 1 0 7 8 hvcurveto
          8 8 0 1 23 vvcurveto
          17 vlineto
          23 0 1 -8 7 vhcurveto
          8 -8 -1 0 -7 hhcurveto
          100 vlineto
          -30 20 rlineto
          endchar
        </CharString>
        <CharString name="quotedblright">
          -250 619 95 hstem
          84 60 87 60 vstem
          285 609 rmoveto
          6 25 0 1 23 vvcurveto
          17 vlineto
          23 0 1 -8 8 vhcurveto
          7 -8 -1 0 -26 hhcurveto
          -24 -1 0 -7 -8 hvcurveto
          -8 -8 0 -1 -23 vvcurveto
          -17 vlineto
          -23 0 -1 8 -7 vhcurveto
          -8 8 1 0 7 hhcurveto
          -100 vlineto
          30 -20 rlineto
          -123 110 rmoveto
          6 25 0 1 23 vvcurveto
          17 vlineto
          23 0 1 -8 8 vhcurveto
          7 -8 -1 0 -26 hhcurveto
          -24 -1 0 -7 -8 hvcurveto
          -8 -8 0 -1 -23 vvcurveto
          -17 vlineto
          -23 0 -1 8 -7 vhcurveto
          -8 8 1 0 7 hhcurveto
          -100 vlineto
          30 -20 rlineto
          endchar
        </CharString>
        <CharString name="quoteleft">
          500 95 hstem
          60 60 vstem
          66 605 rmoveto
          -6 -25 0 -1 -23 vvcurveto
          -17 vlineto
          -23 0 -1 8 -8 vhcurveto
          -7 8 1 0 26 hhcurveto
          24 1 0 7 8 hvcurveto
          8 8 0 1 23 vvcurveto
          17 vlineto
          23 0 1 -8 7 vhcurveto
          8 -8 -1 0 -7 hhcurveto
          100 vlineto
          -30 20 rlineto
          endchar
        </CharString>
        <CharString name="quoteright">
          619 95 hstem
          84 60 vstem
          138 609 rmoveto
          6 25 0 1 23 vvcurveto
          17 vlineto
          23 0 1 -8 8 vhcurveto
          7 -8 -1 0 -26 hhcurveto
          -24 -1 0 -7 -8 hvcurveto
          -8 -8 0 -1 -23 vvcurveto
          -17 vlineto
          -23 0 -1 8 -7 vhcurveto
          -8 8 1 0 7 hhcurveto
          -100 vlineto
          30 -20 rlineto
          endchar
        </CharString>
        <CharString name="quotesinglbase">
          0 95 hstem
          84 60 vstem
          138 -10 rmoveto
          6 25 0 1 23 vvcurveto
          17 vlineto
          23 0 1 -8 8 vhcurveto
          7 -8 -1 0 -26 hhcurveto
          -24 -1 0 -7 -8 hvcurveto
          -8 -8 0 -1 -23 vvcurveto
          -17 vlineto
          -23 0 -1 8 -7 vhcurveto
          -8 8 1 0 7 hhcurveto
          -100 vlineto
          30 -20 rlineto
          endchar
        </CharString>
        <CharString name="quotesingle">
          -398 700 -20 hstem
          62 77 vstem
          139 672 rmoveto
          12 -2 3 -6 6 vhcurveto
          5 -6 -2 2 -10 hhcurveto
          -18 hlineto
          -17 -2 -1 -6 -7 hvcurveto
          -6 -6 -1 -2 -10 vvcurveto
          -14 vlineto
          20 -230 rlineto
          34 hlineto
          23 230 rlineto
          endchar
        </CharString>
        <CharString name="r">
          -183 21 -21 430 30 -30 70 hstemhm
          84 84 hintmask 10110000
          60 500 rmoveto
          -49 vlineto
          -20 0 -1 12 -10 vhcurveto
          12 -10 0 -1 -20 vvcurveto
          -389 84 379 vlineto
          20 0 1 24 15 vhcurveto
          15 24 1 0 24 hhcurveto
          43 hlineto
          24 1 0 -10 12 hvcurveto
          12 -10 60 50 -24 20 rlineto
          10 -12 -12 10 -24 hhcurveto
          -92 hlineto
          -24 -1 0 -15 -24 hvcurveto
          hintmask 11010000
          -12 -7 -10 -8 -10 vvcurveto
          -4 hlineto
          hintmask 10110000
          10 -5 6 -11 9 vhcurveto
          13 -15 -4 2 -24 hhcurveto
          endchar
        </CharString>
        <CharString name="registered">
          131 40 54 260 137 95 54 hstem
          75 62 135 191 132 62 vstem
          469 546 rmoveto
          14 6 -6 -6 8 hvcurveto
          15 -11 rlineto
          8 -7 5 -6 -16 vvcurveto
          -138 vlineto
          -18 -6 -7 -8 -7 vhcurveto
          -15 -11 rlineto
          -6 -7 -6 -5 -14 hhcurveto
          -38 hlineto
          59 -93 8 -13 2 -2 12 -8 rlinecurve
          7 -2 rlineto
          14 -9 0 -1 -18 vvcurveto
          -22 -32 vlineto
          -14 -1 0 8 -13 hvcurveto
          -11 8 -11 9 -2 2 -8 12 rlinecurve
          -80 129 rlineto
          -89 -168 -64 412 hlineto
          64 -192 rmoveto
          161 hlineto
          13 1 0 6 8 hvcurveto
          8 5 0 1 12 vvcurveto
          88 vlineto
          13 0 1 -8 5 vhcurveto
          6 -8 -1 0 -13 hhcurveto
          -161 hlineto
          385 -361 rmoveto
          420 vlineto
          30 -12 10 -12 10 vhcurveto
          -24 20 rlineto
          10 -12 -12 10 -24 hhcurveto
          -390 hlineto
          -24 -12 -10 -10 -12 hvcurveto
          -24 -20 rlineto
          -12 -10 -12 -10 -30 vvcurveto
          -420 vlineto
          -30 12 -10 12 -10 vhcurveto
          24 -20 rlineto
          -10 12 12 -10 24 hhcurveto
          390 hlineto
          24 12 10 10 12 hvcurveto
          24 20 rlineto
          12 10 12 10 30 vvcurveto
          -62 385 rmoveto
          -350 vlineto
          -30 0 -1 -18 -15 vhcurveto
          -12 -10 rlineto
          -15 -18 -1 0 -24 hhcurveto
          -312 hlineto
          -24 -1 0 15 -18 hvcurveto
          -12 10 rlineto
          -18 15 0 1 30 vvcurveto
          350 vlineto
          30 0 1 18 15 vhcurveto
          12 10 rlineto
          15 18 1 0 24 hhcurveto
          312 hlineto
          24 1 0 -15 18 hvcurveto
          12 -10 rlineto
          18 -15 0 -1 -30 vvcurveto
          endchar
        </CharString>
        <CharString name="ring">
          -263 550 43 75 43 hstem
          75 43 102 43 vstem
          138 711 rmoveto
          -37 -1 0 -11 -11 hvcurveto
          -14 -13 0 -1 -31 vvcurveto
          -49 vlineto
          -31 0 -1 14 -13 vhcurveto
          -11 11 1 0 37 hhcurveto
          62 hlineto
          37 1 0 11 11 hvcurveto
          14 13 0 1 31 vvcurveto
          49 vlineto
          31 0 1 -14 13 vhcurveto
          11 -11 -1 0 -37 hhcurveto
          -55 -118 rmoveto
          -15 1 1 5 -7 hvcurveto
          -6 5 0 1 15 vvcurveto
          21 vlineto
          15 0 1 6 5 vhcurveto
          5 7 -1 1 15 hhcurveto
          48 hlineto
          15 -1 -1 -5 7 hvcurveto
          6 -5 0 -1 -15 vvcurveto
          -21 vlineto
          -15 0 -1 -6 -5 vhcurveto
          -5 -7 1 -1 -15 hhcurveto
          endchar
        </CharString>
        <CharString name="s">
          -67 0 70 150 70 140 70 hstemhm
          60 84 -74 84 236 84 hintmask 11101100
          378 290 rmoveto
          -175 hlineto
          -24 -1 0 10 -12 hvcurveto
          -12 10 0 1 20 vvcurveto
          58 vlineto
          20 0 1 12 10 vhcurveto
          10 12 1 0 24 hhcurveto
          138 hlineto
          24 1 0 -10 12 hvcurveto
          12 -10 0 -1 -20 vvcurveto
          -19 84 40 vlineto
          30 -12 10 -12 10 vhcurveto
          -24 20 rlineto
          10 -12 -12 10 -24 hhcurveto
          -212 hlineto
          -24 -12 -10 -10 -12 hvcurveto
          -24 -20 rlineto
          -12 -10 -12 -10 -30 vvcurveto
          -100 vlineto
          -30 12 -10 12 -10 vhcurveto
          24 -20 rlineto
          -10 12 12 -10 24 hhcurveto
          175 hlineto
          24 1 0 -10 12 hvcurveto
          9 -8 2 -2 1 -8 rrcurveto
          -81 vlineto
          -20 0 -1 -12 -10 vhcurveto
          -10 -12 -1 0 -24 hhcurveto
          hintmask 11110100
          -148 hlineto
          -24 -1 0 10 -12 hvcurveto
          -12 10 0 1 20 vvcurveto
          19 -84 -40 vlineto
          -30 12 -10 12 -10 vhcurveto
          24 -20 rlineto
          -10 12 12 -10 24 hhcurveto
          222 hlineto
          24 12 10 10 12 hvcurveto
          24 20 rlineto
          12 10 12 10 30 vvcurveto
          110 vlineto
          30 -12 10 -12 10 vhcurveto
          -24 20 rlineto
          hintmask 11101100
          10 -12 -12 10 -24 hhcurveto
          endchar
        </CharString>
        <CharString name="section">
          43 -200 70 186 64 270 64 186 70 hstemhm
          75 84 -72 84 -72 84 276 84 -60 84 -72 84 hintmask 1111001010000000
          hintmask 1111001001000000
          518 67 rmoveto
          -5 4 -10 6 -10 1 rrcurveto
          4 vlineto
          10 1 10 7 5 4 41 34 rcurveline
          20 16 0 1 31 vvcurveto
          92 vlineto
          25 0 1 -19 16 vhcurveto
          -154 128 rlineto
          16 -19 -1 0 -24 hhcurveto
          -98 hlineto
          -25 -1 0 17 -20 hvcurveto
          -15 12 rlineto
          -20 16 0 1 25 vvcurveto
          74 vlineto
          20 0 1 12 10 vhcurveto
          10 12 1 0 24 hhcurveto
          hintmask 1111001100000000
          177 hlineto
          25 1 0 -10 12 hvcurveto
          12 -10 0 -1 -20 vvcurveto
          -19 84 40 vlineto
          30 -12 10 -12 10 vhcurveto
          -24 20 rlineto
          10 -12 -12 10 -24 hhcurveto
          -252 hlineto
          -24 -12 -10 -10 -12 hvcurveto
          -24 -20 rlineto
          -12 -10 -12 -10 -30 vvcurveto
          -114 vlineto
          -22 1 -2 17 -13 vhcurveto
          hintmask 1111010010000000
          31 -26 5 -4 10 -6 10 -1 rlinecurve
          -4 vlineto
          -10 -1 -10 -7 -5 -4 -41 -34 rcurveline
          -20 -16 0 -1 -31 vvcurveto
          -108 vlineto
          1 -11 4 -4 14 -11 154 -128 rcurveline
          -16 19 1 0 24 hhcurveto
          98 hlineto
          25 1 0 -17 20 hvcurveto
          15 -12 rlineto
          20 -16 0 -1 -25 vvcurveto
          -74 vlineto
          -20 0 -1 -12 -10 vhcurveto
          -10 -12 -1 0 -24 hhcurveto
          hintmask 1111100010000000
          -225 hlineto
          -25 -1 0 10 -12 hvcurveto
          -12 10 0 1 20 vvcurveto
          19 -84 -40 vlineto
          -30 12 -10 12 -10 vhcurveto
          24 -20 rlineto
          -10 12 12 -10 24 hhcurveto
          300 hlineto
          24 12 10 10 12 hvcurveto
          24 20 rlineto
          12 10 12 10 30 vvcurveto
          114 vlineto
          22 -2 2 -16 13 vhcurveto
          -211 349 rmoveto
          24 1 0 -15 18 hvcurveto
          hintmask 1111010001000000
          95 -80 rlineto
          19 -16 0 -1 -26 vvcurveto
          -64 vlineto
          -21 -6 -6 -12 -11 vhcurveto
          -15 -13 rlineto
          -17 -20 -1 0 -25 hhcurveto
          -88 hlineto
          -24 -1 0 15 -18 hvcurveto
          -95 80 rlineto
          -19 16 0 1 26 vvcurveto
          64 vlineto
          21 6 6 12 11 vhcurveto
          15 13 rlineto
          17 20 1 0 25 hhcurveto
          endchar
        </CharString>
        <CharString name="semicolon">
          0 95 295 95 hstem
          60 84 vstem
          138 -10 rmoveto
          6 25 0 1 23 vvcurveto
          17 vlineto
          23 0 1 -8 8 vhcurveto
          7 -8 -1 0 -26 hhcurveto
          -24 -1 0 -7 -8 hvcurveto
          -8 -8 0 -1 -23 vvcurveto
          -17 vlineto
          -23 0 -1 8 -7 vhcurveto
          -8 8 1 0 7 hhcurveto
          -100 vlineto
          30 -20 rlineto
          30 580 rmoveto
          10 -1 2 -6 6 vhcurveto
          7 -8 -4 0 -23 hhcurveto
          -23 -4 0 -7 -7 hvcurveto
          -7 -7 -1 -1 -11 vvcurveto
          -44 vlineto
          -10 1 -2 6 -6 vhcurveto
          -7 8 4 0 23 hhcurveto
          22 5 0 7 7 hvcurveto
          8 7 0 1 15 vvcurveto
          endchar
        </CharString>
        <CharString name="seven">
          2 21 -21 630 70 hstem
          25 513 vstem
          112 hmoveto
          92 hlineto
          334 624 rlineto
          76 -513 -70 433 vlineto
          -6 -3 -5 -6 -6 -11 rrcurveto
          endchar
        </CharString>
        <CharString name="six">
          85 0 70 290 70 200 70 hstemhm
          85 84 338 84 -74 84 hintmask 11110100
          hintmask 11111000
          591 570 rmoveto
          40 vlineto
          30 -12 10 -12 10 vhcurveto
          -24 20 rlineto
          10 -12 -12 10 -24 hhcurveto
          -314 hlineto
          -24 -12 -10 -10 -12 hvcurveto
          -24 -20 rlineto
          -12 -10 -12 -10 -30 vvcurveto
          -520 vlineto
          -30 12 -10 12 -10 vhcurveto
          24 -20 rlineto
          -10 12 12 -10 24 hhcurveto
          hintmask 11110100
          324 hlineto
          24 12 10 10 12 hvcurveto
          24 20 rlineto
          12 10 12 10 30 vvcurveto
          250 vlineto
          30 -12 10 -12 10 vhcurveto
          -24 20 rlineto
          10 -12 -12 10 -24 hhcurveto
          -272 hlineto
          -18 -19 -17 -18 -18 hvcurveto
          -5 -5 rlineto
          -4 199 hlineto
          20 0 1 12 10 vhcurveto
          10 12 1 0 24 hhcurveto
          hintmask 11111000
          240 hlineto
          24 1 0 -10 12 hvcurveto
          12 -10 0 -1 -20 vvcurveto
          -19 vlineto
          hintmask 11110100
          10 -459 rmoveto
          -20 0 -1 -12 -10 vhcurveto
          -10 -12 -1 0 -24 hhcurveto
          -250 hlineto
          -24 -1 0 10 -12 hvcurveto
          -12 10 0 1 20 vvcurveto
          209 vlineto
          1 10 4 3 19 12 rrcurveto
          15 24 1 0 25 hhcurveto
          225 hlineto
          24 1 0 -10 12 hvcurveto
          12 -10 0 -1 -20 vvcurveto
          endchar
        </CharString>
        <CharString name="slash">
          -76 700 -20 hstem
          -40 605 vstem
          485 700 rmoveto
          -525 -790 rlineto
          76 hlineto
          529 790 rlineto
          endchar
        </CharString>
        <CharString name="space">
          -351 endchar
        </CharString>
        <CharString name="sterling">
          -13 0 71 229 65 265 70 hstem
          113 84 215 84 vstem
          392 365 rmoveto
          -195 216 hlineto
          24 0 1 10 12 vhcurveto
          12 10 1 0 20 hhcurveto
          133 hlineto
          20 1 0 -12 10 hvcurveto
          10 -12 0 -1 -24 vvcurveto
          -11 84 34 vlineto
          24 -10 12 -10 12 vhcurveto
          -20 24 rlineto
          12 -10 -10 12 -30 hhcurveto
          -203 hlineto
          -30 -10 -12 -12 -10 hvcurveto
          -20 -24 rlineto
          -10 -12 -10 -12 -24 vvcurveto
          -239 -68 -65 68 -157 vlineto
          -24 -10 -12 -10 -12 vhcurveto
          -12 -10 -10 -12 -20 hhcurveto
          -71 500 71 -403 4 vlineto
          9 1 8 12 8 9 rrcurveto
          12 14 10 12 24 vvcurveto
          153 195 vlineto
          endchar
        </CharString>
        <CharString name="t">
          -223 0 70 360 70 hstem
          91 84 vstem
          175 640 rmoveto
          -84 -140 -66 -26 hlineto
          -30 0 -1 18 -13 vhcurveto
          48 -340 hlineto
          -30 12 -10 12 -10 vhcurveto
          24 -20 rlineto
          -10 12 12 -10 24 hhcurveto
          146 26 hlineto
          30 0 1 -18 13 vhcurveto
          -91 hlineto
          -24 -1 0 10 -12 hvcurveto
          -12 10 0 1 20 vvcurveto
          319 146 26 vlineto
          30 0 1 -18 13 vhcurveto
          -128 hlineto
          endchar
        </CharString>
        <CharString name="thorn">
          -25 -239 -21 260 70 -20 20 360 70 hstemhm
          84 84 264 84 hintmask 11011100
          84 740 rmoveto
          -1000 84 vlineto
          hintmask 10111100
          310 4 vlineto
          hintmask 11011100
          -9 14 -11 10 -10 vhcurveto
          -10 11 13 -10 24 hhcurveto
          176 hlineto
          24 12 10 10 12 hvcurveto
          24 20 rlineto
          12 10 12 10 30 vvcurveto
          320 vlineto
          30 -12 10 -12 10 vhcurveto
          -24 20 rlineto
          10 -12 -12 10 -24 hhcurveto
          -191 hlineto
          -24 -1 0 -15 -24 hvcurveto
          -5 -3 -4 -1 -3 -4 rrcurveto
          263 vlineto
          72 -670 rmoveto
          -24 -12 10 10 -12 hvcurveto
          -12 10 -12 10 20 vvcurveto
          249 vlineto
          20 0 1 24 15 vhcurveto
          15 24 1 0 24 hhcurveto
          142 hlineto
          24 1 0 -10 12 hvcurveto
          12 -10 0 -1 -20 vvcurveto
          -278 vlineto
          -20 0 -1 -12 -10 vhcurveto
          -10 -12 -1 0 -24 hhcurveto
          endchar
        </CharString>
        <CharString name="three">
          23 0 70 260 64 236 70 hstemhm
          75 84 -64 84 264 84 -72 84 hintmask 11110010
          hintmask 11101100
          480 354 rmoveto
          5 -6 -14 8 -8 hhcurveto
          5 vlineto
          8 14 8 5 6 hvcurveto
          29 24 rlineto
          18 14 0 1 22 vvcurveto
          164 vlineto
          30 -12 10 -12 10 vhcurveto
          -24 20 rlineto
          10 -12 -12 10 -24 hhcurveto
          -240 hlineto
          -24 -12 -10 -10 -12 hvcurveto
          -24 -20 rlineto
          -12 -10 -12 -10 -30 vvcurveto
          -40 84 19 vlineto
          20 0 1 12 10 vhcurveto
          10 12 1 0 25 hhcurveto
          165 hlineto
          24 1 0 -10 12 hvcurveto
          12 -10 0 -1 -20 vvcurveto
          -124 vlineto
          -25 0 -1 -20 -16 vhcurveto
          -15 -12 rlineto
          -17 -20 -1 0 -25 hhcurveto
          -146 -64 hlineto
          hintmask 11110010
          160 hlineto
          25 1 0 -17 20 hvcurveto
          15 -13 rlineto
          12 -11 6 -6 -21 vvcurveto
          -151 vlineto
          -20 0 -1 -12 -10 vhcurveto
          -10 -12 -1 0 -24 hhcurveto
          -198 hlineto
          -24 -1 0 10 -12 hvcurveto
          -12 10 0 1 20 vvcurveto
          19 -84 -40 vlineto
          -30 12 -10 12 -10 vhcurveto
          24 -20 rlineto
          -10 12 12 -10 24 hhcurveto
          284 hlineto
          24 11 11 12 12 hvcurveto
          18 18 rlineto
          14 15 5 5 29 vvcurveto
          184 vlineto
          31 0 1 -20 16 vhcurveto
          endchar
        </CharString>
        <CharString name="threequarters">
          217 0 130 -55 55 210 55 108 52 90 55 hstemhm
          75 60 -50 60 119 60 -54 60 325 60 hintmask 1011110011000000
          hintmask 1011101101000000
          289 536 rmoveto
          6 6 3 2 3 hvcurveto
          9 7 rlineto
          9 7 2 4 12 vvcurveto
          79 vlineto
          17 -7 6 -7 6 vhcurveto
          -11 10 rlineto
          5 -7 -6 6 -14 hhcurveto
          -135 hlineto
          -14 -7 -6 -5 -6 hvcurveto
          -12 -10 rlineto
          -7 -6 -6 -5 -18 vvcurveto
          -35 60 14 vlineto
          7 0 1 5 4 vhcurveto
          4 5 1 0 10 hhcurveto
          78 hlineto
          9 1 0 -4 5 hvcurveto
          5 -4 0 -1 -7 vvcurveto
          -44 vlineto
          -10 0 -1 -13 -10 vhcurveto
          hintmask 1011110011000000
          -9 -11 -1 0 -11 hhcurveto
          -57 -52 64 hlineto
          10 2 -1 -7 8 hvcurveto
          7 -6 rlineto
          5 -5 3 -3 -7 vvcurveto
          -64 vlineto
          -7 -1 -1 -4 -3 vhcurveto
          -3 -5 0 -1 -10 hhcurveto
          -94 hlineto
          -10 -1 0 4 -5 hvcurveto
          -5 4 0 1 6 vvcurveto
          15 -60 -35 vlineto
          -18 6 -6 7 -5 vhcurveto
          13 -10 rlineto
          -5 6 8 -6 13 hhcurveto
          156 hlineto
          14 6 5 7 7 hvcurveto
          9 9 rlineto
          8 9 2 2 18 vvcurveto
          95 vlineto
          17 -1 1 -11 10 vhcurveto
          hintmask 1011110101000000
          -14 14 rlineto
          hintmask 1011101101000000
          3 -3 -6 2 -6 hhcurveto
          349 184 rmoveto
          -488 -762 rlineto
          69 hlineto
          492 762 rlineto
          -361 vmoveto
          -74 hlineto
          hintmask 0111110011000000
          -164 -234 rlineto
          -46 182 vlineto
          hintmask 1011110011000000
          -75 60 vlineto
          hintmask 0111110011000000
          75 48 vlineto
          hintmask 1011110011000000
          55 -48 90 -60 -90 -110 vlineto
          endchar
        </CharString>
        <CharString name="threesuperior">
          -230 340 55 108 52 90 55 hstemhm
          58 60 -50 60 119 60 -54 60 hintmask 11110010
          hintmask 11101100
          272 536 rmoveto
          6 6 3 2 3 hvcurveto
          9 7 rlineto
          9 7 2 4 12 vvcurveto
          79 vlineto
          17 -7 6 -7 6 vhcurveto
          -11 10 rlineto
          5 -7 -6 6 -14 hhcurveto
          -135 hlineto
          -14 -7 -6 -5 -6 hvcurveto
          -12 -10 rlineto
          -7 -6 -6 -5 -18 vvcurveto
          -35 60 14 vlineto
          7 0 1 5 4 vhcurveto
          4 5 1 0 10 hhcurveto
          78 hlineto
          9 1 0 -4 5 hvcurveto
          5 -4 0 -1 -7 vvcurveto
          -44 vlineto
          -10 0 -1 -13 -10 vhcurveto
          hintmask 11110010
          -9 -11 -1 0 -11 hhcurveto
          -57 -52 64 hlineto
          10 2 -1 -7 8 hvcurveto
          7 -6 rlineto
          5 -5 3 -3 -7 vvcurveto
          -64 vlineto
          -7 -1 -1 -4 -3 vhcurveto
          -3 -5 0 -1 -10 hhcurveto
          -94 hlineto
          -10 -1 0 4 -5 hvcurveto
          -5 4 0 1 6 vvcurveto
          15 -60 -35 vlineto
          -18 6 -6 7 -5 vhcurveto
          13 -10 rlineto
          -5 6 8 -6 13 hhcurveto
          156 hlineto
          14 6 5 7 7 hvcurveto
          9 9 rlineto
          8 9 2 2 18 vvcurveto
          95 vlineto
          17 -1 1 -11 10 vhcurveto
          hintmask 11110100
          -14 14 rlineto
          hintmask 11101100
          3 -3 -6 2 -6 hhcurveto
          endchar
        </CharString>
        <CharString name="tilde">
          -148 561 62 -27 61 hstemhm
          73 305 hintmask 01100000
          73 612 rmoveto
          27 -51 47 25 rlineto
          10 19 1 0 9 hhcurveto
          hintmask 10100000
          24 43 -35 32 hhcurveto
          8 11 3 3 5 hvcurveto
          79 40 -27 51 -62 -32 rlineto
          -2 -5 -5 -1 -3 hhcurveto
          hintmask 01100000
          -20 -53 34 -27 hhcurveto
          -8 -11 -3 -3 -5 hvcurveto
          endchar
        </CharString>
        <CharString name="tilde.case">
          -274 751 62 -27 61 hstemhm
          9 305 hintmask 01100000
          9 802 rmoveto
          27 -51 47 25 rlineto
          10 19 1 0 9 hhcurveto
          hintmask 10100000
          24 43 -35 32 hhcurveto
          8 11 3 3 5 hvcurveto
          79 40 -27 51 -62 -32 rlineto
          -2 -5 -5 -1 -3 hhcurveto
          hintmask 01100000
          -20 -53 34 -27 hhcurveto
          -8 -11 -3 -3 -5 hvcurveto
          endchar
        </CharString>
        <CharString name="two">
          3 0 70 560 70 hstemhm
          75 84 -74 84 276 84 hintmask 11101000
          75 hmoveto
          454 70 -370 4 hlineto
          25 1 4 19 17 vhcurveto
          331 299 rlineto
          18 16 1 10 24 vvcurveto
          141 vlineto
          30 -12 10 -12 10 vhcurveto
          -24 20 rlineto
          10 -12 -12 10 -24 hhcurveto
          hintmask 11011000
          -252 hlineto
          -24 -12 -10 -10 -12 hvcurveto
          -24 -20 rlineto
          -12 -10 -12 -10 -30 vvcurveto
          -40 84 19 vlineto
          20 0 1 12 10 vhcurveto
          10 12 1 0 24 hhcurveto
          178 hlineto
          24 1 0 -10 12 hvcurveto
          12 -10 0 -1 -20 vvcurveto
          -89 vlineto
          -24 -1 -10 -18 -16 vhcurveto
          hintmask 11101000
          -332 -303 rlineto
          -18 -16 -1 -1 -24 vvcurveto
          endchar
        </CharString>
        <CharString name="twosuperior">
          -243 340 55 250 55 hstemhm
          59 60 -52 65 108 66 hintmask 11101000
          hintmask 11011000
          67 340 rmoveto
          247 55 -182 hlineto
          5 4 5 4 4 vhcurveto
          154 121 rlineto
          10 9 2 5 11 vvcurveto
          95 vlineto
          15 -5 7 -9 7 vhcurveto
          -12 10 rlineto
          7 -9 -7 4 -11 hhcurveto
          hintmask 11101000
          -142 hlineto
          -14 -6 -7 -4 -6 hvcurveto
          -13 -10 rlineto
          -7 -6 -6 -5 -18 vvcurveto
          -35 60 14 vlineto
          7 0 1 5 4 vhcurveto
          4 5 1 0 10 hhcurveto
          79 hlineto
          10 1 0 -4 5 hvcurveto
          5 -4 0 -1 -7 vvcurveto
          -59 vlineto
          -7 -3 -4 -5 -5 vhcurveto
          hintmask 11011000
          -155 -130 rlineto
          -10 -9 0 -1 -16 vvcurveto
          endchar
        </CharString>
        <CharString name="u">
          -59 0 70 -30 30 430 -20 hstemhm
          60 84 230 84 hintmask 10111000
          313 hmoveto
          24 1 0 15 24 hvcurveto
          hintmask 01111000
          12 7 10 8 10 vvcurveto
          4 hlineto
          hintmask 10111000
          -10 5 -6 11 -9 vhcurveto
          -13 15 4 -2 24 hhcurveto
          35 49 hlineto
          20 0 1 -12 10 vhcurveto
          -12 10 0 1 20 vvcurveto
          389 -84 -379 vlineto
          -20 0 -1 -24 -15 vhcurveto
          -15 -24 -1 0 -24 hhcurveto
          -108 hlineto
          -24 -1 0 10 -12 hvcurveto
          -12 10 0 1 20 vvcurveto
          389 -84 -410 vlineto
          -30 12 -10 12 -10 vhcurveto
          24 -20 rlineto
          -10 12 12 -10 24 hhcurveto
          endchar
        </CharString>
        <CharString name="uacute">
          -59 0 70 -30 30 430 -20 hstemhm
          60 84 230 84 hintmask 10111000
          313 hmoveto
          24 1 0 15 24 hvcurveto
          hintmask 01111000
          12 7 10 8 10 vvcurveto
          4 hlineto
          hintmask 10111000
          -10 5 -6 11 -9 vhcurveto
          -13 15 4 -2 24 hhcurveto
          35 49 hlineto
          20 0 1 -12 10 vhcurveto
          -12 10 0 1 20 vvcurveto
          389 -84 -379 vlineto
          -20 0 -1 -24 -15 vhcurveto
          -15 -24 -1 0 -24 hhcurveto
          -108 hlineto
          -24 -1 0 10 -12 hvcurveto
          -12 10 0 1 20 vvcurveto
          389 -84 -410 vlineto
          -30 12 -10 12 -10 vhcurveto
          24 -20 rlineto
          -10 12 12 -10 24 hhcurveto
          225 646 rmoveto
          -43 63 -137 -119 26 -40 rlineto
          endchar
        </CharString>
        <CharString name="ucircumflex">
          -59 500 200 -51 51 hstemhm
          144 230 hintmask 01100000
          156 hmoveto
          -24 -12 10 10 -12 hvcurveto
          -24 20 rlineto
          -12 10 -12 10 30 vvcurveto
          hintmask 10100000
          410 84 -389 vlineto
          -20 0 -1 12 -10 vhcurveto
          -10 12 1 0 24 hhcurveto
          108 hlineto
          24 1 0 15 24 hvcurveto
          24 15 0 1 20 vvcurveto
          379 84 -389 vlineto
          -20 0 -1 12 -10 vhcurveto
          12 -10 0 -1 -20 vvcurveto
          -49 -35 vlineto
          -24 -4 2 13 -15 hvcurveto
          -11 9 -5 6 10 vvcurveto
          -4 hlineto
          -10 -10 -8 -12 -7 vhcurveto
          -15 -24 -1 0 -24 hhcurveto
          22 567 rmoveto
          60 19 rlineto
          hintmask 01100000
          -99 114 rlineto
          -53 hlineto
          -97 -114 59 -19 58 70 rlineto
          4 5 1 3 4 vvcurveto
          4 hlineto
          -4 1 -3 4 -5 vhcurveto
          endchar
        </CharString>
        <CharString name="udieresis">
          -59 0 70 -30 30 430 -20 106 92 hstemhm
          60 84 -1 96 64 96 -25 84 hintmask 10111001
          313 hmoveto
          24 1 0 15 24 hvcurveto
          hintmask 01111001
          12 7 10 8 10 vvcurveto
          4 hlineto
          hintmask 10111001
          -10 5 -6 11 -9 vhcurveto
          -13 15 4 -2 24 hhcurveto
          35 49 hlineto
          20 0 1 -12 10 vhcurveto
          -12 10 0 1 20 vvcurveto
          389 -84 -379 vlineto
          -20 0 -1 -24 -15 vhcurveto
          -15 -24 -1 0 -24 hhcurveto
          -108 hlineto
          -24 -1 0 10 -12 hvcurveto
          -12 10 0 1 20 vvcurveto
          389 -84 -410 vlineto
          -30 12 -10 12 -10 vhcurveto
          24 -20 rlineto
          -10 12 12 -10 24 hhcurveto
          hintmask 10110110
          83 636 rmoveto
          25 0 1 -8 7 vhcurveto
          9 -9 -3 0 -30 hhcurveto
          -27 -1 0 -9 -8 hvcurveto
          -9 -10 -1 -1 -22 vvcurveto
          -8 vlineto
          -22 1 -3 9 -8 vhcurveto
          -8 9 2 -1 25 hhcurveto
          5 hlineto
          24 3 0 9 9 hvcurveto
          9 7 0 1 25 vvcurveto
          160 8 rmoveto
          25 0 1 -8 7 vhcurveto
          9 -9 -3 0 -30 hhcurveto
          -27 -1 0 -9 -8 hvcurveto
          -9 -10 -1 -1 -22 vvcurveto
          -8 vlineto
          -22 1 -3 9 -8 vhcurveto
          -8 9 2 -1 25 hhcurveto
          5 hlineto
          24 3 0 9 9 hvcurveto
          9 7 0 1 25 vvcurveto
          endchar
        </CharString>
        <CharString name="ugrave">
          -59 0 70 -30 30 430 -20 hstemhm
          60 84 230 84 hintmask 10111000
          313 hmoveto
          24 1 0 15 24 hvcurveto
          hintmask 01111000
          12 7 10 8 10 vvcurveto
          4 hlineto
          hintmask 10111000
          -10 5 -6 11 -9 vhcurveto
          -13 15 4 -2 24 hhcurveto
          35 49 hlineto
          20 0 1 -12 10 vhcurveto
          -12 10 0 1 20 vvcurveto
          389 -84 -379 vlineto
          -20 0 -1 -24 -15 vhcurveto
          -15 -24 -1 0 -24 hhcurveto
          -108 hlineto
          -24 -1 0 10 -12 hvcurveto
          -12 10 0 1 20 vvcurveto
          389 -84 -410 vlineto
          -30 12 -10 12 -10 vhcurveto
          24 -20 rlineto
          -10 12 12 -10 24 hhcurveto
          149 550 rmoveto
          26 40 -137 119 -43 -63 rlineto
          endchar
        </CharString>
        <CharString name="underscore">
          -73 -135 65 hstem
          0 528 vstem
          528 -70 rmoveto
          -528 -65 528 hlineto
          endchar
        </CharString>
        <CharString name="uni00AD">
          -240 294 65 hstem
          60 240 vstem
          300 359 rmoveto
          -240 -65 240 hlineto
          endchar
        </CharString>
        <CharString name="uni20B4">
          -1 0 70 179 65 61 65 190 70 hstem
          80 84 260 84 vstem
          515 440 rmoveto
          -91 hlineto
          84 95 rlineto
          75 vlineto
          30 -12 10 -12 10 vhcurveto
          -24 20 rlineto
          10 -12 -12 10 -24 hhcurveto
          -297 -70 260 hlineto
          24 1 0 -10 12 hvcurveto
          12 -10 0 -1 -20 vvcurveto
          -29 vlineto
          -105 -120 rlineto
          -244 -65 187 hlineto
          -53 -61 rlineto
          -134 -65 77 hlineto
          -72 -83 rlineto
          -76 vlineto
          -30 12 -10 12 -10 vhcurveto
          24 -20 rlineto
          -10 12 12 -10 24 hhcurveto
          349 70 -312 hlineto
          -24 -1 0 10 -12 hvcurveto
          -12 10 0 1 20 vvcurveto
          32 vlineto
          93 106 rlineto
          258 65 -201 hlineto
          53 61 rlineto
          148 hlineto
          endchar
        </CharString>
        <CharString name="uni20B6">
          47 21 -21 164 65 61 70 270 70 hstem
          135 84 310 84 vstem
          219 164 rmoveto
          296 65 -296 61 298 hlineto
          24 12 10 10 12 hvcurveto
          24 20 rlineto
          12 10 12 10 30 vvcurveto
          230 vlineto
          30 -12 10 -12 10 vhcurveto
          -24 20 rlineto
          10 -12 -12 10 -24 hhcurveto
          -382 -345 -100 -65 100 -61 -100 -65 100 -164 84 hlineto
          630 vmoveto
          261 hlineto
          24 1 0 -10 12 hvcurveto
          12 -10 0 -1 -20 vvcurveto
          -188 vlineto
          -20 0 -1 -12 -10 vhcurveto
          -10 -12 -1 0 -24 hhcurveto
          -261 hlineto
          endchar
        </CharString>
        <CharString name="v">
          -127 0 68 432 -20 hstem
          15 444 vstem
          244 92 rmoveto
          -4 -12 -1 -6 -6 vvcurveto
          -4 hlineto
          6 -1 6 -4 12 vhcurveto
          -132 408 rlineto
          -83 hlineto
          174 -500 rlineto
          96 hlineto
          174 500 rlineto
          -83 hlineto
          endchar
        </CharString>
        <CharString name="w">
          143 0 61 371 68 hstem
          15 714 vstem
          365 408 rmoveto
          3 12 2 6 6 vvcurveto
          4 hlineto
          -6 2 -6 3 -12 vhcurveto
          99 -408 rlineto
          109 hlineto
          142 500 rlineto
          -81 hlineto
          -108 -415 rlineto
          -4 -12 -1 -6 -6 vvcurveto
          -4 hlineto
          6 -2 6 -3 12 vhcurveto
          -103 415 rlineto
          -102 hlineto
          -103 -415 rlineto
          -4 -12 -1 -6 -6 vvcurveto
          -4 hlineto
          6 -1 6 -4 12 vhcurveto
          -108 415 rlineto
          -81 hlineto
          142 -500 rlineto
          109 hlineto
          endchar
        </CharString>
        <CharString name="x">
          -107 21 -21 500 -20 hstem
          35 424 vstem
          245 320 rmoveto
          10 -7 12 -6 9 vhcurveto
          -98 149 rlineto
          -87 hlineto
          157 -241 -169 -259 rlineto
          87 hlineto
          110 168 rlineto
          6 9 7 11 10 vvcurveto
          4 hlineto
          -10 7 -11 6 -9 vhcurveto
          110 -168 rlineto
          87 hlineto
          -169 259 157 241 rlineto
          -87 hlineto
          -98 -149 rlineto
          -6 -9 -7 -12 -10 vvcurveto
          endchar
        </CharString>
        <CharString name="y">
          -63 -260 70 190 70 -22 22 430 -20 hstemhm
          60 84 250 84 hintmask 11011100
          382 -260 rmoveto
          24 12 10 10 12 hvcurveto
          24 20 rlineto
          12 10 12 10 30 vvcurveto
          670 -84 -379 vlineto
          -20 0 -1 -24 -15 vhcurveto
          -15 -24 -1 0 -24 hhcurveto
          -128 hlineto
          -24 -1 0 10 -12 hvcurveto
          -12 10 0 1 20 vvcurveto
          389 -84 -410 vlineto
          -30 12 -10 12 -10 vhcurveto
          24 -20 rlineto
          -10 12 12 -10 24 hhcurveto
          174 hlineto
          24 12 10 10 12 hvcurveto
          hintmask 10111100
          7 6 15 13 2 9 rrcurveto
          4 -197 hlineto
          -20 0 -1 -12 -10 vhcurveto
          -10 -12 -1 0 -24 hhcurveto
          -245 hlineto
          -18 -13 0 -1 -30 vvcurveto
          -26 vlineto
          endchar
        </CharString>
        <CharString name="yacute">
          -63 -260 70 190 70 -22 22 430 -20 hstemhm
          60 84 250 84 hintmask 11011100
          382 -260 rmoveto
          24 12 10 10 12 hvcurveto
          24 20 rlineto
          12 10 12 10 30 vvcurveto
          670 -84 -379 vlineto
          -20 0 -1 -24 -15 vhcurveto
          -15 -24 -1 0 -24 hhcurveto
          -128 hlineto
          -24 -1 0 10 -12 hvcurveto
          -12 10 0 1 20 vvcurveto
          389 -84 -410 vlineto
          -30 12 -10 12 -10 vhcurveto
          24 -20 rlineto
          -10 12 12 -10 24 hhcurveto
          174 hlineto
          24 12 10 10 12 hvcurveto
          hintmask 10111100
          7 6 15 13 2 9 rrcurveto
          4 -197 hlineto
          -20 0 -1 -12 -10 vhcurveto
          -10 -12 -1 0 -24 hhcurveto
          -245 hlineto
          -18 -13 0 -1 -30 vvcurveto
          -26 vlineto
          285 906 rmoveto
          -43 63 -137 -119 26 -40 rlineto
          endchar
        </CharString>
        <CharString name="ydieresis">
          -63 -260 70 190 70 -22 22 430 -20 106 92 hstemhm
          60 84 -3 96 64 96 -3 84 hintmask 1101110010000000
          382 -260 rmoveto
          24 12 10 10 12 hvcurveto
          24 20 rlineto
          12 10 12 10 30 vvcurveto
          670 -84 -379 vlineto
          -20 0 -1 -24 -15 vhcurveto
          -15 -24 -1 0 -24 hhcurveto
          -128 hlineto
          -24 -1 0 10 -12 hvcurveto
          -12 10 0 1 20 vvcurveto
          389 -84 -410 vlineto
          -30 12 -10 12 -10 vhcurveto
          24 -20 rlineto
          -10 12 12 -10 24 hhcurveto
          174 hlineto
          24 12 10 10 12 hvcurveto
          hintmask 1011101010000000
          7 6 15 13 2 9 rrcurveto
          4 -197 hlineto
          -20 0 -1 -12 -10 vhcurveto
          -10 -12 -1 0 -24 hhcurveto
          -245 hlineto
          -18 -13 0 -1 -30 vvcurveto
          -26 vlineto
          143 896 rmoveto
          25 0 1 -8 7 vhcurveto
          9 -9 -3 0 -30 hhcurveto
          -27 -1 0 -9 -8 hvcurveto
          -9 -10 -1 -1 -22 vvcurveto
          -8 vlineto
          -22 1 -3 9 -8 vhcurveto
          -8 9 2 -1 25 hhcurveto
          5 hlineto
          24 3 0 9 9 hvcurveto
          9 7 0 1 25 vvcurveto
          hintmask 1101110100000000
          160 8 rmoveto
          25 0 1 -8 7 vhcurveto
          9 -9 -3 0 -30 hhcurveto
          -27 -1 0 -9 -8 hvcurveto
          -9 -10 -1 -1 -22 vvcurveto
          -8 vlineto
          -22 1 -3 9 -8 vhcurveto
          -8 9 2 -1 25 hhcurveto
          5 hlineto
          24 3 0 9 9 hvcurveto
          9 7 0 1 25 vvcurveto
          endchar
        </CharString>
        <CharString name="yen">
          -27 21 -21 160 65 61 65 349 -20 hstem
          245 84 vstem
          487 225 rmoveto
          -158 61 158 65 -125 hlineto
          197 349 rlineto
          -96 hlineto
          -161 -306 -4 -8 -8 -13 -1 -10 rlinecurve
          -4 hlineto
          -1 10 -8 14 -4 7 -161 306 rcurveline
          -96 hlineto
          196 -349 rlineto
          -124 -65 158 -61 -158 -65 158 -160 84 160 158 hlineto
          endchar
        </CharString>
        <CharString name="z">
          -127 0 70 360 70 hstem
          45 91 190 93 vstem
          136 70 rmoveto
          5 vlineto
          7 2 6 5 8 9 262 333 rcurveline
          76 -370 -26 vlineto
          -30 0 -1 18 -13 vhcurveto
          259 -5 hlineto
          -7 -2 -6 -5 -8 -9 -260 -335 rcurveline
          -74 384 26 vlineto
          30 0 1 -18 13 vhcurveto
          endchar
        </CharString>
        <CharString name="zero">
          179 0 70 560 70 hstem
          96 84 420 84 vstem
          192 700 rmoveto
          -24 -12 -10 -10 -12 hvcurveto
          -24 -20 rlineto
          -12 -10 -12 -10 -30 vvcurveto
          -520 vlineto
          -30 12 -10 12 -10 vhcurveto
          24 -20 rlineto
          -10 12 12 -10 24 hhcurveto
          396 hlineto
          24 12 10 10 12 hvcurveto
          24 20 rlineto
          12 10 12 10 30 vvcurveto
          520 vlineto
          30 -12 10 -12 10 vhcurveto
          -24 20 rlineto
          10 -12 -12 10 -24 hhcurveto
          12 -589 rmoveto
          -20 0 -1 -12 -10 vhcurveto
          -10 -12 -1 0 -24 hhcurveto
          -322 hlineto
          -24 -1 0 10 -12 hvcurveto
          -12 10 0 1 20 vvcurveto
          478 vlineto
          20 0 1 12 10 vhcurveto
          10 12 1 0 24 hhcurveto
          322 hlineto
          24 1 0 -10 12 hvcurveto
          12 -10 0 -1 -20 vvcurveto
          endchar
        </CharString>
</ttFont>
